<svg width="321" height="501" viewBox="0 0 321 501" fill="none" xmlns="http://www.w3.org/2000/svg">
<path d="M219.796 432.581L213.615 431.65L216.04 415.555L222.221 416.486L219.796 432.581Z" fill="#B314DA"/>
<path d="M228.899 403.073C228.899 403.073 220.002 418.706 216.844 434.968C219.483 431.535 229.009 407.038 228.899 403.073Z" fill="#561042"/>
<path d="M227.461 420.04C228.775 418.472 229.919 417.155 230.795 416.165C231.894 414.923 233.627 414.463 235.198 414.993L239.17 416.334C239.17 416.334 230.669 417.333 217.592 433.504C217.592 433.504 218.273 431.741 219.983 429.298C221.835 426.649 224.822 423.192 227.461 420.04Z" fill="#3F024E"/>
<path d="M228.261 434.352C225.304 432.645 220.205 432.955 216.36 436.58C216.36 436.58 226.005 431.87 227.638 435.504C228.006 436.323 228.355 437.016 228.686 437.606L229.213 436.685L228.745 437.708C228.93 438.032 229.108 438.322 229.28 438.583L229.841 437.604L229.428 438.804C229.629 439.094 229.821 439.347 230.004 439.562L230.473 438.591L230.172 439.753C231.545 441.256 232.335 440.721 232.335 440.721C232.335 440.721 232.653 436.886 228.261 434.352Z" fill="#3F024E"/>
<path d="M221.086 431.067C221.086 431.067 229.09 424.982 236.638 427.401C236.638 427.401 238.537 429.662 238.775 431.996C238.775 431.996 231.18 425.489 221.83 431.343L221.086 431.067Z" fill="#561042"/>
<path d="M214.248 400.866C214.248 400.866 218.145 418.427 216.37 434.897C214.86 430.839 212.975 404.622 214.248 400.866Z" fill="#3F024E"/>
<path d="M210.624 417.503C209.831 415.617 209.126 414.022 208.58 412.818C207.896 411.307 206.375 410.357 204.718 410.4L200.527 410.511C200.527 410.511 208.356 413.971 216.088 433.278C216.088 433.278 215.956 431.392 215.042 428.553C214.053 425.476 212.217 421.292 210.624 417.503Z" fill="#561042"/>
<path d="M205.643 430.944C208.971 430.185 213.752 431.983 216.359 436.58C216.359 436.58 208.53 429.236 205.899 432.229C205.306 432.903 204.767 433.462 204.277 433.928L204.045 432.893L204.191 434.008C203.919 434.263 203.663 434.488 203.421 434.687L203.175 433.587L203.215 434.854C202.938 435.073 202.68 435.257 202.443 435.409L202.28 434.343L202.225 435.541C200.47 436.574 199.873 435.83 199.873 435.83C199.873 435.83 200.699 432.072 205.643 430.944Z" fill="#561042"/>
<path d="M213.466 429.919C213.466 429.919 207.611 421.746 199.685 421.833C199.685 421.833 197.204 423.434 196.29 425.594C196.29 425.594 205.464 421.614 212.674 429.964L213.466 429.919Z" fill="#3F024E"/>
<path d="M228.418 410.933C222.269 418.673 216.4 436.313 216.4 436.313C216.4 436.313 220.903 427.587 226.309 420.851L225.159 418.981L226.65 420.431C226.752 420.306 226.853 420.182 226.955 420.059C227.346 419.591 227.734 419.132 228.12 418.683L226.269 416.688L228.562 418.171C228.737 417.969 228.912 417.769 229.086 417.571L227.441 416.599L229.244 417.391C229.661 416.917 230.073 416.455 230.479 416.007L227.176 414.671L230.801 415.653C231.275 415.134 231.739 414.631 232.191 414.151L229.07 413.422L232.339 413.994C232.654 413.659 232.963 413.333 233.265 413.019L228.982 412.018L233.852 412.413C234.719 411.521 235.515 410.726 236.22 410.037L230.921 409.626L237.303 408.99C237.579 408.727 237.831 408.489 238.059 408.276L234.876 408.447L238.279 408.071C239.027 407.376 239.455 407 239.455 407L237.076 406.815C236.842 406.797 236.609 406.789 236.379 406.789C233.24 406.789 230.402 408.436 228.418 410.933Z" fill="#B314DA"/>
<path d="M243.809 423.62L241.054 424.826L243.054 422.944C242.715 422.66 242.354 422.379 241.967 422.114L240.592 423.629L241.812 422.013C241.565 421.849 241.308 421.69 241.042 421.539L239.364 424.449L240.422 421.21C240.272 421.136 240.117 421.067 239.961 420.999L238.868 423.739L239.711 420.894C239.37 420.756 239.019 420.63 238.655 420.526L237.654 422.591L238.114 420.388C237.798 420.316 237.475 420.258 237.143 420.215L236.537 421.906L236.978 420.197C236.817 420.179 236.655 420.163 236.489 420.153L235.622 424.209L235.634 420.139C235.3 420.146 234.96 420.17 234.611 420.212L234.25 423.59L234.3 420.254C233.833 420.325 233.356 420.424 232.866 420.564C232.65 420.625 232.437 420.692 232.226 420.761L232.257 422.409L232.079 420.81C231.968 420.848 231.857 420.886 231.747 420.925L232.159 425.33L230.894 421.253C230.529 421.404 230.172 421.567 229.82 421.739L230.359 423.458L229.321 421.992C229.021 422.149 228.727 422.313 228.438 422.483L230.4 425.46L228.169 422.642C220.378 427.375 216.359 436.579 216.359 436.579C225.947 426.569 229.027 426.766 234.874 425.814C240.72 424.863 246.455 426.893 246.455 426.893C246.455 426.893 245.536 425.274 243.809 423.62Z" fill="#FFEE95"/>
<path d="M234.915 437.13L236.07 437.619C236.052 437.228 236.013 436.822 235.947 436.407L233.118 435.524L235.859 435.937C235.666 435.023 235.324 434.087 234.762 433.215L232.987 433.245L234.553 432.9C234.389 432.672 234.203 432.452 234.004 432.237L230.992 433.387L233.427 431.673C232.774 431.104 231.973 430.601 230.984 430.202L229.653 432.458L230.702 430.1C230.327 429.961 229.931 429.833 229.504 429.725L229.112 431.188L229.278 429.672C228.732 429.544 228.202 429.465 227.688 429.425L227.718 431.449L227.356 429.405C220.284 429.104 216.359 436.579 216.359 436.579C230.794 426.505 235.704 441.228 235.704 441.228C235.704 441.228 236.111 439.815 236.08 437.96L234.915 437.13Z" fill="#B314DA"/>
<path d="M213.136 417.169L211.283 418.115C211.223 417.966 211.163 417.817 211.102 417.67C210.867 417.108 210.63 416.555 210.394 416.012L212.75 414.651L210.123 415.392C210.015 415.148 209.907 414.905 209.799 414.665L211.657 414.22L209.701 414.446C209.442 413.87 209.184 413.307 208.929 412.76L212.478 412.457L208.725 412.326C208.425 411.691 208.129 411.074 207.84 410.482L211.037 410.704L207.745 410.288C207.542 409.875 207.342 409.472 207.146 409.083L211.534 409.389L206.764 408.331C206.199 407.224 205.672 406.23 205.201 405.363L210.386 406.531L204.475 404.043C204.289 403.711 204.118 403.409 203.963 403.138L206.954 404.24L203.813 402.878C203.304 401.993 203.005 401.508 203.005 401.508L205.333 402.032C208.673 402.785 211.148 405.329 212.393 408.518C215.988 417.726 216.399 436.313 216.399 436.313C216.399 436.313 214.667 426.647 211.486 418.618L213.136 417.169Z" fill="#FFEE95"/>
<path d="M198.666 414.71L198.633 417.678L198.396 414.737C198.227 414.756 198.059 414.776 197.894 414.802L197.95 418.209L197.204 414.934C196.905 415 196.614 415.076 196.328 415.16L197.018 417.064L196.151 415.211C195.702 415.351 195.275 415.512 194.867 415.684L196.223 418.072L193.946 416.107C191.809 417.179 190.454 418.455 190.454 418.455C190.454 418.455 196.532 418.205 201.839 420.837C207.145 423.469 210.146 424.188 216.36 436.579C216.36 436.579 215.231 426.6 209.18 419.781L206.218 421.817L208.971 419.551C208.745 419.302 208.512 419.059 208.271 418.821L206.848 419.916L207.868 418.432C207.583 418.164 207.29 417.903 206.986 417.651L204.576 421.174L206.268 417.086C206.174 417.016 206.079 416.947 205.984 416.878L205.343 418.355L205.858 416.789C205.676 416.66 205.493 416.534 205.305 416.411C204.877 416.134 204.451 415.898 204.025 415.693L203.09 418.895L203.74 415.561C203.42 415.418 203.101 415.295 202.784 415.189L201.596 419.083L201.963 414.951C201.802 414.912 201.642 414.88 201.483 414.849L201.402 416.612L201.32 414.818C200.99 414.761 200.665 414.721 200.342 414.697L200.131 416.938L199.784 414.669C199.725 414.668 199.666 414.667 199.608 414.667C199.289 414.667 198.976 414.683 198.666 414.71Z" fill="#B314DA"/>
<path d="M198.465 431.638L197.217 431.765C197.349 431.396 197.506 431.02 197.692 430.643L200.656 430.633L197.914 430.22C198.368 429.403 198.97 428.61 199.764 427.942L201.452 428.494L200.057 427.702C200.281 427.533 200.524 427.378 200.777 427.23L203.317 429.217L201.495 426.861C202.287 426.511 203.2 426.266 204.263 426.176L204.871 428.724L204.562 426.161C204.961 426.139 205.378 426.134 205.818 426.156L205.76 427.669L206.049 426.172C206.608 426.211 207.138 426.291 207.641 426.405L207.016 428.33L207.965 426.484C214.811 428.28 216.36 436.579 216.36 436.579C205.534 422.699 196.504 435.322 196.504 435.322C196.504 435.322 196.531 433.851 197.107 432.088L198.465 431.638Z" fill="#FFEE95"/>
<path d="M219.969 400.067L220.327 406.249L219.371 401.124C218.937 401.925 218.488 402.837 218.043 403.863L219.845 409.447L217.607 404.912C217.499 405.182 217.392 405.459 217.286 405.743L219.342 412.787L216.916 406.772C216.625 407.62 216.345 408.523 216.084 409.483L218.775 416.549L215.688 411.046C215.398 412.279 215.141 413.592 214.93 414.992L218.46 418.639L214.867 415.433C214.735 416.358 214.633 417.267 214.557 418.157L218.149 420.707L214.51 418.767C214.438 419.747 214.395 420.704 214.379 421.632L217.902 422.344L214.38 423.269C214.391 423.974 214.414 424.661 214.45 425.324L217.511 424.937L214.475 425.735C214.509 426.292 214.551 426.834 214.599 427.358L217.296 426.368L214.632 427.683C214.71 428.479 214.803 429.232 214.904 429.939L217.036 428.097L214.933 430.139C215.521 434.13 216.359 436.579 216.359 436.579C216.359 436.579 217.882 434.486 219.621 430.846L217.997 429.708L219.707 430.662C220.012 430.016 220.322 429.324 220.632 428.587L218.398 427.043L220.758 428.286C220.96 427.8 221.159 427.294 221.356 426.772L218.614 425.616L221.501 426.386C221.731 425.763 221.955 425.114 222.173 424.443L218.87 423.916L222.656 422.879C222.914 421.988 223.156 421.061 223.376 420.103L219.23 421.525L223.509 419.506C223.7 418.633 223.87 417.734 224.017 416.811L219.768 417.952L224.086 416.372C224.297 414.972 224.438 413.641 224.524 412.378L220.198 415.099L224.606 410.767C224.64 409.773 224.639 408.828 224.61 407.931L220.52 412.964L224.56 406.839C224.542 406.536 224.521 406.24 224.498 405.95L221.145 408.818L224.391 404.82C224.268 403.708 224.107 402.704 223.929 401.811L221.752 404.784L223.669 400.624C223.053 398.056 222.369 396.696 222.369 396.696C222.369 396.696 221.315 397.794 219.969 400.067Z" fill="#100744"/>
<path d="M216.104 435.874C216.021 435.562 215.735 435.449 215.735 435.449C215.69 435.752 215.934 436.042 215.934 436.042C215.751 435.951 215.656 435.953 215.656 435.953C213.217 450.881 204.34 469.513 204.34 469.513L206.432 474.497C214.379 460.79 217.765 435.953 217.765 435.953C217.567 435.963 217.231 436 217.231 436C217.511 435.678 217.579 435.346 217.579 435.346C217.189 435.455 216.873 435.849 216.873 435.849C216.987 435.153 216.587 434.702 216.587 434.702C216.192 435.008 216.104 435.874 216.104 435.874Z" fill="#19102B"/>
<path d="M110.949 231.083L71.1479 225.086L86.7648 121.442L126.566 127.44L110.949 231.083Z" fill="#ED79D8"/>
<path d="M169.569 41.0618C169.569 41.0618 112.274 141.732 91.939 246.455C108.936 224.346 170.277 66.5963 169.569 41.0618Z" fill="#8B2A9B"/>
<path d="M160.31 150.325C168.77 140.225 176.138 131.745 181.777 125.371C188.854 117.373 200.014 114.407 210.132 117.822L235.709 126.455C235.709 126.455 180.969 132.892 96.7563 237.027C96.7563 237.027 101.146 225.672 112.155 209.937C124.083 192.882 143.313 170.618 160.31 150.325Z" fill="#8B318C"/>
<path d="M165.459 242.484C146.419 231.497 113.585 233.492 88.8206 256.831C88.8206 256.831 150.932 226.5 161.446 249.907C163.815 255.179 166.067 259.644 168.2 263.438L171.59 257.508L168.579 264.098C169.768 266.181 170.917 268.053 172.024 269.735L175.635 263.431L172.978 271.153C174.27 273.025 175.507 274.651 176.682 276.034L179.706 269.785L177.768 277.263C186.61 286.945 191.696 283.499 191.696 283.499C191.696 283.499 193.742 258.806 165.459 242.484Z" fill="#8B318C"/>
<path d="M119.259 221.334C119.259 221.334 170.8 182.147 219.405 197.727C219.405 197.727 231.634 212.282 233.165 227.314C233.165 227.314 184.256 185.41 124.05 223.11L119.259 221.334Z" fill="#8B2A9B"/>
<path d="M75.2261 26.8474C75.2261 26.8474 100.316 139.932 88.888 245.998C79.1636 219.863 67.0275 51.0394 75.2261 26.8474Z" fill="#8B318C"/>
<path d="M51.8862 133.989C46.7768 121.843 42.2371 111.569 38.7237 103.817C34.3195 94.0898 24.5273 87.9666 13.8517 88.2476L-13.1333 88.9628C-13.1333 88.9628 37.2782 111.242 87.0699 235.57C87.0699 235.57 86.2217 223.424 80.3393 205.144C73.9651 185.329 62.1477 158.389 51.8862 133.989Z" fill="#8B2A9B"/>
<path d="M19.8103 220.538C41.2417 215.65 72.0312 227.231 88.82 256.831C88.82 256.831 38.4034 209.544 21.4565 228.815C17.642 233.154 14.1714 236.757 11.0169 239.756L9.52119 233.088L10.4598 240.273C8.71062 241.914 7.05934 243.365 5.50343 244.645L3.91489 237.558L4.17588 245.719C2.39161 247.127 0.727787 248.316 -0.79801 249.292L-1.847 242.429L-2.20084 250.146C-13.5013 256.793 -17.3484 252.003 -17.3484 252.003C-17.3484 252.003 -12.0257 227.803 19.8103 220.538Z" fill="#8B2A9B"/>
<path d="M70.1886 213.939C70.1886 213.939 32.4828 161.307 -18.5561 161.872C-18.5561 161.872 -34.5318 172.178 -40.4216 186.091C-40.4216 186.091 18.6603 160.456 65.0867 214.228L70.1886 213.939Z" fill="#8B318C"/>
<path d="M166.473 91.6798C126.878 141.519 89.0791 255.116 89.0791 255.116C89.0791 255.116 118.082 198.925 152.889 155.55L145.483 143.507L155.09 152.84C155.745 152.039 156.395 151.236 157.05 150.448C159.567 147.432 162.066 144.48 164.551 141.589L152.636 128.741L167.399 138.292C168.528 136.987 169.653 135.7 170.772 134.425L160.182 128.163L171.788 133.265C174.476 130.214 177.129 127.24 179.744 124.356L158.475 115.754L181.819 122.075C184.868 118.733 187.859 115.495 190.765 112.404L170.669 107.706L191.719 111.392C193.749 109.236 195.742 107.136 197.687 105.113L170.102 98.6664L201.464 101.208C207.047 95.4692 212.174 90.3498 216.712 85.9104L182.592 83.2603L223.688 79.1698C225.462 77.4758 227.086 75.9425 228.557 74.5673L208.056 75.674L229.969 73.2498C234.788 68.7753 237.543 66.3536 237.543 66.3536L222.225 65.1641C220.719 65.0486 219.221 64.9909 217.735 64.9909C197.526 64.9909 179.247 75.6012 166.473 91.6798Z" fill="#ED79D8"/>
<path d="M265.585 173.381L247.845 181.148L260.724 169.029C258.538 167.195 256.217 165.391 253.72 163.682L244.869 173.439L252.724 163.032C251.13 161.973 249.481 160.949 247.767 159.98L236.961 178.716L243.775 157.86C242.806 157.385 241.807 156.941 240.806 156.504L233.767 174.149L239.195 155.827C236.999 154.933 234.74 154.128 232.391 153.453L225.949 166.753L228.908 152.567C226.878 152.1 224.792 151.731 222.659 151.455L218.752 162.339L221.598 151.337C220.556 151.222 219.512 151.119 218.446 151.054L212.862 177.175L212.942 150.963C210.792 151.011 208.598 151.162 206.355 151.433L204.029 173.185L204.35 151.704C201.343 152.16 198.272 152.798 195.115 153.701C193.724 154.095 192.354 154.527 190.992 154.971L191.192 165.584L190.05 155.287C189.333 155.528 188.615 155.772 187.907 156.025L190.56 184.39L182.416 158.138C180.068 159.112 177.766 160.161 175.503 161.268L178.968 172.337L172.285 162.899C170.358 163.91 168.461 164.964 166.599 166.058L179.237 185.231L164.87 167.082C114.697 197.563 88.8184 256.831 88.8184 256.831C150.563 192.371 170.396 193.638 208.044 187.51C245.692 181.381 282.622 194.456 282.622 194.456C282.622 194.456 276.707 184.029 265.585 173.381Z" fill="#FFEE95"/>
<path d="M208.31 260.376L215.751 263.523C215.635 261.009 215.384 258.391 214.955 255.721L196.739 250.037L214.391 252.697C213.148 246.807 210.948 240.784 207.326 235.163L195.898 235.361L205.979 233.138C204.922 231.672 203.725 230.254 202.448 228.867L183.047 236.272L198.729 225.235C194.525 221.574 189.366 218.332 182.996 215.767L174.424 230.29L181.182 215.107C178.768 214.211 176.218 213.39 173.465 212.693L170.946 222.113L172.012 212.349C168.496 211.528 165.083 211.016 161.773 210.763L161.964 223.795L159.633 210.632C114.095 208.695 88.821 256.828 88.821 256.828C181.777 191.959 213.389 286.767 213.389 286.767C213.389 286.767 216.012 277.665 215.816 265.722L208.31 260.376Z" fill="#ED79D8"/>
<path d="M68.0621 131.837L56.1318 137.925C55.7428 136.969 55.3589 136.011 54.9624 135.065C53.4491 131.441 51.9283 127.882 50.4076 124.387L65.5777 115.621L48.6584 120.396C47.9633 118.82 47.2681 117.257 46.5755 115.711L58.5385 112.845L45.9456 114.301C44.2743 110.594 42.6129 106.968 40.9692 103.444L63.826 101.492L39.6567 100.651C37.7294 96.5583 35.8222 92.5857 33.9576 88.7738L54.5458 90.2067L33.3452 87.5265C32.0403 84.8689 30.7504 82.274 29.4906 79.767L57.7479 81.737L27.0313 74.9236C23.3899 67.794 19.9995 61.3922 16.968 55.811L50.3523 63.3346L12.2877 47.3137C11.0907 45.1731 9.98901 43.2282 8.99021 41.4841L28.2559 48.5786L8.02906 39.8077C4.74659 34.1111 2.82178 30.9842 2.82178 30.9842L17.8162 34.362C39.3204 39.2079 55.2585 55.5927 63.2765 76.1282C86.4269 135.421 89.077 255.116 89.077 255.116C89.077 255.116 77.9196 192.872 57.4393 141.168L68.0621 131.837Z" fill="#FFEE95"/>
<path d="M-25.1166 116.001L-25.3324 135.111L-26.8582 116.174C-27.9448 116.294 -29.0264 116.427 -30.0905 116.595L-29.7266 138.534L-34.5349 117.444C-36.4572 117.865 -38.3343 118.357 -40.1713 118.899L-35.7294 131.158L-41.3131 119.228C-44.2015 120.126 -46.952 121.165 -49.582 122.272L-40.8464 137.65L-55.5095 125C-69.2743 131.898 -78 140.12 -78 140.12C-78 140.12 -38.8587 138.509 -4.68642 155.458C29.4834 172.405 48.8118 177.037 88.8213 256.828C88.8213 256.828 81.5562 192.569 42.5907 148.657L23.5157 161.767L41.2431 147.171C39.785 145.573 38.2843 144.007 36.7359 142.474L27.5686 149.525L34.1411 139.967C32.3066 138.245 30.4169 136.564 28.4594 134.94L12.9405 157.626L23.8369 131.304C23.2296 130.852 22.6198 130.408 22.005 129.964L17.8768 139.47L21.1969 129.386C20.0249 128.561 18.8429 127.748 17.6333 126.957C14.8804 125.168 12.1325 123.652 9.39455 122.33L3.37414 142.95L7.55759 121.479C5.49726 120.558 3.44195 119.77 1.4017 119.087L-6.24738 144.163L-3.88343 117.554C-4.91987 117.303 -5.95129 117.092 -6.97768 116.896L-7.49961 128.247L-8.02912 116.698C-10.1497 116.329 -12.2477 116.068 -14.3256 115.915L-15.6807 130.345L-17.9192 115.735C-18.2982 115.729 -18.6771 115.724 -19.0535 115.724C-21.1038 115.724 -23.124 115.825 -25.1166 116.001Z" fill="#ED79D8"/>
<path d="M-26.4118 225.01L-34.4498 225.825C-33.5965 223.454 -32.5852 221.03 -31.3882 218.603L-12.3057 218.54L-29.9602 215.88C-27.0341 210.618 -23.1594 205.508 -18.045 201.207L-7.17868 204.763L-16.1578 199.666C-14.7148 198.577 -13.1514 197.576 -11.5227 196.627L4.83446 209.418L-6.90012 194.25C-1.80326 191.992 4.0816 190.413 10.9226 189.839L14.8375 206.243L12.8499 189.743C15.4222 189.6 18.1024 189.568 20.9356 189.711L20.5667 199.453L22.4263 189.811C26.0275 190.062 29.4404 190.579 32.6777 191.312L28.655 203.709L34.7632 191.819C78.8481 203.383 88.821 256.828 88.821 256.828C19.1062 167.449 -39.0422 248.73 -39.0422 248.73C-39.0422 248.73 -38.8666 239.261 -35.16 227.908L-26.4118 225.01Z" fill="#FFEE95"/>
<path d="M112.065 21.7048L114.374 61.5135L108.213 28.5132C105.422 33.6703 102.529 39.545 99.6604 46.1501L111.27 82.1068L96.8572 52.9033C96.1621 54.6449 95.472 56.4292 94.7869 58.2561L108.03 103.616L92.4054 64.8863C90.5307 70.3446 88.7314 76.1617 87.0475 82.3426L104.378 127.843L84.5003 92.4084C82.6333 100.346 80.9769 108.803 79.6142 117.817L102.351 141.299L79.2077 120.653C78.362 126.613 77.707 132.466 77.2177 138.2L100.346 154.62L76.9089 142.127C76.4472 148.439 76.1712 154.602 76.0708 160.575L98.757 165.157L76.0733 171.117C76.1436 175.657 76.2916 180.079 76.525 184.35L96.2399 181.856L76.6856 186.995C76.904 190.584 77.175 194.075 77.4862 197.447L94.8496 191.076L77.6945 199.543C78.2014 204.665 78.7962 209.513 79.4487 214.066L93.1758 202.208L79.6343 215.358C83.4212 241.056 88.8217 256.828 88.8217 256.828C88.8217 256.828 98.629 243.347 109.822 219.908L99.3668 212.58L110.379 218.726C112.341 214.568 114.341 210.111 116.336 205.365L101.952 195.417L117.149 203.423C118.444 200.293 119.729 197.036 120.999 193.676L103.337 186.232L121.93 191.191C123.411 187.176 124.856 182.998 126.259 178.679L104.986 175.286L129.366 168.605C131.03 162.869 132.585 156.898 134.003 150.73L107.307 159.885L134.864 146.885C136.089 141.262 137.185 135.475 138.134 129.532L110.773 136.875L138.578 126.701C139.933 117.689 140.844 109.114 141.396 100.983L113.541 118.508L141.928 90.6116C142.142 84.2098 142.139 78.1216 141.954 72.3497L115.611 104.758L141.63 65.3155C141.514 63.3656 141.381 61.4583 141.231 59.5912L119.636 78.0564L140.541 52.3111C139.748 45.1514 138.711 38.6843 137.564 32.935L123.549 52.0802L135.891 25.2934C131.923 8.75555 127.519 -0.000152588 127.519 -0.000152588C127.519 -0.000152588 120.73 7.07167 112.065 21.7048Z" fill="#710D89"/>
<path d="M87.1788 252.286C86.6442 250.278 84.8022 249.553 84.8022 249.553C84.5111 251.503 86.0821 253.372 86.0821 253.372C84.9026 252.782 84.2928 252.797 84.2928 252.797C68.5831 348.928 11.4185 468.906 11.4185 468.906L24.8896 501C76.069 412.735 97.8719 252.797 97.8719 252.797C96.5995 252.863 94.4338 253.096 94.4338 253.096C96.2357 251.023 96.6723 248.885 96.6723 248.885C94.1653 249.588 92.1275 252.127 92.1275 252.127C92.8603 247.648 90.2856 244.739 90.2856 244.739C87.7459 246.712 87.1788 252.286 87.1788 252.286Z" fill="#19102B"/>
<path d="M267.308 440.863L274.621 439.761L271.751 420.718L264.439 421.82L267.308 440.863Z" fill="#B314DA"/>
<path d="M256.538 405.951C256.538 405.951 267.065 424.447 270.801 443.688C267.678 439.625 256.408 410.642 256.538 405.951Z" fill="#561042"/>
<path d="M258.239 426.025C256.685 424.17 255.331 422.612 254.295 421.44C252.995 419.971 250.945 419.426 249.086 420.054L244.386 421.64C244.386 421.64 254.444 422.822 269.916 441.955C269.916 441.955 269.11 439.869 267.087 436.978C264.895 433.844 261.362 429.754 258.239 426.025Z" fill="#3F024E"/>
<path d="M257.293 442.958C260.791 440.939 266.824 441.306 271.374 445.594C271.374 445.594 259.962 440.021 258.03 444.322C257.595 445.29 257.181 446.111 256.789 446.808L256.167 445.718L256.72 446.929C256.501 447.312 256.29 447.656 256.087 447.965L255.423 446.806L255.912 448.225C255.674 448.569 255.447 448.868 255.231 449.122L254.675 447.974L255.031 449.348C253.407 451.127 252.472 450.494 252.472 450.494C252.472 450.494 252.097 445.957 257.293 442.958Z" fill="#3F024E"/>
<path d="M265.781 439.072C265.781 439.072 256.311 431.872 247.381 434.735C247.381 434.735 245.134 437.409 244.853 440.171C244.853 440.171 253.839 432.472 264.901 439.399L265.781 439.072Z" fill="#561042"/>
<path d="M273.872 403.339C273.872 403.339 269.262 424.116 271.361 443.604C273.148 438.802 275.378 407.784 273.872 403.339Z" fill="#3F024E"/>
<path d="M278.16 423.024C279.098 420.792 279.933 418.905 280.578 417.481C281.387 415.693 283.186 414.568 285.148 414.62L290.106 414.751C290.106 414.751 280.844 418.845 271.695 441.688C271.695 441.688 271.851 439.456 272.932 436.097C274.103 432.457 276.274 427.507 278.16 423.024Z" fill="#561042"/>
<path d="M284.053 438.926C280.115 438.027 274.458 440.155 271.374 445.594C271.374 445.594 280.637 436.906 283.751 440.446C284.451 441.243 285.089 441.906 285.669 442.457L285.943 441.232L285.771 442.552C286.092 442.853 286.396 443.12 286.682 443.355L286.973 442.053L286.925 443.552C287.253 443.811 287.559 444.029 287.839 444.209L288.032 442.948L288.097 444.365C290.173 445.587 290.88 444.707 290.88 444.707C290.88 444.707 289.902 440.26 284.053 438.926Z" fill="#561042"/>
<path d="M274.797 437.713C274.797 437.713 281.725 428.043 291.102 428.147C291.102 428.147 294.037 430.04 295.119 432.597C295.119 432.597 284.264 427.887 275.734 437.766L274.797 437.713Z" fill="#3F024E"/>
<path d="M257.106 415.25C264.381 424.407 271.326 445.278 271.326 445.278C271.326 445.278 265.997 434.954 259.602 426.985L260.963 424.772L259.198 426.487C259.077 426.34 258.958 426.193 258.838 426.048C258.375 425.494 257.916 424.951 257.46 424.42L259.649 422.059L256.936 423.814C256.729 423.575 256.522 423.338 256.317 423.104L258.262 421.953L256.13 422.891C255.636 422.33 255.149 421.784 254.668 421.254L258.576 419.673L254.287 420.835C253.727 420.221 253.177 419.626 252.643 419.058L256.335 418.195L252.468 418.872C252.095 418.476 251.729 418.09 251.371 417.718L256.44 416.534L250.678 417.001C249.652 415.946 248.71 415.006 247.876 414.19L254.145 413.703L246.594 412.952C246.268 412.641 245.97 412.359 245.7 412.106L249.466 412.31L245.44 411.864C244.555 411.042 244.049 410.597 244.049 410.597L246.863 410.379C247.14 410.357 247.415 410.347 247.688 410.347C251.401 410.347 254.759 412.296 257.106 415.25Z" fill="#B314DA"/>
<path d="M238.896 430.262L242.156 431.689L239.79 429.462C240.191 429.125 240.618 428.794 241.076 428.48L242.703 430.272L241.26 428.36C241.552 428.166 241.855 427.977 242.17 427.799L244.156 431.242L242.904 427.41C243.082 427.323 243.265 427.241 243.449 427.161L244.742 430.403L243.745 427.036C244.149 426.872 244.564 426.724 244.995 426.6L246.179 429.044L245.635 426.437C246.008 426.352 246.391 426.284 246.783 426.233L247.501 428.233L246.978 426.211C247.17 426.19 247.361 426.171 247.557 426.159L248.583 430.959L248.568 426.143C248.964 426.152 249.367 426.179 249.779 426.229L250.206 430.226L250.147 426.279C250.7 426.363 251.264 426.48 251.844 426.646C252.099 426.718 252.351 426.798 252.602 426.879L252.565 428.829L252.774 426.937C252.906 426.981 253.038 427.026 253.168 427.073L252.681 432.284L254.177 427.461C254.609 427.64 255.031 427.833 255.447 428.036L254.811 430.07L256.038 428.336C256.392 428.521 256.741 428.715 257.083 428.916L254.761 432.439L257.401 429.104C266.619 434.705 271.374 445.594 271.374 445.594C260.029 433.751 256.386 433.983 249.469 432.857C242.551 431.731 235.766 434.134 235.766 434.134C235.766 434.134 236.853 432.218 238.896 430.262Z" fill="#FFEE95"/>
<path d="M249.42 446.245L248.053 446.823C248.074 446.361 248.12 445.88 248.199 445.39L251.546 444.345L248.302 444.834C248.531 443.752 248.935 442.645 249.6 441.613L251.7 441.649L249.848 441.241C250.042 440.971 250.262 440.711 250.497 440.456L254.061 441.816L251.18 439.789C251.952 439.116 252.9 438.52 254.07 438.049L255.646 440.717L254.404 437.928C254.847 437.763 255.316 437.612 255.822 437.484L256.285 439.215L256.089 437.421C256.735 437.27 257.362 437.176 257.97 437.13L257.935 439.524L258.363 437.106C266.73 436.75 271.373 445.593 271.373 445.593C254.295 433.675 248.486 451.094 248.486 451.094C248.486 451.094 248.005 449.421 248.041 447.227L249.42 446.245Z" fill="#B314DA"/>
<path d="M275.187 422.628L277.379 423.747C277.451 423.571 277.521 423.395 277.594 423.221C277.872 422.556 278.152 421.902 278.431 421.259L275.644 419.649L278.753 420.526C278.88 420.237 279.008 419.95 279.135 419.666L276.937 419.139L279.251 419.406C279.558 418.725 279.863 418.059 280.165 417.412L275.966 417.053L280.406 416.899C280.761 416.147 281.111 415.417 281.454 414.716L277.671 414.98L281.566 414.487C281.806 413.999 282.043 413.522 282.274 413.062L277.082 413.423L282.726 412.172C283.395 410.862 284.018 409.686 284.575 408.66L278.441 410.042L285.435 407.099C285.655 406.706 285.857 406.348 286.041 406.028L282.501 407.331L286.217 405.72C286.82 404.673 287.174 404.099 287.174 404.099L284.419 404.719C280.468 405.61 277.54 408.62 276.067 412.393C271.813 423.287 271.326 445.278 271.326 445.278C271.326 445.278 273.376 433.842 277.139 424.343L275.187 422.628Z" fill="#FFEE95"/>
<path d="M292.307 419.719L292.347 423.23L292.627 419.751C292.827 419.773 293.026 419.797 293.221 419.828L293.154 423.859L294.038 419.984C294.391 420.062 294.736 420.152 295.073 420.252L294.257 422.504L295.283 420.312C295.814 420.477 296.319 420.668 296.802 420.871L295.197 423.697L297.891 421.372C300.42 422.64 302.023 424.15 302.023 424.15C302.023 424.15 294.832 423.854 288.554 426.969C282.276 430.082 278.724 430.933 271.373 445.593C271.373 445.593 272.708 433.787 279.867 425.719L283.372 428.128L280.115 425.446C280.383 425.152 280.659 424.865 280.943 424.583L282.627 425.879L281.42 424.122C281.757 423.806 282.104 423.497 282.464 423.199L285.315 427.367L283.313 422.531C283.425 422.448 283.537 422.366 283.65 422.284L284.408 424.031L283.798 422.178C284.013 422.027 284.231 421.877 284.453 421.732C284.959 421.403 285.463 421.125 285.966 420.882L287.073 424.671L286.304 420.726C286.683 420.556 287.06 420.412 287.435 420.286L288.84 424.893L288.406 420.004C288.596 419.958 288.786 419.92 288.975 419.884L289.07 421.969L289.168 419.847C289.557 419.779 289.943 419.731 290.325 419.703L290.574 422.355L290.985 419.67C291.054 419.669 291.124 419.668 291.193 419.668C291.57 419.668 291.941 419.687 292.307 419.719Z" fill="#B314DA"/>
<path d="M292.545 439.747L294.022 439.897C293.865 439.461 293.679 439.016 293.459 438.57L289.953 438.559L293.197 438.07C292.659 437.103 291.948 436.164 291.008 435.374L289.011 436.027L290.661 435.091C290.396 434.891 290.109 434.707 289.81 434.533L286.804 436.883L288.96 434.096C288.024 433.681 286.943 433.391 285.686 433.285L284.966 436.299L285.332 433.268C284.859 433.241 284.367 433.235 283.846 433.262L283.914 435.052L283.572 433.28C282.91 433.326 282.283 433.421 281.689 433.556L282.428 435.834L281.305 433.649C273.206 435.774 271.373 445.593 271.373 445.593C284.182 429.172 294.866 444.105 294.866 444.105C294.866 444.105 294.833 442.366 294.152 440.28L292.545 439.747Z" fill="#FFEE95"/>
<path d="M267.103 402.394L266.679 409.708L267.811 403.645C268.324 404.593 268.855 405.672 269.382 406.885L267.249 413.492L269.897 408.126C270.025 408.446 270.152 408.774 270.278 409.11L267.845 417.444L270.715 410.328C271.06 411.331 271.39 412.399 271.7 413.535L268.515 421.895L272.168 415.384C272.511 416.843 272.815 418.397 273.065 420.053L268.888 424.367L273.14 420.574C273.295 421.669 273.416 422.744 273.506 423.798L269.256 426.815L273.562 424.519C273.647 425.679 273.698 426.811 273.716 427.909L269.548 428.751L273.716 429.846C273.703 430.68 273.676 431.492 273.633 432.277L270.011 431.819L273.603 432.763C273.563 433.422 273.513 434.064 273.456 434.683L270.266 433.513L273.418 435.068C273.325 436.009 273.216 436.9 273.096 437.737L270.574 435.558L273.062 437.974C272.366 442.695 271.374 445.593 271.374 445.593C271.374 445.593 269.572 443.116 267.515 438.81L269.436 437.464L267.413 438.593C267.052 437.829 266.685 437.01 266.318 436.138L268.961 434.31L266.169 435.781C265.931 435.206 265.695 434.608 265.462 433.99L268.707 432.623L265.291 433.534C265.019 432.796 264.753 432.028 264.495 431.235L268.404 430.612L263.924 429.384C263.619 428.33 263.333 427.233 263.072 426.1L267.977 427.782L262.914 425.394C262.689 424.36 262.488 423.297 262.313 422.205L267.341 423.554L262.232 421.685C261.983 420.029 261.815 418.454 261.714 416.96L266.832 420.18L261.616 415.054C261.577 413.878 261.578 412.76 261.612 411.699L266.452 417.653L261.671 410.407C261.692 410.048 261.717 409.698 261.744 409.355L265.712 412.748L261.871 408.017C262.017 406.702 262.207 405.514 262.418 404.457L264.993 407.975L262.726 403.053C263.455 400.015 264.264 398.406 264.264 398.406C264.264 398.406 265.511 399.706 267.103 402.394Z" fill="#100744"/>
<path d="M271.675 444.758C271.773 444.389 272.112 444.256 272.112 444.256C272.165 444.614 271.877 444.958 271.877 444.958C272.093 444.85 272.205 444.852 272.205 444.852C275.092 462.514 285.594 484.558 285.594 484.558L283.119 490.455C273.716 474.238 269.71 444.852 269.71 444.852C269.944 444.864 270.342 444.907 270.342 444.907C270.011 444.526 269.931 444.133 269.931 444.133C270.391 444.263 270.766 444.729 270.766 444.729C270.631 443.906 271.104 443.372 271.104 443.372C271.571 443.734 271.675 444.758 271.675 444.758Z" fill="#19102B"/>
<path d="M33.1046 397.541L-7.4745 417.95L29.9459 478.938L35.6147 414.747L33.1046 397.541Z" fill="#99509C"/>
<path d="M-7.47387 417.95L35.262 418.747L35.4934 416.114L33.1053 397.54L-7.47387 417.95Z" fill="#155777"/>
<path d="M29.945 478.938L26.0578 417.707L21.5107 403.371L33.1048 397.541L35.4941 416.115L29.945 478.938Z" fill="#BD15E5"/>
<path d="M145.013 290.54C178.164 314.359 194.93 367.652 194.93 367.652L177.434 395.11L178.408 412.848L126.653 423.54L117.175 363.109C117.175 363.109 126.34 291.847 145.013 290.54Z" fill="#99509C"/>
<path d="M132.48 360.85L192.85 361.728L193.566 363.685L132.45 362.794L132.48 360.85Z" fill="#155777"/>
<path d="M132.539 386.123L180.819 389.8L179.634 391.659L132.391 388.06L132.539 386.123Z" fill="#155777"/>
<path d="M186.954 347.472L187.819 349.402L132.48 350.158L132.451 348.214L186.954 347.472Z" fill="#155777"/>
<path d="M163.684 308.626L140.929 311.356L141.872 309.301L162.209 306.833L163.684 308.626Z" fill="#155777"/>
<path d="M132.361 400.693L132.568 398.761L177.9 403.594L178.008 405.562L132.361 400.693Z" fill="#155777"/>
<path d="M132.42 375.427L132.509 373.485L189.553 376.092L188.348 377.983L132.42 375.427Z" fill="#155777"/>
<path d="M171.91 319.926L173.117 321.783L134.799 324.714L135.725 322.693L171.91 319.926Z" fill="#155777"/>
<path d="M180.985 335.304L132.51 337.523L132.42 335.581L179.966 333.404L180.985 335.304Z" fill="#155777"/>
<path d="M145.014 290.541C147.862 292.586 150.584 294.853 153.19 297.281C154.271 301.252 155.231 306.259 155.186 311.451C155.082 323.162 155.187 326.514 155.187 326.514L158.096 329.262V369.475L137.586 386.123L128.499 378.578L131.325 305.516C135.116 297.009 139.676 290.914 145.014 290.541Z" fill="#BD15E5"/>
<path d="M178.408 412.848L165.286 403.372L137.586 370.082L128.5 378.578L155.185 406.598L178.408 412.848Z" fill="#155777"/>
<path d="M76.7607 291.842C54.7305 300.833 35.2913 315.169 13.9086 371.055L33.105 397.54L32.7995 421.628L97.0093 392.922L76.7607 291.842Z" fill="#99509C"/>
<path d="M19.361 378.578L17.9965 376.695L88.216 373.486L88.3049 375.427L19.361 378.578Z" fill="#155777"/>
<path d="M31.5723 332.987L85.4965 335.452L85.8887 337.416L30.4836 334.884C30.8461 334.242 31.2098 333.609 31.5723 332.987Z" fill="#155777"/>
<path d="M83.3054 324.513L39.2598 321.158C39.7203 320.529 40.1786 319.917 40.6379 319.314L82.9076 322.533L83.3054 324.513Z" fill="#155777"/>
<path d="M88.2769 362.794L16.735 363.884C17.004 363.224 17.2708 362.574 17.5364 361.927L88.2461 360.849L88.2769 362.794Z" fill="#155777"/>
<path d="M80.2886 309.454L80.6887 311.451L50.5114 308.233C51.1486 307.631 51.7859 307.047 52.4242 306.483L80.2886 309.454Z" fill="#155777"/>
<path d="M33.0145 404.64L82.6333 399.349L76.8915 401.916L32.9895 406.598L33.0145 404.64Z" fill="#155777"/>
<path d="M28.1446 390.696L88.188 386.123L88.3362 388.06L29.484 392.543L28.1446 390.696Z" fill="#155777"/>
<path d="M23.1453 349.167C23.452 348.516 23.7563 347.872 24.0618 347.237L88.0516 348.212L88.2603 349.251L88.2454 350.159L23.1453 349.167Z" fill="#155777"/>
<path d="M32.8611 420.38L53.7583 399.484L76.7609 369.69L79.9344 350.776L85.8894 381.843L63.7201 412.849L32.8611 420.38Z" fill="#155777"/>
<path d="M48.192 414.747C39.5001 375.65 52.5056 353.317 52.5056 353.317C48.1795 345.22 48.5887 335.413 53.5736 327.704L76.7609 291.843L97.0083 392.923L48.192 414.747Z" fill="#BD15E5"/>
<path d="M135.942 286.047C122.962 283.955 102.593 283.455 76.7603 291.842L81.4568 379.073L56.4309 404.343L32.8606 420.38L29.9458 478.938H182.538L178.408 412.848L162.371 405.558L137.343 378.83L137.586 370.082L143.419 361.335L149.007 329.262L147.791 324.888L150.186 304.883C151.274 295.794 144.979 287.504 135.942 286.047Z" fill="#99509C"/>
<path d="M78.8724 331.073L89.5558 373.485C89.5558 373.485 114.26 381.26 137.587 370.083L97.0087 366.909L78.8724 331.073Z" fill="#155777"/>
<path d="M137.586 370.083L111.587 392.543L85.2581 398.178L81.4575 379.074L78.5759 325.561L100.572 367.005L137.586 370.083Z" fill="#155777"/>
<path d="M78.8724 331.073L75.2623 314.683C75.2623 314.683 70.8884 307.879 67.0001 313.954C63.1129 320.028 63.7091 343.375 79.9348 350.776L78.8724 331.073Z" fill="#155777"/>
<path d="M83.8875 322.6L98.4661 330.395C98.4661 330.395 98.4661 345.94 102.515 348.697L100.087 350.158L103.811 362.279L143.418 361.336L137.586 370.083C137.586 370.083 116.446 375.429 92.1486 370.083L78.8718 331.073L76.7607 291.843L83.8875 322.6Z" fill="#F4A6BE"/>
<path d="M147.064 340.401L131.797 366.91L143.418 361.335L147.064 340.401Z" fill="#F4A6BE"/>
<path d="M129.69 308.967L149.423 311.257L147.791 324.888L140.929 315.291H131.026L123.371 323.43H116.568L109.4 315.291H98.3441L83.8875 322.6L81.2828 311.356L113.167 308.967H129.69Z" fill="#DF36B4"/>
<path d="M135.479 348.492H106.241L119.928 345.98H128.189L135.479 348.492Z" fill="#155777"/>
<path d="M135.479 349.518L129.82 353.251H114.711L106.241 349.518H135.479Z" fill="#F4A6BE"/>
<path d="M128.499 337.847H112.074L119.97 312.937L127.867 335.156L128.499 337.847Z" fill="#F4A6BE"/>
<path d="M127.868 335.156H116.664L119.97 312.937L127.868 335.156Z" fill="#8B2A9B"/>
<path d="M117.051 277.858H121.366L126.856 285.203L124.434 300.832L121.578 303.221H116.84L111.562 285.203L117.051 277.858Z" fill="#155777"/>
<path d="M30.8531 460.715L31.0468 456.828H181.157L181.399 460.715H30.8531Z" fill="#155777"/>
<path d="M180.261 442.492L180.503 446.379H31.5674L31.7611 442.492H180.261Z" fill="#155777"/>
<path d="M178.468 413.819L178.711 417.707H36.7902L42.5047 413.819H178.468Z" fill="#155777"/>
<path d="M179.364 428.156L179.607 432.043H32.2816L32.4743 428.156H179.364Z" fill="#155777"/>
<path d="M156.682 399.484L160.322 403.371H57.3925L61.2432 399.484H156.682Z" fill="#155777"/>
<path d="M163.999 478.938H253.772L249.27 461.142C248.558 458.33 246.028 456.359 243.127 456.359H163.999V478.938Z" fill="#155777"/>
<path d="M229.964 456.359H243.127C246.028 456.359 248.558 458.33 249.27 461.141L253.772 478.939H240.407C237.625 478.939 235.2 477.049 234.517 474.353L229.964 456.359Z" fill="#8B2A9B"/>
<path d="M140.191 478.938H229.964L225.462 461.142C224.75 458.33 222.22 456.359 219.319 456.359H140.191V478.938Z" fill="#155777"/>
<path d="M206.156 456.359H219.319C222.22 456.359 224.75 458.33 225.462 461.141L229.964 478.939H216.599C213.817 478.939 211.392 477.049 210.709 474.353L206.156 456.359Z" fill="#8B2A9B"/>
<path d="M140.191 478.938H206.156L201.653 461.142C200.942 458.33 198.411 456.359 195.51 456.359H140.191V478.938Z" fill="#155777"/>
<path d="M182.348 456.359H195.511C198.412 456.359 200.942 458.33 201.654 461.141L206.156 478.939H192.791C190.009 478.939 187.584 477.049 186.901 474.353L182.348 456.359Z" fill="#8B2A9B"/>
<path d="M136.088 478.938H182.348L177.845 461.142C177.134 458.33 174.603 456.359 171.702 456.359H136.088V478.938Z" fill="#155777"/>
<path d="M136.089 478.938H182.348L177.844 461.142C177.133 458.33 174.603 456.36 171.702 456.36H136.089V478.938Z" fill="#BD15E5"/>
<path d="M158.54 456.359H171.702C174.603 456.359 177.134 458.33 177.845 461.141L182.348 478.939H168.982C166.202 478.939 163.775 477.049 163.092 474.353L158.54 456.359Z" fill="#8B2A9B"/>
<path d="M249.269 461.141L253.772 478.938H250.367L246.431 461.532C246.065 459.918 244.631 458.771 242.976 458.771H230.574L229.963 456.359H243.126C246.027 456.359 248.558 458.329 249.269 461.141Z" fill="#F4A6BE"/>
<path d="M225.461 461.141L229.964 478.938H226.559L222.623 461.532C222.257 459.918 220.823 458.771 219.168 458.771H206.766L206.155 456.359H219.318C222.219 456.359 224.75 458.329 225.461 461.141Z" fill="#F4A6BE"/>
<path d="M201.653 461.141L206.156 478.938H202.751L198.815 461.532C198.449 459.918 197.015 458.771 195.36 458.771H182.958L182.347 456.359H195.51C198.411 456.359 200.942 458.329 201.653 461.141Z" fill="#F4A6BE"/>
<path d="M177.845 461.141L182.348 478.938H178.943L175.007 461.532C174.641 459.918 173.208 458.771 171.551 458.771H159.15L158.539 456.359H171.702C174.603 456.359 177.134 458.329 177.845 461.141Z" fill="#F4A6BE"/>
<path d="M149.007 329.262L144.782 320.679L150.278 303.828L147.792 324.888L149.007 329.262Z" fill="#F4A6BE"/>
<path d="M194.929 367.653L177.434 395.11L178.408 412.849L174.277 394.382L187.819 367.653C181.679 333.15 153.191 297.283 153.189 297.281C180.918 323.125 194.929 367.653 194.929 367.653Z" fill="#DF36B4"/>
<path d="M116.444 323.288L109.401 315.29L108.998 317.191L116.444 323.288Z" fill="#F4A6BE"/>
<path d="M140.929 315.29L140.355 317.256L144.782 320.68L140.929 315.29Z" fill="#F4A6BE"/>
<path d="M129.82 353.25C129.82 353.25 121.956 356.443 114.711 353.25H129.82Z" fill="#155777"/>
<path d="M59.3016 478.938H149.075L144.573 461.142C143.861 458.33 141.331 456.359 138.43 456.359H59.3016V478.938Z" fill="#155777"/>
<path d="M125.267 456.359H138.43C141.331 456.359 143.862 458.33 144.573 461.141L149.076 478.939H135.71C132.929 478.939 130.502 477.049 129.82 474.353L125.267 456.359Z" fill="#8B2A9B"/>
<path d="M35.4933 478.938H125.267L120.764 461.142C120.053 458.33 117.522 456.359 114.621 456.359H35.4933V478.938Z" fill="#155777"/>
<path d="M101.459 456.359H114.622C117.523 456.359 120.054 458.33 120.765 461.141L125.268 478.939H111.902C109.121 478.939 106.695 477.049 106.012 474.353L101.459 456.359Z" fill="#8B2A9B"/>
<path d="M35.4932 478.938H101.458L96.9558 461.142C96.2445 458.33 93.7138 456.359 90.8127 456.359H35.4932V478.938Z" fill="#155777"/>
<path d="M77.6507 456.359H90.8134C93.7146 456.359 96.2452 458.33 96.9565 461.141L101.459 478.939H88.0936C85.3122 478.939 82.8864 477.049 82.2036 474.353L77.6507 456.359Z" fill="#8B2A9B"/>
<path d="M29.9454 478.938H77.6514L73.1475 461.142C72.4362 458.33 69.9067 456.359 67.0056 456.359H31.0694L29.9454 478.938Z" fill="#155777"/>
<path d="M53.8428 456.359H67.0056C69.9067 456.359 72.4373 458.33 73.1487 461.141L77.6514 478.939H64.2857C61.5054 478.939 59.0785 477.049 58.3957 474.353L53.8428 456.359Z" fill="#8B2A9B"/>
<path d="M144.572 461.141L149.075 478.938H145.67L141.734 461.532C141.368 459.918 139.934 458.771 138.279 458.771H125.878L125.267 456.359H138.429C141.331 456.359 143.861 458.329 144.572 461.141Z" fill="#F4A6BE"/>
<path d="M120.764 461.141L125.267 478.938H121.862L117.926 461.532C117.56 459.918 116.126 458.771 114.471 458.771H102.069L101.458 456.359H114.621C117.522 456.359 120.053 458.329 120.764 461.141Z" fill="#F4A6BE"/>
<path d="M96.9558 461.141L101.458 478.938H98.0535L94.1174 461.532C93.7514 459.918 92.3174 458.771 90.6622 458.771H78.261L77.65 456.359H90.8127C93.7138 456.359 96.2445 458.329 96.9558 461.141Z" fill="#F4A6BE"/>
<path d="M73.1479 461.141L77.6506 478.938H74.2457L70.3095 461.532C69.9436 459.918 68.5107 458.771 66.8544 458.771H54.4531L53.8421 456.359H67.0049C69.906 456.359 72.4366 458.329 73.1479 461.141Z" fill="#F4A6BE"/>
<path d="M137.343 378.83L159.218 408.143L178.957 421.627L178.407 412.848L162.371 405.559L137.343 378.83Z" fill="#F4A6BE"/>
<path d="M13.9086 371.055C34.0694 318.365 52.4997 302.61 73.0059 293.445C63.4282 298.242 37.5222 315.745 19.0064 370.518L35.6151 396.325L34.4946 418.747L32.861 420.381L32.8155 420.317L33.105 397.54L13.9086 371.055Z" fill="#155777"/>
<path d="M138.393 318.844C138.799 319.422 139.039 320.123 139.039 320.882C139.039 322.849 137.446 324.442 135.479 324.442C133.514 324.442 131.92 322.849 131.92 320.882C131.92 320.123 132.163 319.422 132.568 318.844H138.393Z" fill="#DF36B4"/>
<path d="M138.393 318.844C138.799 319.422 139.039 320.123 139.039 320.882C139.039 322.849 137.446 324.442 135.479 324.442C135.363 324.442 135.252 324.418 135.138 324.407C136.943 324.233 138.358 322.731 138.358 320.882C138.358 320.123 138.116 319.422 137.711 318.844H138.393Z" fill="#FFC97F"/>
<path d="M140.006 319.497H130.47L127.203 322.984L126.581 322.601L130.47 318.45H140.006L144.38 321.915L143.786 322.491L140.006 319.497Z" fill="#155777"/>
<path d="M127.598 322.561L129.406 324.889H140.929L143.02 321.967L144.38 321.915L141.366 325.921H129.036L126.58 322.601L127.598 322.561Z" fill="#F4A6BE"/>
<path d="M105.412 318.844C105.817 319.422 106.059 320.123 106.059 320.882C106.059 322.849 104.464 324.442 102.499 324.442C100.534 324.442 98.94 322.849 98.94 320.882C98.94 320.123 99.1805 319.422 99.5863 318.844H105.412Z" fill="#DF36B4"/>
<path d="M100.268 318.844C99.8647 319.422 99.6208 320.123 99.6208 320.882C99.6208 322.731 101.037 324.233 102.841 324.407C102.726 324.418 102.617 324.442 102.499 324.442C100.534 324.442 98.9402 322.849 98.9402 320.882C98.9402 320.123 99.1807 319.422 99.5865 318.844H100.268Z" fill="#FFC97F"/>
<path d="M97.9738 319.496H107.51L110.776 322.983L111.399 322.6L107.51 318.45H97.9738L93.5999 321.914L94.1938 322.491L97.9738 319.496Z" fill="#155777"/>
<path d="M110.382 322.56L108.574 324.888H97.0514L94.9596 321.966L93.5997 321.914L96.6137 325.921H108.944L111.4 322.6L110.382 322.56Z" fill="#F4A6BE"/>
<path d="M119.97 312.937L126.287 337.847L129.041 337.969L119.97 312.937Z" fill="#155777"/>
<path d="M118.295 300.833L113.716 285.204L119.206 277.858H123.522L129.011 285.204L124.433 300.833H118.295Z" fill="#BD15E5"/>
<path d="M66.1064 315.893L78.8724 331.073L79.9348 350.776C65.1055 344.012 63.3341 323.936 66.1064 315.893Z" fill="#155777"/>
<path d="M121.365 300.833L127.316 285.567L123.522 277.858L129.011 285.204L124.432 300.833H121.365Z" fill="#FFC97F"/>
<path d="M36.1051 397.541L-4.47401 417.95L32.9464 478.938L38.6152 414.747L36.1051 397.541Z" fill="#99509C"/>
<path d="M-4.47363 417.95L38.2622 418.747L38.4937 416.114L36.1055 397.54L-4.47363 417.95Z" fill="#FFEE95"/>
<path d="M32.9452 478.938L29.058 417.707L24.5109 403.371L36.1051 397.541L38.4944 416.115L32.9452 478.938Z" fill="#BD15E5"/>
<path d="M148.014 290.54C181.164 314.359 197.93 367.652 197.93 367.652L180.434 395.11L181.408 412.848L129.653 423.54L120.175 363.109C120.175 363.109 129.341 291.847 148.014 290.54Z" fill="#99509C"/>
<path d="M135.48 360.85L195.851 361.728L196.566 363.685L135.45 362.794L135.48 360.85Z" fill="#FFEE95"/>
<path d="M135.539 386.123L183.82 389.8L182.634 391.659L135.391 388.06L135.539 386.123Z" fill="#FFEE95"/>
<path d="M189.954 347.472L190.819 349.402L135.48 350.158L135.451 348.214L189.954 347.472Z" fill="#FFEE95"/>
<path d="M166.685 308.626L143.929 311.356L144.872 309.301L165.21 306.833L166.685 308.626Z" fill="#FFEE95"/>
<path d="M135.361 400.693L135.569 398.761L180.9 403.594L181.008 405.562L135.361 400.693Z" fill="#FFEE95"/>
<path d="M135.42 375.427L135.509 373.485L192.553 376.092L191.349 377.983L135.42 375.427Z" fill="#FFEE95"/>
<path d="M174.91 319.926L176.117 321.783L137.799 324.714L138.726 322.693L174.91 319.926Z" fill="#FFEE95"/>
<path d="M183.985 335.304L135.51 337.523L135.42 335.581L182.966 333.404L183.985 335.304Z" fill="#FFEE95"/>
<path d="M148.014 290.541C150.862 292.586 153.584 294.853 156.19 297.281C157.272 301.252 158.232 306.259 158.186 311.451C158.082 323.162 158.187 326.514 158.187 326.514L161.096 329.262V369.475L140.587 386.123L131.499 378.578L134.325 305.516C138.116 297.009 142.676 290.914 148.014 290.541Z" fill="#BD15E5"/>
<path d="M181.408 412.848L168.287 403.372L140.586 370.082L131.5 378.578L158.186 406.598L181.408 412.848Z" fill="#FFEE95"/>
<path d="M79.761 291.842C57.7308 300.833 38.2916 315.169 16.9088 371.055L36.1052 397.54L35.7997 421.628L100.01 392.922L79.761 291.842Z" fill="#99509C"/>
<path d="M22.3612 378.578L20.9967 376.695L91.2163 373.486L91.3052 375.427L22.3612 378.578Z" fill="#FFEE95"/>
<path d="M34.5725 332.987L88.4968 335.452L88.8889 337.416L33.4839 334.884C33.8464 334.242 34.21 333.609 34.5725 332.987Z" fill="#FFEE95"/>
<path d="M86.3057 324.513L42.26 321.158C42.7206 320.529 43.1788 319.917 43.6382 319.314L85.9078 322.533L86.3057 324.513Z" fill="#FFEE95"/>
<path d="M91.2771 362.794L19.7353 363.884C20.0043 363.224 20.271 362.574 20.5366 361.927L91.2463 360.849L91.2771 362.794Z" fill="#FFEE95"/>
<path d="M83.2889 309.454L83.689 311.451L53.5117 308.233C54.1489 307.631 54.7861 307.047 55.4245 306.483L83.2889 309.454Z" fill="#FFEE95"/>
<path d="M36.0148 404.64L85.6335 399.349L79.8917 401.916L35.9897 406.598L36.0148 404.64Z" fill="#FFEE95"/>
<path d="M31.1448 390.696L91.1882 386.123L91.3364 388.06L32.4843 392.543L31.1448 390.696Z" fill="#FFEE95"/>
<path d="M26.1456 349.167C26.4522 348.516 26.7566 347.872 27.0621 347.237L91.0519 348.212L91.2605 349.251L91.2457 350.159L26.1456 349.167Z" fill="#FFEE95"/>
<path d="M35.8614 420.38L56.7585 399.484L79.7611 369.69L82.9347 350.776L88.8896 381.843L66.7203 412.849L35.8614 420.38Z" fill="#FFEE95"/>
<path d="M51.1923 414.747C42.5003 375.65 55.5058 353.317 55.5058 353.317C51.1798 345.22 51.589 335.413 56.5739 327.704L79.7611 291.843L100.009 392.923L51.1923 414.747Z" fill="#BD15E5"/>
<path d="M138.942 286.047C125.962 283.955 105.594 283.455 79.7606 291.842L84.4571 379.073L59.4311 404.343L35.8608 420.38L32.946 478.938H185.538L181.408 412.848L165.371 405.558L140.343 378.83L140.586 370.082L146.419 361.335L152.007 329.262L150.792 324.888L153.187 304.883C154.274 295.794 147.98 287.504 138.942 286.047Z" fill="#99509C"/>
<path d="M81.8727 331.073L92.5561 373.485C92.5561 373.485 117.261 381.26 140.587 370.083L100.009 366.909L81.8727 331.073Z" fill="#FFEE95"/>
<path d="M140.587 370.083L114.587 392.543L88.2584 398.178L84.4578 379.074L81.5761 325.561L103.572 367.005L140.587 370.083Z" fill="#FFEE95"/>
<path d="M81.8726 331.073L78.2625 314.683C78.2625 314.683 73.8886 307.879 70.0003 313.954C66.1132 320.028 66.7093 343.375 82.9351 350.776L81.8726 331.073Z" fill="#FFEE95"/>
<path d="M86.888 322.6L101.467 330.395C101.467 330.395 101.467 345.94 105.516 348.697L103.088 350.158L106.812 362.279L146.418 361.336L140.587 370.083C140.587 370.083 119.447 375.429 95.1491 370.083L81.8723 331.073L79.7612 291.843L86.888 322.6Z" fill="#F4A6BE"/>
<path d="M150.065 340.401L134.798 366.91L146.418 361.335L150.065 340.401Z" fill="#F4A6BE"/>
<path d="M132.69 308.967L152.423 311.257L150.791 324.888L143.93 315.291H134.026L126.371 323.43H119.568L112.4 315.291H101.344L86.8877 322.6L84.283 311.356L116.167 308.967H132.69Z" fill="#DF36B4"/>
<path d="M138.479 348.492H109.241L122.929 345.98H131.19L138.479 348.492Z" fill="#FFEE95"/>
<path d="M138.479 349.518L132.82 353.251H117.711L109.242 349.518H138.479Z" fill="#F4A6BE"/>
<path d="M131.5 337.847H115.074L122.971 312.937L130.867 335.156L131.5 337.847Z" fill="#F4A6BE"/>
<path d="M130.868 335.156H119.665L122.971 312.937L130.868 335.156Z" fill="#8B2A9B"/>
<path d="M120.051 277.858H124.367L129.856 285.203L127.434 300.832L124.579 303.221H119.84L114.562 285.203L120.051 277.858Z" fill="#FFEE95"/>
<path d="M33.8533 460.715L34.0471 456.828H184.157L184.399 460.715H33.8533Z" fill="#FFEE95"/>
<path d="M183.261 442.492L183.504 446.379H34.5676L34.7614 442.492H183.261Z" fill="#FFEE95"/>
<path d="M181.469 413.819L181.711 417.707H39.7905L45.5049 413.819H181.469Z" fill="#FFEE95"/>
<path d="M182.364 428.156L182.607 432.043H35.2818L35.4745 428.156H182.364Z" fill="#FFEE95"/>
<path d="M159.683 399.484L163.323 403.371H60.3928L64.2435 399.484H159.683Z" fill="#FFEE95"/>
<path d="M166.999 478.938H256.772L252.27 461.142C251.558 458.33 249.028 456.359 246.127 456.359H166.999V478.938Z" fill="#FFEE95"/>
<path d="M232.964 456.359H246.127C249.028 456.359 251.559 458.33 252.27 461.141L256.773 478.939H243.407C240.626 478.939 238.2 477.049 237.517 474.353L232.964 456.359Z" fill="#8B2A9B"/>
<path d="M143.191 478.938H232.965L228.462 461.142C227.751 458.33 225.22 456.359 222.319 456.359H143.191V478.938Z" fill="#FFEE95"/>
<path d="M209.156 456.359H222.319C225.22 456.359 227.751 458.33 228.462 461.141L232.965 478.939H219.599C216.818 478.939 214.392 477.049 213.709 474.353L209.156 456.359Z" fill="#8B2A9B"/>
<path d="M143.191 478.938H209.156L204.654 461.142C203.942 458.33 201.412 456.359 198.51 456.359H143.191V478.938Z" fill="#FFEE95"/>
<path d="M185.348 456.359H198.511C201.412 456.359 203.943 458.33 204.654 461.141L209.157 478.939H195.791C193.01 478.939 190.584 477.049 189.901 474.353L185.348 456.359Z" fill="#8B2A9B"/>
<path d="M139.089 478.938H185.348L180.845 461.142C180.134 458.33 177.603 456.359 174.702 456.359H139.089V478.938Z" fill="#FFEE95"/>
<path d="M139.089 478.938H185.348L180.845 461.142C180.133 458.33 177.604 456.36 174.703 456.36H139.089V478.938Z" fill="#BD15E5"/>
<path d="M161.54 456.359H174.703C177.604 456.359 180.134 458.33 180.846 461.141L185.348 478.939H171.983C169.202 478.939 166.776 477.049 166.093 474.353L161.54 456.359Z" fill="#8B2A9B"/>
<path d="M252.27 461.141L256.772 478.938H253.367L249.431 461.532C249.065 459.918 247.631 458.771 245.976 458.771H233.575L232.964 456.359H246.126C249.028 456.359 251.558 458.329 252.27 461.141Z" fill="#F4A6BE"/>
<path d="M228.461 461.141L232.964 478.938H229.559L225.623 461.532C225.257 459.918 223.823 458.771 222.168 458.771H209.767L209.156 456.359H222.318C225.219 456.359 227.75 458.329 228.461 461.141Z" fill="#F4A6BE"/>
<path d="M204.654 461.141L209.156 478.938H205.751L201.815 461.532C201.449 459.918 200.015 458.771 198.36 458.771H185.959L185.348 456.359H198.51C201.412 456.359 203.942 458.329 204.654 461.141Z" fill="#F4A6BE"/>
<path d="M180.845 461.141L185.348 478.938H181.943L178.007 461.532C177.641 459.918 176.208 458.771 174.552 458.771H162.15L161.539 456.359H174.702C177.603 456.359 180.134 458.329 180.845 461.141Z" fill="#F4A6BE"/>
<path d="M152.007 329.262L147.782 320.679L153.278 303.828L150.792 324.888L152.007 329.262Z" fill="#F4A6BE"/>
<path d="M197.929 367.653L180.434 395.11L181.408 412.849L177.277 394.382L190.819 367.653C184.68 333.15 156.192 297.283 156.189 297.281C183.918 323.125 197.929 367.653 197.929 367.653Z" fill="#DF36B4"/>
<path d="M119.445 323.288L112.401 315.29L111.999 317.191L119.445 323.288Z" fill="#F4A6BE"/>
<path d="M143.929 315.29L143.355 317.256L147.782 320.68L143.929 315.29Z" fill="#F4A6BE"/>
<path d="M132.82 353.25C132.82 353.25 124.957 356.443 117.711 353.25H132.82Z" fill="#FFEE95"/>
<path d="M62.3019 478.938H152.076L147.573 461.142C146.862 458.33 144.331 456.359 141.43 456.359H62.3019V478.938Z" fill="#FFEE95"/>
<path d="M128.268 456.359H141.43C144.332 456.359 146.862 458.33 147.573 461.141L152.076 478.939H138.711C135.929 478.939 133.502 477.049 132.821 474.353L128.268 456.359Z" fill="#8B2A9B"/>
<path d="M38.4935 478.938H128.267L123.765 461.142C123.053 458.33 120.523 456.359 117.622 456.359H38.4935V478.938Z" fill="#FFEE95"/>
<path d="M104.459 456.359H117.622C120.523 456.359 123.054 458.33 123.765 461.141L128.268 478.939H114.902C112.121 478.939 109.695 477.049 109.012 474.353L104.459 456.359Z" fill="#8B2A9B"/>
<path d="M38.4934 478.938H104.459L99.956 461.142C99.2447 458.33 96.7141 456.359 93.813 456.359H38.4934V478.938Z" fill="#FFEE95"/>
<path d="M80.651 456.359H93.8137C96.7148 456.359 99.2454 458.33 99.9568 461.141L104.459 478.939H91.0938C88.3124 478.939 85.8866 477.049 85.2038 474.353L80.651 456.359Z" fill="#8B2A9B"/>
<path d="M32.9457 478.938H80.6516L76.1478 461.142C75.4364 458.33 72.9069 456.359 70.0058 456.359H34.0696L32.9457 478.938Z" fill="#FFEE95"/>
<path d="M56.8431 456.359H70.0058C72.9069 456.359 75.4376 458.33 76.1489 461.141L80.6516 478.939H67.286C64.5057 478.939 62.0788 477.049 61.396 474.353L56.8431 456.359Z" fill="#8B2A9B"/>
<path d="M147.573 461.141L152.075 478.938H148.67L144.734 461.532C144.368 459.918 142.934 458.771 141.279 458.771H128.878L128.267 456.359H141.43C144.331 456.359 146.861 458.329 147.573 461.141Z" fill="#F4A6BE"/>
<path d="M123.764 461.141L128.267 478.938H124.862L120.926 461.532C120.56 459.918 119.126 458.771 117.471 458.771H105.07L104.459 456.359H117.621C120.522 456.359 123.053 458.329 123.764 461.141Z" fill="#F4A6BE"/>
<path d="M99.956 461.141L104.459 478.938H101.054L97.1176 461.532C96.7517 459.918 95.3177 458.771 93.6625 458.771H81.2612L80.6502 456.359H93.813C96.7141 456.359 99.2447 458.329 99.956 461.141Z" fill="#F4A6BE"/>
<path d="M76.1482 461.141L80.6509 478.938H77.2459L73.3097 461.532C72.9438 459.918 71.5109 458.771 69.8546 458.771H57.4534L56.8424 456.359H70.0051C72.9062 456.359 75.4369 458.329 76.1482 461.141Z" fill="#F4A6BE"/>
<path d="M140.344 378.83L162.218 408.143L181.957 421.627L181.407 412.848L165.371 405.559L140.344 378.83Z" fill="#F4A6BE"/>
<path d="M16.9089 371.055C37.0696 318.365 55.5 302.61 76.0061 293.445C66.4284 298.242 40.5225 315.745 22.0066 370.518L38.6154 396.325L37.4948 418.747L35.8613 420.381L35.8157 420.317L36.1052 397.54L16.9089 371.055Z" fill="#FFEE95"/>
<path d="M141.393 318.844C141.799 319.422 142.04 320.123 142.04 320.882C142.04 322.849 140.446 324.442 138.48 324.442C136.514 324.442 134.921 322.849 134.921 320.882C134.921 320.123 135.164 319.422 135.568 318.844H141.393Z" fill="#FFD6AF"/>
<path d="M141.393 318.844C141.799 319.422 142.04 320.123 142.04 320.882C142.04 322.849 140.446 324.442 138.48 324.442C138.363 324.442 138.253 324.418 138.139 324.407C139.943 324.233 141.358 322.731 141.358 320.882C141.358 320.123 141.116 319.422 140.711 318.844H141.393Z" fill="#FFC97F"/>
<path d="M143.006 319.497H133.47L130.203 322.984L129.582 322.601L133.47 318.45H143.006L147.38 321.915L146.786 322.491L143.006 319.497Z" fill="#FFEE95"/>
<path d="M130.599 322.561L132.407 324.889H143.929L146.021 321.967L147.381 321.915L144.367 325.921H132.036L129.581 322.601L130.599 322.561Z" fill="#F4A6BE"/>
<path d="M108.413 318.844C108.817 319.422 109.059 320.123 109.059 320.882C109.059 322.849 107.464 324.442 105.499 324.442C103.534 324.442 101.94 322.849 101.94 320.882C101.94 320.123 102.181 319.422 102.587 318.844H108.413Z" fill="#FFD6AF"/>
<path d="M103.268 318.844C102.865 319.422 102.621 320.123 102.621 320.882C102.621 322.731 104.037 324.233 105.841 324.407C105.726 324.418 105.617 324.442 105.499 324.442C103.534 324.442 101.94 322.849 101.94 320.882C101.94 320.123 102.181 319.422 102.587 318.844H103.268Z" fill="#FFC97F"/>
<path d="M100.974 319.496H110.511L113.777 322.983L114.399 322.6L110.511 318.45H100.974L96.6001 321.914L97.194 322.491L100.974 319.496Z" fill="#FFEE95"/>
<path d="M113.382 322.56L111.574 324.888H100.052L97.9599 321.966L96.5999 321.914L99.6139 325.921H111.944L114.4 322.6L113.382 322.56Z" fill="#F4A6BE"/>
<path d="M122.97 312.937L129.287 337.847L132.042 337.969L122.97 312.937Z" fill="#FFEE95"/>
<path d="M121.296 300.833L116.717 285.204L122.206 277.858H126.522L132.011 285.204L127.433 300.833H121.296Z" fill="#BD15E5"/>
<path d="M69.1066 315.893L81.8726 331.073L82.9351 350.776C68.1057 344.012 66.3343 323.936 69.1066 315.893Z" fill="#FFEE95"/>
<path d="M124.365 300.833L130.316 285.567L126.523 277.858L132.011 285.204L127.432 300.833H124.365Z" fill="#FFC97F"/>
<path d="M304.549 469.593C304.549 469.593 303.072 470.724 302.279 471.655C301.486 472.585 300.562 473.14 299.887 473.353C299.887 473.353 300.234 473.638 301.758 473.411C303.281 473.184 303.386 471.08 304.047 470.811C304.709 470.543 304.549 469.593 304.549 469.593Z" fill="#8B2A9B"/>
<path d="M303.56 470.405C304.097 469.939 304.549 469.593 304.549 469.593C304.549 469.593 304.709 470.543 304.047 470.811C303.386 471.08 303.281 473.184 301.758 473.411C301.669 473.424 301.587 473.435 301.507 473.445C302.942 472.998 302.639 471.089 303.56 470.405Z" fill="#561042"/>
<path d="M305.439 474.085L305.243 476.277L304.666 477.244L305.636 480.974L305.777 481.496L306.489 481.56L306.095 480.901L305.568 478.136L305.562 477.362L306.413 476.544C306.61 476.355 306.774 476.134 306.898 475.891C307.161 475.38 307.578 474.437 307.709 473.401C307.904 471.852 306.255 472.347 306.255 472.347L305.439 474.085Z" fill="#561042"/>
<path d="M312.409 474.277L312.482 478.117L312.758 482.12L313.258 482.165L313.182 481.836L313.26 477.889L313.645 473.969L312.409 474.277Z" fill="#561042"/>
<path d="M313.645 473.969L313.394 476.521C313.158 476.689 312.817 477.07 312.478 477.939L312.409 474.277L313.645 473.969Z" fill="#561042"/>
<path d="M305.439 474.086L306.255 472.347C306.255 472.347 307.904 471.852 307.709 473.401C307.578 474.438 307.161 475.381 306.898 475.891C306.898 475.891 305.828 476.066 304.666 477.244L305.243 476.277L305.439 474.086Z" fill="#561042"/>
<path d="M320.033 466.711L319.452 466.659C319.283 466.644 319.127 466.567 319.013 466.442L318.921 466.341C318.805 466.215 318.641 466.145 318.47 466.151L317.56 466.179L316.548 465.947C316.555 466.223 316.774 466.446 317.05 466.459L317.365 466.473L316.934 467.015C316.934 467.015 316.088 469.194 315.472 470.539C314.857 471.883 313.899 471.278 313.739 470.934C313.191 469.767 312.866 466.439 311.987 466.289C311.108 466.14 310.219 468.963 309.213 468.817C308.207 468.67 307.974 466.682 307.247 466.744C306.518 466.806 305.131 468.706 304.346 469.896C303.559 471.086 303.249 472.814 303.234 473.93C303.22 475.048 303.216 475.727 303.216 475.727L302.496 476.542L302.894 481.546L302.948 482.046L303.749 482.117C303.749 482.117 303.58 481.635 303.395 481.335L303.356 478.273L303.488 476.799L304.443 476.17C305.002 475.802 305.426 475.262 305.651 474.633L306.253 472.955L306.741 473.182C306.741 473.182 308.565 474.648 310.696 474.711L310.449 477.799L310.625 481.741L310.631 482.732L311.286 482.79L311.062 481.93L311.188 477.978L312.189 474.594C312.189 474.594 313.145 474.245 314.329 473.88C315.513 473.513 316.693 472.769 317.176 471.17C317.658 469.571 317.881 469.082 318.13 468.311C318.635 468.045 318.988 467.689 318.988 467.689L320.093 467.675L320.29 467.555C320.376 467.503 320.42 467.403 320.403 467.305L320.347 466.998C320.319 466.843 320.191 466.726 320.033 466.711Z" fill="#8B2A9B"/>
<path d="M306.192 471.25C306.192 471.25 306.522 471.676 306.806 472.777C306.806 472.777 308.127 473.675 308.805 473.849C309.484 474.022 310.457 474.066 310.812 473.73L310.697 474.711C308.565 474.648 306.741 473.182 306.741 473.182L306.252 472.955C306.252 472.955 306.472 472.082 306.192 471.25Z" fill="#561042"/>
<path d="M317.717 469.497L317.718 469.496C318.005 468.639 317.654 468.056 318.027 467.98C318.402 467.906 318.503 467.52 318.722 467.512C318.939 467.505 319.509 467.681 319.509 467.681L318.988 467.689C318.988 467.689 318.635 468.044 318.13 468.311C317.999 468.715 317.876 469.045 317.717 469.497Z" fill="#561042"/>
<path d="M318.652 466.178C318.754 466.207 318.849 466.261 318.921 466.342L319.013 466.442C319.112 466.551 319.246 466.614 319.388 466.641C319.391 466.645 319.397 466.652 319.397 466.652C319.047 466.611 318.656 466.658 318.384 466.81C318.112 466.963 317.979 466.624 318.121 466.407C318.21 466.269 318.458 466.206 318.652 466.178Z" fill="#561042"/>
<path d="M312.241 474.327C312.241 474.327 312.444 473.694 312.525 472.976C312.607 472.258 312.917 472.448 312.903 473.01C312.889 473.57 312.554 474.083 312.241 474.327Z" fill="#561042"/>
<path d="M310.264 469.475C309.482 470.593 308.715 468.83 308.166 467.775C308.432 468.26 308.734 468.747 309.213 468.816C310.219 468.963 311.109 466.14 311.987 466.29C311.094 466.27 311.137 468.23 310.264 469.475Z" fill="#561042"/>
<path d="M216.796 432.581L210.615 431.65L213.04 415.555L219.221 416.486L216.796 432.581Z" fill="#10003D"/>
<path d="M225.899 403.073C225.899 403.073 217.002 418.706 213.844 434.968C216.483 431.535 226.009 407.038 225.899 403.073Z" fill="#561042"/>
<path d="M224.461 420.04C225.775 418.472 226.919 417.155 227.795 416.165C228.894 414.923 230.627 414.463 232.198 414.993L236.17 416.334C236.17 416.334 227.669 417.333 214.592 433.504C214.592 433.504 215.273 431.741 216.983 429.298C218.835 426.649 221.822 423.192 224.461 420.04Z" fill="#3F024E"/>
<path d="M225.261 434.352C222.304 432.645 217.205 432.955 213.36 436.58C213.36 436.58 223.005 431.87 224.638 435.504C225.006 436.323 225.355 437.016 225.686 437.606L226.213 436.685L225.745 437.708C225.93 438.032 226.108 438.322 226.28 438.583L226.841 437.604L226.428 438.804C226.629 439.094 226.821 439.347 227.004 439.562L227.473 438.591L227.172 439.753C228.545 441.256 229.335 440.721 229.335 440.721C229.335 440.721 229.653 436.886 225.261 434.352Z" fill="#3F024E"/>
<path d="M218.086 431.067C218.086 431.067 226.09 424.982 233.638 427.401C233.638 427.401 235.537 429.662 235.775 431.996C235.775 431.996 228.18 425.489 218.83 431.343L218.086 431.067Z" fill="#561042"/>
<path d="M211.248 400.866C211.248 400.866 215.145 418.427 213.37 434.897C211.86 430.839 209.975 404.622 211.248 400.866Z" fill="#3F024E"/>
<path d="M207.624 417.503C206.831 415.617 206.126 414.022 205.58 412.818C204.896 411.307 203.375 410.357 201.718 410.4L197.527 410.511C197.527 410.511 205.356 413.971 213.088 433.278C213.088 433.278 212.956 431.392 212.042 428.553C211.053 425.476 209.217 421.292 207.624 417.503Z" fill="#561042"/>
<path d="M202.643 430.944C205.971 430.185 210.752 431.983 213.359 436.58C213.359 436.58 205.53 429.236 202.899 432.229C202.306 432.903 201.767 433.462 201.277 433.928L201.045 432.893L201.191 434.008C200.919 434.263 200.663 434.488 200.421 434.687L200.175 433.587L200.215 434.854C199.938 435.073 199.68 435.257 199.443 435.409L199.28 434.343L199.225 435.541C197.47 436.574 196.873 435.83 196.873 435.83C196.873 435.83 197.699 432.072 202.643 430.944Z" fill="#561042"/>
<path d="M210.466 429.919C210.466 429.919 204.611 421.746 196.685 421.833C196.685 421.833 194.204 423.434 193.29 425.594C193.29 425.594 202.464 421.614 209.674 429.964L210.466 429.919Z" fill="#3F024E"/>
<path d="M225.418 410.933C219.269 418.673 213.4 436.313 213.4 436.313C213.4 436.313 217.903 427.587 223.309 420.851L222.159 418.981L223.65 420.431C223.752 420.306 223.853 420.182 223.955 420.059C224.346 419.591 224.734 419.132 225.12 418.683L223.269 416.688L225.562 418.171C225.737 417.969 225.912 417.769 226.086 417.571L224.441 416.599L226.244 417.391C226.661 416.917 227.073 416.455 227.479 416.007L224.176 414.671L227.801 415.653C228.275 415.134 228.739 414.631 229.191 414.151L226.07 413.422L229.339 413.994C229.654 413.659 229.963 413.333 230.265 413.019L225.982 412.018L230.852 412.413C231.719 411.521 232.515 410.726 233.22 410.037L227.921 409.626L234.303 408.99C234.579 408.727 234.831 408.489 235.059 408.276L231.876 408.447L235.279 408.071C236.027 407.376 236.455 407 236.455 407L234.076 406.815C233.842 406.797 233.609 406.789 233.379 406.789C230.24 406.789 227.402 408.436 225.418 410.933Z" fill="#10003D"/>
<path d="M240.809 423.62L238.054 424.826L240.054 422.944C239.715 422.66 239.354 422.379 238.967 422.114L237.592 423.629L238.812 422.013C238.565 421.849 238.308 421.69 238.042 421.539L236.364 424.449L237.422 421.21C237.272 421.136 237.117 421.067 236.961 420.999L235.868 423.739L236.711 420.894C236.37 420.756 236.019 420.63 235.655 420.526L234.654 422.591L235.114 420.388C234.798 420.316 234.475 420.258 234.143 420.215L233.537 421.906L233.978 420.197C233.817 420.179 233.655 420.163 233.489 420.153L232.622 424.209L232.634 420.139C232.3 420.146 231.96 420.17 231.611 420.212L231.25 423.59L231.3 420.254C230.833 420.325 230.356 420.424 229.866 420.564C229.65 420.625 229.437 420.692 229.226 420.761L229.257 422.409L229.079 420.81C228.968 420.848 228.857 420.886 228.747 420.925L229.159 425.33L227.894 421.253C227.529 421.404 227.172 421.567 226.82 421.739L227.359 423.458L226.321 421.992C226.021 422.149 225.727 422.313 225.438 422.483L227.4 425.46L225.169 422.642C217.378 427.375 213.359 436.579 213.359 436.579C222.947 426.569 226.027 426.766 231.874 425.814C237.72 424.863 243.455 426.893 243.455 426.893C243.455 426.893 242.536 425.274 240.809 423.62Z" fill="#121A68"/>
<path d="M231.915 437.13L233.07 437.619C233.052 437.228 233.013 436.822 232.947 436.407L230.118 435.524L232.859 435.937C232.666 435.023 232.324 434.087 231.762 433.215L229.987 433.245L231.553 432.9C231.389 432.672 231.203 432.452 231.004 432.237L227.992 433.387L230.427 431.673C229.774 431.104 228.973 430.601 227.984 430.202L226.653 432.458L227.702 430.1C227.327 429.961 226.931 429.833 226.504 429.725L226.112 431.188L226.278 429.672C225.732 429.544 225.202 429.465 224.688 429.425L224.718 431.449L224.356 429.405C217.284 429.104 213.359 436.579 213.359 436.579C227.794 426.505 232.704 441.228 232.704 441.228C232.704 441.228 233.111 439.815 233.08 437.96L231.915 437.13Z" fill="#10003D"/>
<path d="M210.136 417.169L208.283 418.115C208.223 417.966 208.163 417.817 208.102 417.67C207.867 417.108 207.63 416.555 207.394 416.012L209.75 414.651L207.123 415.392C207.015 415.148 206.907 414.905 206.799 414.665L208.657 414.22L206.701 414.446C206.442 413.87 206.184 413.307 205.929 412.76L209.478 412.457L205.725 412.326C205.425 411.691 205.129 411.074 204.84 410.482L208.037 410.704L204.745 410.288C204.542 409.875 204.342 409.472 204.146 409.083L208.534 409.389L203.764 408.331C203.199 407.224 202.672 406.23 202.201 405.363L207.386 406.531L201.475 404.043C201.289 403.711 201.118 403.409 200.963 403.138L203.954 404.24L200.813 402.878C200.304 401.993 200.005 401.508 200.005 401.508L202.333 402.032C205.673 402.785 208.148 405.329 209.393 408.518C212.988 417.726 213.399 436.313 213.399 436.313C213.399 436.313 211.667 426.647 208.486 418.618L210.136 417.169Z" fill="#121A68"/>
<path d="M195.666 414.71L195.633 417.678L195.396 414.737C195.227 414.756 195.059 414.776 194.894 414.802L194.95 418.209L194.204 414.934C193.905 415 193.614 415.076 193.328 415.16L194.018 417.064L193.151 415.211C192.702 415.351 192.275 415.512 191.867 415.684L193.223 418.072L190.946 416.107C188.809 417.179 187.454 418.455 187.454 418.455C187.454 418.455 193.532 418.205 198.839 420.837C204.145 423.469 207.146 424.188 213.36 436.579C213.36 436.579 212.231 426.6 206.18 419.781L203.218 421.817L205.971 419.551C205.745 419.302 205.512 419.059 205.271 418.821L203.848 419.916L204.868 418.432C204.583 418.164 204.29 417.903 203.986 417.651L201.576 421.174L203.268 417.086C203.174 417.016 203.079 416.947 202.984 416.878L202.343 418.355L202.858 416.789C202.676 416.66 202.493 416.534 202.305 416.411C201.877 416.134 201.451 415.898 201.025 415.693L200.09 418.895L200.74 415.561C200.42 415.418 200.101 415.295 199.784 415.189L198.596 419.083L198.963 414.951C198.802 414.912 198.642 414.88 198.483 414.849L198.402 416.612L198.32 414.818C197.99 414.761 197.665 414.721 197.342 414.697L197.131 416.938L196.784 414.669C196.725 414.668 196.666 414.667 196.608 414.667C196.289 414.667 195.976 414.683 195.666 414.71Z" fill="#10003D"/>
<path d="M195.465 431.638L194.217 431.765C194.349 431.396 194.506 431.02 194.692 430.643L197.656 430.633L194.914 430.22C195.368 429.403 195.97 428.61 196.764 427.942L198.452 428.494L197.057 427.702C197.281 427.533 197.524 427.378 197.777 427.23L200.317 429.217L198.495 426.861C199.287 426.511 200.2 426.266 201.263 426.176L201.871 428.724L201.562 426.161C201.961 426.139 202.378 426.134 202.818 426.156L202.76 427.669L203.049 426.172C203.608 426.211 204.138 426.291 204.641 426.405L204.016 428.33L204.965 426.484C211.811 428.28 213.36 436.579 213.36 436.579C202.534 422.699 193.504 435.322 193.504 435.322C193.504 435.322 193.531 433.851 194.107 432.088L195.465 431.638Z" fill="#121A68"/>
<path d="M216.969 400.067L217.327 406.249L216.371 401.124C215.937 401.925 215.488 402.837 215.043 403.863L216.845 409.447L214.607 404.912C214.499 405.182 214.392 405.459 214.286 405.743L216.342 412.787L213.916 406.772C213.625 407.62 213.345 408.523 213.084 409.483L215.775 416.549L212.688 411.046C212.398 412.279 212.141 413.592 211.93 414.992L215.46 418.639L211.867 415.433C211.735 416.358 211.633 417.267 211.557 418.157L215.149 420.707L211.51 418.767C211.438 419.747 211.395 420.704 211.379 421.632L214.902 422.344L211.38 423.269C211.391 423.974 211.414 424.661 211.45 425.324L214.511 424.937L211.475 425.735C211.509 426.292 211.551 426.834 211.599 427.358L214.296 426.368L211.632 427.683C211.71 428.479 211.803 429.232 211.904 429.939L214.036 428.097L211.933 430.139C212.521 434.13 213.359 436.579 213.359 436.579C213.359 436.579 214.882 434.486 216.621 430.846L214.997 429.708L216.707 430.662C217.012 430.016 217.322 429.324 217.632 428.587L215.398 427.043L217.758 428.286C217.96 427.8 218.159 427.294 218.356 426.772L215.614 425.616L218.501 426.386C218.731 425.763 218.955 425.114 219.173 424.443L215.87 423.916L219.656 422.879C219.914 421.988 220.156 421.061 220.376 420.103L216.23 421.525L220.509 419.506C220.7 418.633 220.87 417.734 221.017 416.811L216.768 417.952L221.086 416.372C221.297 414.972 221.438 413.641 221.524 412.378L217.198 415.099L221.606 410.767C221.64 409.773 221.639 408.828 221.61 407.931L217.52 412.964L221.56 406.839C221.542 406.536 221.521 406.24 221.498 405.95L218.145 408.818L221.391 404.82C221.268 403.708 221.107 402.704 220.929 401.811L218.752 404.784L220.669 400.624C220.053 398.056 219.369 396.696 219.369 396.696C219.369 396.696 218.315 397.794 216.969 400.067Z" fill="#100744"/>
<path d="M213.104 435.874C213.021 435.562 212.735 435.449 212.735 435.449C212.69 435.752 212.934 436.042 212.934 436.042C212.751 435.951 212.656 435.953 212.656 435.953C210.217 450.881 201.34 469.513 201.34 469.513L203.432 474.497C211.379 460.79 214.765 435.953 214.765 435.953C214.567 435.963 214.231 436 214.231 436C214.511 435.678 214.579 435.346 214.579 435.346C214.189 435.455 213.873 435.849 213.873 435.849C213.987 435.153 213.587 434.702 213.587 434.702C213.192 435.008 213.104 435.874 213.104 435.874Z" fill="#19102B"/>
<path d="M107.949 231.083L68.1479 225.086L83.7648 121.442L123.566 127.44L107.949 231.083Z" fill="#10003D"/>
<path d="M166.569 41.0618C166.569 41.0618 109.274 141.732 88.939 246.455C105.936 224.346 167.277 66.5963 166.569 41.0618Z" fill="#561042"/>
<path d="M157.31 150.325C165.77 140.225 173.138 131.745 178.777 125.371C185.854 117.373 197.014 114.407 207.132 117.822L232.709 126.455C232.709 126.455 177.969 132.892 93.7563 237.027C93.7563 237.027 98.1455 225.672 109.155 209.937C121.083 192.882 140.313 170.618 157.31 150.325Z" fill="#3F024E"/>
<path d="M162.459 242.484C143.419 231.497 110.585 233.492 85.8206 256.831C85.8206 256.831 147.932 226.5 158.446 249.907C160.815 255.179 163.067 259.644 165.2 263.438L168.59 257.508L165.579 264.098C166.768 266.181 167.917 268.053 169.024 269.735L172.635 263.431L169.978 271.153C171.27 273.025 172.507 274.651 173.682 276.034L176.706 269.785L174.768 277.263C183.61 286.945 188.696 283.499 188.696 283.499C188.696 283.499 190.742 258.806 162.459 242.484Z" fill="#3F024E"/>
<path d="M116.259 221.334C116.259 221.334 167.8 182.147 216.405 197.727C216.405 197.727 228.634 212.282 230.165 227.314C230.165 227.314 181.256 185.41 121.05 223.11L116.259 221.334Z" fill="#561042"/>
<path d="M72.2261 26.8474C72.2261 26.8474 97.3164 139.932 85.888 245.998C76.1636 219.863 64.0275 51.0394 72.2261 26.8474Z" fill="#3F024E"/>
<path d="M48.8862 133.989C43.7768 121.843 39.2371 111.569 35.7237 103.817C31.3195 94.0898 21.5273 87.9666 10.8517 88.2476L-16.1333 88.9628C-16.1333 88.9628 34.2782 111.242 84.0699 235.57C84.0699 235.57 83.2217 223.424 77.3393 205.144C70.9651 185.329 59.1477 158.389 48.8862 133.989Z" fill="#561042"/>
<path d="M16.8103 220.538C38.2417 215.65 69.0312 227.231 85.82 256.831C85.82 256.831 35.4034 209.544 18.4565 228.815C14.642 233.154 11.1714 236.757 8.01688 239.756L6.52119 233.088L7.45976 240.273C5.71062 241.914 4.05934 243.365 2.50343 244.645L0.914892 237.558L1.17588 245.719C-0.608395 247.127 -2.27221 248.316 -3.79801 249.292L-4.847 242.429L-5.20084 250.146C-16.5013 256.793 -20.3484 252.003 -20.3484 252.003C-20.3484 252.003 -15.0257 227.803 16.8103 220.538Z" fill="#561042"/>
<path d="M67.1886 213.939C67.1886 213.939 29.4828 161.307 -21.5561 161.872C-21.5561 161.872 -37.5318 172.178 -43.4216 186.091C-43.4216 186.091 15.6603 160.456 62.0867 214.228L67.1886 213.939Z" fill="#3F024E"/>
<path d="M163.473 91.6798C123.878 141.519 86.0791 255.116 86.0791 255.116C86.0791 255.116 115.082 198.925 149.889 155.55L142.483 143.507L152.09 152.84C152.745 152.039 153.395 151.236 154.05 150.448C156.567 147.432 159.066 144.48 161.551 141.589L149.636 128.741L164.399 138.292C165.528 136.987 166.653 135.7 167.772 134.425L157.182 128.163L168.788 133.265C171.476 130.214 174.129 127.24 176.744 124.356L155.475 115.754L178.819 122.075C181.868 118.733 184.859 115.495 187.765 112.404L167.669 107.706L188.719 111.392C190.749 109.236 192.742 107.136 194.687 105.113L167.102 98.6664L198.464 101.208C204.047 95.4692 209.174 90.3498 213.712 85.9104L179.592 83.2603L220.688 79.1698C222.462 77.4758 224.086 75.9425 225.557 74.5673L205.056 75.674L226.969 73.2498C231.788 68.7753 234.543 66.3536 234.543 66.3536L219.225 65.1641C217.719 65.0486 216.221 64.9909 214.735 64.9909C194.526 64.9909 176.247 75.6012 163.473 91.6798Z" fill="#10003D"/>
<path d="M262.585 173.381L244.845 181.148L257.724 169.029C255.538 167.195 253.217 165.391 250.72 163.682L241.869 173.439L249.724 163.032C248.13 161.973 246.481 160.949 244.767 159.98L233.961 178.716L240.775 157.86C239.806 157.385 238.807 156.941 237.806 156.504L230.767 174.149L236.195 155.827C233.999 154.933 231.74 154.128 229.391 153.453L222.949 166.753L225.908 152.567C223.878 152.1 221.792 151.731 219.659 151.455L215.752 162.339L218.598 151.337C217.556 151.222 216.512 151.119 215.446 151.054L209.862 177.175L209.942 150.963C207.792 151.011 205.598 151.162 203.355 151.433L201.029 173.185L201.35 151.704C198.343 152.16 195.272 152.798 192.115 153.701C190.724 154.095 189.354 154.527 187.992 154.971L188.192 165.584L187.05 155.287C186.333 155.528 185.615 155.772 184.907 156.025L187.56 184.39L179.416 158.138C177.068 159.112 174.766 160.161 172.503 161.268L175.968 172.337L169.285 162.899C167.358 163.91 165.461 164.964 163.599 166.058L176.237 185.231L161.87 167.082C111.697 197.563 85.8184 256.831 85.8184 256.831C147.563 192.371 167.396 193.638 205.044 187.51C242.692 181.381 279.622 194.456 279.622 194.456C279.622 194.456 273.707 184.029 262.585 173.381Z" fill="#121A68"/>
<path d="M205.31 260.376L212.751 263.523C212.635 261.009 212.384 258.391 211.955 255.721L193.739 250.037L211.391 252.697C210.148 246.807 207.948 240.784 204.326 235.163L192.898 235.361L202.979 233.138C201.922 231.672 200.725 230.254 199.448 228.867L180.047 236.272L195.729 225.235C191.525 221.574 186.366 218.332 179.996 215.767L171.424 230.29L178.182 215.107C175.768 214.211 173.218 213.39 170.465 212.693L167.946 222.113L169.012 212.349C165.496 211.528 162.083 211.016 158.773 210.763L158.964 223.795L156.633 210.632C111.095 208.695 85.821 256.828 85.821 256.828C178.777 191.959 210.389 286.767 210.389 286.767C210.389 286.767 213.012 277.665 212.816 265.722L205.31 260.376Z" fill="#10003D"/>
<path d="M65.0621 131.837L53.1318 137.925C52.7428 136.969 52.3589 136.011 51.9624 135.065C50.4491 131.441 48.9283 127.882 47.4076 124.387L62.5777 115.621L45.6584 120.396C44.9633 118.82 44.2681 117.257 43.5755 115.711L55.5385 112.845L42.9456 114.301C41.2743 110.594 39.6129 106.968 37.9692 103.444L60.826 101.492L36.6567 100.651C34.7294 96.5583 32.8222 92.5857 30.9576 88.7738L51.5458 90.2067L30.3452 87.5265C29.0403 84.8689 27.7504 82.274 26.4906 79.767L54.7479 81.737L24.0313 74.9236C20.3899 67.794 16.9995 61.3922 13.968 55.811L47.3523 63.3346L9.28774 47.3137C8.09069 45.1731 6.98901 43.2282 5.99021 41.4841L25.2559 48.5786L5.02906 39.8077C1.74659 34.1111 -0.178223 30.9842 -0.178223 30.9842L14.8162 34.362C36.3204 39.2079 52.2585 55.5927 60.2765 76.1282C83.4269 135.421 86.077 255.116 86.077 255.116C86.077 255.116 74.9196 192.872 54.4393 141.168L65.0621 131.837Z" fill="#121A68"/>
<path d="M-28.1166 116.001L-28.3324 135.111L-29.8582 116.174C-30.9448 116.294 -32.0264 116.427 -33.0905 116.595L-32.7266 138.534L-37.5349 117.444C-39.4572 117.865 -41.3343 118.357 -43.1713 118.899L-38.7294 131.158L-44.3131 119.228C-47.2015 120.126 -49.952 121.165 -52.582 122.272L-43.8464 137.65L-58.5095 125C-72.2743 131.898 -81 140.12 -81 140.12C-81 140.12 -41.8587 138.509 -7.68642 155.458C26.4834 172.405 45.8118 177.037 85.8213 256.828C85.8213 256.828 78.5562 192.569 39.5907 148.657L20.5157 161.767L38.2431 147.171C36.785 145.573 35.2843 144.007 33.7359 142.474L24.5686 149.525L31.1411 139.967C29.3066 138.245 27.4169 136.564 25.4594 134.94L9.94051 157.626L20.8369 131.304C20.2296 130.852 19.6198 130.408 19.005 129.964L14.8768 139.47L18.1969 129.386C17.0249 128.561 15.8429 127.748 14.6333 126.957C11.8804 125.168 9.13246 123.652 6.39455 122.33L0.374138 142.95L4.55759 121.479C2.49726 120.558 0.441948 119.77 -1.5983 119.087L-9.24738 144.163L-6.88343 117.554C-7.91987 117.303 -8.95129 117.092 -9.97768 116.896L-10.4996 128.247L-11.0291 116.698C-13.1497 116.329 -15.2477 116.068 -17.3256 115.915L-18.6807 130.345L-20.9192 115.735C-21.2982 115.729 -21.6771 115.724 -22.0535 115.724C-24.1038 115.724 -26.124 115.825 -28.1166 116.001Z" fill="#10003D"/>
<path d="M-29.4118 225.01L-37.4498 225.825C-36.5965 223.454 -35.5852 221.03 -34.3882 218.603L-15.3057 218.54L-32.9602 215.88C-30.0341 210.618 -26.1594 205.508 -21.045 201.207L-10.1787 204.763L-19.1578 199.666C-17.7148 198.577 -16.1514 197.576 -14.5227 196.627L1.83446 209.418L-9.90012 194.25C-4.80326 191.992 1.0816 190.413 7.92259 189.839L11.8375 206.243L9.84991 189.743C12.4222 189.6 15.1024 189.568 17.9356 189.711L17.5667 199.453L19.4263 189.811C23.0275 190.062 26.4404 190.579 29.6777 191.312L25.655 203.709L31.7632 191.819C75.8481 203.383 85.821 256.828 85.821 256.828C16.1062 167.449 -42.0422 248.73 -42.0422 248.73C-42.0422 248.73 -41.8666 239.261 -38.16 227.908L-29.4118 225.01Z" fill="#121A68"/>
<path d="M109.065 21.7048L111.374 61.5135L105.213 28.5132C102.422 33.6703 99.5288 39.545 96.6604 46.1501L108.27 82.1068L93.8572 52.9033C93.1621 54.6449 92.472 56.4292 91.7869 58.2561L105.03 103.616L89.4054 64.8863C87.5307 70.3446 85.7314 76.1617 84.0475 82.3426L101.378 127.843L81.5003 92.4084C79.6333 100.346 77.9769 108.803 76.6142 117.817L99.3506 141.299L76.2077 120.653C75.362 126.613 74.707 132.466 74.2177 138.2L97.3455 154.62L73.9089 142.127C73.4472 148.439 73.1712 154.602 73.0708 160.575L95.757 165.157L73.0733 171.117C73.1436 175.657 73.2916 180.079 73.525 184.35L93.2399 181.856L73.6856 186.995C73.904 190.584 74.175 194.075 74.4862 197.447L91.8496 191.076L74.6945 199.543C75.2014 204.665 75.7962 209.513 76.4487 214.066L90.1758 202.208L76.6343 215.358C80.4212 241.056 85.8217 256.828 85.8217 256.828C85.8217 256.828 95.629 243.347 106.822 219.908L96.3668 212.58L107.379 218.726C109.341 214.568 111.341 210.111 113.336 205.365L98.9516 195.417L114.149 203.423C115.444 200.293 116.729 197.036 117.999 193.676L100.337 186.232L118.93 191.191C120.411 187.176 121.856 182.998 123.259 178.679L101.986 175.286L126.366 168.605C128.03 162.869 129.585 156.898 131.003 150.73L104.307 159.885L131.864 146.885C133.089 141.262 134.185 135.475 135.134 129.532L107.773 136.875L135.578 126.701C136.933 117.689 137.844 109.114 138.396 100.983L110.541 118.508L138.928 90.6116C139.142 84.2098 139.139 78.1216 138.954 72.3497L112.611 104.758L138.63 65.3155C138.514 63.3656 138.381 61.4583 138.231 59.5912L116.636 78.0564L137.541 52.3111C136.748 45.1514 135.711 38.6843 134.564 32.935L120.549 52.0802L132.891 25.2934C128.923 8.75555 124.519 -0.000152588 124.519 -0.000152588C124.519 -0.000152588 117.73 7.07167 109.065 21.7048Z" fill="#100744"/>
<path d="M84.1788 252.286C83.6442 250.278 81.8022 249.553 81.8022 249.553C81.5111 251.503 83.0821 253.372 83.0821 253.372C81.9026 252.782 81.2928 252.797 81.2928 252.797C65.5831 348.928 8.41846 468.906 8.41846 468.906L21.8896 501C73.069 412.735 94.8719 252.797 94.8719 252.797C93.5995 252.863 91.4338 253.096 91.4338 253.096C93.2357 251.023 93.6723 248.885 93.6723 248.885C91.1653 249.588 89.1275 252.127 89.1275 252.127C89.8603 247.648 87.2856 244.739 87.2856 244.739C84.7459 246.712 84.1788 252.286 84.1788 252.286Z" fill="#19102B"/>
<path d="M264.308 440.863L271.621 439.761L268.751 420.718L261.439 421.82L264.308 440.863Z" fill="#10003D"/>
<path d="M253.538 405.951C253.538 405.951 264.065 424.447 267.801 443.688C264.678 439.625 253.408 410.642 253.538 405.951Z" fill="#561042"/>
<path d="M255.239 426.025C253.685 424.17 252.331 422.612 251.295 421.44C249.995 419.971 247.945 419.426 246.086 420.054L241.386 421.64C241.386 421.64 251.444 422.822 266.916 441.955C266.916 441.955 266.11 439.869 264.087 436.978C261.895 433.844 258.362 429.754 255.239 426.025Z" fill="#3F024E"/>
<path d="M254.293 442.958C257.791 440.939 263.824 441.306 268.374 445.594C268.374 445.594 256.962 440.021 255.03 444.322C254.595 445.29 254.181 446.111 253.789 446.808L253.167 445.718L253.72 446.929C253.501 447.312 253.29 447.656 253.087 447.965L252.423 446.806L252.912 448.225C252.674 448.569 252.447 448.868 252.231 449.122L251.675 447.974L252.031 449.348C250.407 451.127 249.472 450.494 249.472 450.494C249.472 450.494 249.097 445.957 254.293 442.958Z" fill="#3F024E"/>
<path d="M262.781 439.072C262.781 439.072 253.311 431.872 244.381 434.735C244.381 434.735 242.134 437.409 241.853 440.171C241.853 440.171 250.839 432.472 261.901 439.399L262.781 439.072Z" fill="#561042"/>
<path d="M270.872 403.339C270.872 403.339 266.262 424.116 268.361 443.604C270.148 438.802 272.378 407.784 270.872 403.339Z" fill="#3F024E"/>
<path d="M275.16 423.024C276.098 420.792 276.933 418.905 277.578 417.481C278.387 415.693 280.186 414.568 282.148 414.62L287.106 414.751C287.106 414.751 277.844 418.845 268.695 441.688C268.695 441.688 268.851 439.456 269.932 436.097C271.103 432.457 273.274 427.507 275.16 423.024Z" fill="#561042"/>
<path d="M281.053 438.926C277.115 438.027 271.458 440.155 268.374 445.594C268.374 445.594 277.637 436.906 280.751 440.446C281.451 441.243 282.089 441.906 282.669 442.457L282.943 441.232L282.771 442.552C283.092 442.853 283.396 443.12 283.682 443.355L283.973 442.053L283.925 443.552C284.253 443.811 284.559 444.029 284.839 444.209L285.032 442.948L285.097 444.365C287.173 445.587 287.88 444.707 287.88 444.707C287.88 444.707 286.902 440.26 281.053 438.926Z" fill="#561042"/>
<path d="M271.797 437.713C271.797 437.713 278.725 428.043 288.102 428.147C288.102 428.147 291.037 430.04 292.119 432.597C292.119 432.597 281.264 427.887 272.734 437.766L271.797 437.713Z" fill="#3F024E"/>
<path d="M254.106 415.25C261.381 424.407 268.326 445.278 268.326 445.278C268.326 445.278 262.997 434.954 256.602 426.985L257.963 424.772L256.198 426.487C256.077 426.34 255.958 426.193 255.838 426.048C255.375 425.494 254.916 424.951 254.46 424.42L256.649 422.059L253.936 423.814C253.729 423.575 253.522 423.338 253.317 423.104L255.262 421.953L253.13 422.891C252.636 422.33 252.149 421.784 251.668 421.254L255.576 419.673L251.287 420.835C250.727 420.221 250.177 419.626 249.643 419.058L253.335 418.195L249.468 418.872C249.095 418.476 248.729 418.09 248.371 417.718L253.44 416.534L247.678 417.001C246.652 415.946 245.71 415.006 244.876 414.19L251.145 413.703L243.594 412.952C243.268 412.641 242.97 412.359 242.7 412.106L246.466 412.31L242.44 411.864C241.555 411.042 241.049 410.597 241.049 410.597L243.863 410.379C244.14 410.357 244.415 410.347 244.688 410.347C248.401 410.347 251.759 412.296 254.106 415.25Z" fill="#10003D"/>
<path d="M235.896 430.262L239.156 431.689L236.79 429.462C237.191 429.125 237.618 428.794 238.076 428.48L239.703 430.272L238.26 428.36C238.552 428.166 238.855 427.977 239.17 427.799L241.156 431.242L239.904 427.41C240.082 427.323 240.265 427.241 240.449 427.161L241.742 430.403L240.745 427.036C241.149 426.872 241.564 426.724 241.995 426.6L243.179 429.044L242.635 426.437C243.008 426.352 243.391 426.284 243.783 426.233L244.501 428.233L243.978 426.211C244.17 426.19 244.361 426.171 244.557 426.159L245.583 430.959L245.568 426.143C245.964 426.152 246.367 426.179 246.779 426.229L247.206 430.226L247.147 426.279C247.7 426.363 248.264 426.48 248.844 426.646C249.099 426.718 249.351 426.798 249.602 426.879L249.565 428.829L249.774 426.937C249.906 426.981 250.038 427.026 250.168 427.073L249.681 432.284L251.177 427.461C251.609 427.64 252.031 427.833 252.447 428.036L251.811 430.07L253.038 428.336C253.392 428.521 253.741 428.715 254.083 428.916L251.761 432.439L254.401 429.104C263.619 434.705 268.374 445.594 268.374 445.594C257.029 433.751 253.386 433.983 246.469 432.857C239.551 431.731 232.766 434.134 232.766 434.134C232.766 434.134 233.853 432.218 235.896 430.262Z" fill="#121A68"/>
<path d="M246.42 446.245L245.053 446.823C245.074 446.361 245.12 445.88 245.199 445.39L248.546 444.345L245.302 444.834C245.531 443.752 245.935 442.645 246.6 441.613L248.7 441.649L246.848 441.241C247.042 440.971 247.262 440.711 247.497 440.456L251.061 441.816L248.18 439.789C248.952 439.116 249.9 438.52 251.07 438.049L252.646 440.717L251.404 437.928C251.847 437.763 252.316 437.612 252.822 437.484L253.285 439.215L253.089 437.421C253.735 437.27 254.362 437.176 254.97 437.13L254.935 439.524L255.363 437.106C263.73 436.75 268.373 445.593 268.373 445.593C251.295 433.675 245.486 451.094 245.486 451.094C245.486 451.094 245.005 449.421 245.041 447.227L246.42 446.245Z" fill="#10003D"/>
<path d="M272.187 422.628L274.379 423.747C274.451 423.571 274.521 423.395 274.594 423.221C274.872 422.556 275.152 421.902 275.431 421.259L272.644 419.649L275.753 420.526C275.88 420.237 276.008 419.95 276.135 419.666L273.937 419.139L276.251 419.406C276.558 418.725 276.863 418.059 277.165 417.412L272.966 417.053L277.406 416.899C277.761 416.147 278.111 415.417 278.454 414.716L274.671 414.98L278.566 414.487C278.806 413.999 279.043 413.522 279.274 413.062L274.082 413.423L279.726 412.172C280.395 410.862 281.018 409.686 281.575 408.66L275.441 410.042L282.435 407.099C282.655 406.706 282.857 406.348 283.041 406.028L279.501 407.331L283.217 405.72C283.82 404.673 284.174 404.099 284.174 404.099L281.419 404.719C277.468 405.61 274.54 408.62 273.067 412.393C268.813 423.287 268.326 445.278 268.326 445.278C268.326 445.278 270.376 433.842 274.139 424.343L272.187 422.628Z" fill="#121A68"/>
<path d="M289.307 419.719L289.347 423.23L289.627 419.751C289.827 419.773 290.026 419.797 290.221 419.828L290.154 423.859L291.038 419.984C291.391 420.062 291.736 420.152 292.073 420.252L291.257 422.504L292.283 420.312C292.814 420.477 293.319 420.668 293.802 420.871L292.197 423.697L294.891 421.372C297.42 422.64 299.023 424.15 299.023 424.15C299.023 424.15 291.832 423.854 285.554 426.969C279.276 430.082 275.724 430.933 268.373 445.593C268.373 445.593 269.708 433.787 276.867 425.719L280.372 428.128L277.115 425.446C277.383 425.152 277.659 424.865 277.943 424.583L279.627 425.879L278.42 424.122C278.757 423.806 279.104 423.497 279.464 423.199L282.315 427.367L280.313 422.531C280.425 422.448 280.537 422.366 280.65 422.284L281.408 424.031L280.798 422.178C281.013 422.027 281.231 421.877 281.453 421.732C281.959 421.403 282.463 421.125 282.966 420.882L284.073 424.671L283.304 420.726C283.683 420.556 284.06 420.412 284.435 420.286L285.84 424.893L285.406 420.004C285.596 419.958 285.786 419.92 285.975 419.884L286.07 421.969L286.168 419.847C286.557 419.779 286.943 419.731 287.325 419.703L287.574 422.355L287.985 419.67C288.054 419.669 288.124 419.668 288.193 419.668C288.57 419.668 288.941 419.687 289.307 419.719Z" fill="#10003D"/>
<path d="M289.545 439.747L291.022 439.897C290.865 439.461 290.679 439.016 290.459 438.57L286.953 438.559L290.197 438.07C289.659 437.103 288.948 436.164 288.008 435.374L286.011 436.027L287.661 435.091C287.396 434.891 287.109 434.707 286.81 434.533L283.804 436.883L285.96 434.096C285.024 433.681 283.943 433.391 282.686 433.285L281.966 436.299L282.332 433.268C281.859 433.241 281.367 433.235 280.846 433.262L280.914 435.052L280.572 433.28C279.91 433.326 279.283 433.421 278.689 433.556L279.428 435.834L278.305 433.649C270.206 435.774 268.373 445.593 268.373 445.593C281.182 429.172 291.866 444.105 291.866 444.105C291.866 444.105 291.833 442.366 291.152 440.28L289.545 439.747Z" fill="#121A68"/>
<path d="M264.103 402.394L263.679 409.708L264.811 403.645C265.324 404.593 265.855 405.672 266.382 406.885L264.249 413.492L266.897 408.126C267.025 408.446 267.152 408.774 267.278 409.11L264.845 417.444L267.715 410.328C268.06 411.331 268.39 412.399 268.7 413.535L265.515 421.895L269.168 415.384C269.511 416.843 269.815 418.397 270.065 420.053L265.888 424.367L270.14 420.574C270.295 421.669 270.416 422.744 270.506 423.798L266.256 426.815L270.562 424.519C270.647 425.679 270.698 426.811 270.716 427.909L266.548 428.751L270.716 429.846C270.703 430.68 270.676 431.492 270.633 432.277L267.011 431.819L270.603 432.763C270.563 433.422 270.513 434.064 270.456 434.683L267.266 433.513L270.418 435.068C270.325 436.009 270.216 436.9 270.096 437.737L267.574 435.558L270.062 437.974C269.366 442.695 268.374 445.593 268.374 445.593C268.374 445.593 266.572 443.116 264.515 438.81L266.436 437.464L264.413 438.593C264.052 437.829 263.685 437.01 263.318 436.138L265.961 434.31L263.169 435.781C262.931 435.206 262.695 434.608 262.462 433.99L265.707 432.623L262.291 433.534C262.019 432.796 261.753 432.028 261.495 431.235L265.404 430.612L260.924 429.384C260.619 428.33 260.333 427.233 260.072 426.1L264.977 427.782L259.914 425.394C259.689 424.36 259.488 423.297 259.313 422.205L264.341 423.554L259.232 421.685C258.983 420.029 258.815 418.454 258.714 416.96L263.832 420.18L258.616 415.054C258.577 413.878 258.578 412.76 258.612 411.699L263.452 417.653L258.671 410.407C258.692 410.048 258.717 409.698 258.744 409.355L262.712 412.748L258.871 408.017C259.017 406.702 259.207 405.514 259.418 404.457L261.993 407.975L259.726 403.053C260.455 400.015 261.264 398.406 261.264 398.406C261.264 398.406 262.511 399.706 264.103 402.394Z" fill="#100744"/>
<path d="M268.675 444.758C268.773 444.389 269.112 444.256 269.112 444.256C269.165 444.614 268.877 444.958 268.877 444.958C269.093 444.85 269.205 444.852 269.205 444.852C272.092 462.514 282.594 484.558 282.594 484.558L280.119 490.455C270.716 474.238 266.71 444.852 266.71 444.852C266.944 444.864 267.342 444.907 267.342 444.907C267.011 444.526 266.931 444.133 266.931 444.133C267.391 444.263 267.766 444.729 267.766 444.729C267.631 443.906 268.104 443.372 268.104 443.372C268.571 443.734 268.675 444.758 268.675 444.758Z" fill="#19102B"/>
<path d="M301.549 469.593C301.549 469.593 300.072 470.724 299.279 471.655C298.486 472.585 297.562 473.14 296.887 473.353C296.887 473.353 297.234 473.638 298.758 473.411C300.281 473.184 300.386 471.08 301.047 470.811C301.709 470.543 301.549 469.593 301.549 469.593Z" fill="#8B2A9B"/>
<path d="M300.56 470.405C301.097 469.939 301.549 469.593 301.549 469.593C301.549 469.593 301.709 470.543 301.047 470.811C300.386 471.08 300.281 473.184 298.758 473.411C298.669 473.424 298.587 473.435 298.507 473.445C299.942 472.998 299.639 471.089 300.56 470.405Z" fill="#561042"/>
<path d="M302.439 474.085L302.243 476.277L301.666 477.244L302.636 480.974L302.777 481.496L303.489 481.56L303.095 480.901L302.568 478.136L302.562 477.362L303.413 476.544C303.61 476.355 303.774 476.134 303.898 475.891C304.161 475.38 304.578 474.437 304.709 473.401C304.904 471.852 303.255 472.347 303.255 472.347L302.439 474.085Z" fill="#561042"/>
<path d="M309.409 474.277L309.482 478.117L309.758 482.12L310.258 482.165L310.182 481.836L310.26 477.889L310.645 473.969L309.409 474.277Z" fill="#561042"/>
<path d="M310.645 473.969L310.394 476.521C310.158 476.689 309.817 477.07 309.478 477.939L309.409 474.277L310.645 473.969Z" fill="#561042"/>
<path d="M302.439 474.086L303.255 472.347C303.255 472.347 304.904 471.852 304.709 473.401C304.578 474.438 304.161 475.381 303.898 475.891C303.898 475.891 302.828 476.066 301.666 477.244L302.243 476.277L302.439 474.086Z" fill="#561042"/>
<path d="M317.033 466.711L316.452 466.659C316.283 466.644 316.127 466.567 316.013 466.442L315.921 466.341C315.805 466.215 315.641 466.145 315.47 466.151L314.56 466.179L313.548 465.947C313.555 466.223 313.774 466.446 314.05 466.459L314.365 466.473L313.934 467.015C313.934 467.015 313.088 469.194 312.472 470.539C311.857 471.883 310.899 471.278 310.739 470.934C310.191 469.767 309.866 466.439 308.987 466.289C308.108 466.14 307.219 468.963 306.213 468.817C305.207 468.67 304.974 466.682 304.247 466.744C303.518 466.806 302.131 468.706 301.346 469.896C300.559 471.086 300.249 472.814 300.234 473.93C300.22 475.048 300.216 475.727 300.216 475.727L299.496 476.542L299.894 481.546L299.948 482.046L300.749 482.117C300.749 482.117 300.58 481.635 300.395 481.335L300.356 478.273L300.488 476.799L301.443 476.17C302.002 475.802 302.426 475.262 302.651 474.633L303.253 472.955L303.741 473.182C303.741 473.182 305.565 474.648 307.696 474.711L307.449 477.799L307.625 481.741L307.631 482.732L308.286 482.79L308.062 481.93L308.188 477.978L309.189 474.594C309.189 474.594 310.145 474.245 311.329 473.88C312.513 473.513 313.693 472.769 314.176 471.17C314.658 469.571 314.881 469.082 315.13 468.311C315.635 468.045 315.988 467.689 315.988 467.689L317.093 467.675L317.29 467.555C317.376 467.503 317.42 467.403 317.403 467.305L317.347 466.998C317.319 466.843 317.191 466.726 317.033 466.711Z" fill="#8B2A9B"/>
<path d="M303.192 471.25C303.192 471.25 303.522 471.676 303.806 472.777C303.806 472.777 305.127 473.675 305.805 473.849C306.484 474.022 307.457 474.066 307.812 473.73L307.697 474.711C305.565 474.648 303.741 473.182 303.741 473.182L303.252 472.955C303.252 472.955 303.472 472.082 303.192 471.25Z" fill="#561042"/>
<path d="M314.717 469.497L314.718 469.496C315.005 468.639 314.654 468.056 315.027 467.98C315.402 467.906 315.503 467.52 315.722 467.512C315.939 467.505 316.509 467.681 316.509 467.681L315.988 467.689C315.988 467.689 315.635 468.044 315.13 468.311C314.999 468.715 314.876 469.045 314.717 469.497Z" fill="#561042"/>
<path d="M315.652 466.178C315.754 466.207 315.849 466.261 315.921 466.342L316.013 466.442C316.112 466.551 316.246 466.614 316.388 466.641C316.391 466.645 316.397 466.652 316.397 466.652C316.047 466.611 315.656 466.658 315.384 466.81C315.112 466.963 314.979 466.624 315.121 466.407C315.21 466.269 315.458 466.206 315.652 466.178Z" fill="#561042"/>
<path d="M309.241 474.327C309.241 474.327 309.444 473.694 309.525 472.976C309.607 472.258 309.917 472.448 309.903 473.01C309.889 473.57 309.554 474.083 309.241 474.327Z" fill="#561042"/>
<path d="M307.264 469.475C306.482 470.593 305.715 468.83 305.166 467.775C305.432 468.26 305.734 468.747 306.213 468.816C307.219 468.963 308.109 466.14 308.987 466.29C308.094 466.27 308.137 468.23 307.264 469.475Z" fill="#561042"/>
</svg>
