<svg width="32" height="32" viewBox="0 0 32 32" fill="none" xmlns="http://www.w3.org/2000/svg">
<circle cx="16" cy="16" r="16" fill="#710D89"/>
<path fill-rule="evenodd" clip-rule="evenodd" d="M22.795 16.539C22.7979 16.5317 22.7988 16.5253 22.8015 16.5178C22.8635 16.3601 22.9007 16.1906 22.9007 16.0109C22.9007 15.8311 22.8635 15.6614 22.8015 15.5039C22.7988 15.4964 22.7979 15.49 22.795 15.4825C22.7245 15.3111 22.6215 15.1563 22.4919 15.0276L17.8716 10.4072C17.3284 9.86427 16.449 9.86427 15.906 10.4072C15.3631 10.9495 15.3631 11.8306 15.906 12.3727L18.1551 14.6217H10.3902C9.62279 14.6217 9 15.2435 9 16.0119C9 16.7803 9.62279 17.402 10.3902 17.402L18.1551 17.4018L15.906 19.6509C15.3631 20.193 15.3631 21.0743 15.906 21.6162C16.1777 21.8878 16.5334 22.0233 16.8893 22.0233C17.2452 22.0233 17.6009 21.8878 17.8726 21.6162L22.493 16.996C22.6215 16.8654 22.7245 16.7104 22.795 16.539Z" fill="white"/>
</svg>
