<svg width="31" height="36" viewBox="0 0 31 36" fill="none" xmlns="http://www.w3.org/2000/svg">
<path d="M15.4961 0C12.6032 0 9.82887 1.14918 7.78331 3.19474C5.73776 5.2403 4.58857 8.01466 4.58857 10.9075V16.5105L1.4541 19.645C0.759637 20.3403 0.286798 21.2258 0.0953069 22.1896C-0.0961846 23.1535 0.00226057 24.1524 0.378209 25.0604C0.754157 25.9683 1.39074 26.7444 2.20756 27.2908C3.02438 27.8371 3.98478 28.1291 4.96747 28.1299H26.0247C27.0074 28.1291 27.9678 27.8371 28.7846 27.2908C29.6014 26.7444 30.238 25.9683 30.614 25.0604C30.9899 24.1524 31.0884 23.1535 30.8969 22.1896C30.7054 21.2258 30.2325 20.3403 29.5381 19.645L26.4036 16.5105V10.9075C26.4036 8.01466 25.2544 5.2403 23.2089 3.19474C21.1633 1.14918 18.3889 0 15.4961 0ZM27.104 22.0791C27.3173 22.2927 27.4626 22.5647 27.5215 22.8608C27.5803 23.1568 27.55 23.4637 27.4346 23.7426C27.3191 24.0215 27.1235 24.2599 26.8726 24.4278C26.6216 24.5956 26.3266 24.6852 26.0247 24.6854H4.96747C4.6656 24.6852 4.37056 24.5956 4.11962 24.4278C3.86869 24.2599 3.67313 24.0215 3.55763 23.7426C3.44214 23.4637 3.4119 23.1568 3.47074 22.8608C3.52957 22.5647 3.67484 22.2927 3.8882 22.0791L8.03305 17.9343V10.9075C8.03305 8.9282 8.81934 7.02994 10.2189 5.63035C11.6185 4.23076 13.5168 3.44448 15.4961 3.44448C17.4754 3.44448 19.3737 4.23076 20.7733 5.63035C22.1728 7.02994 22.9591 8.9282 22.9591 10.9075V17.9343L27.104 22.0791Z" fill="white"/>
<path d="M20.0876 32.1479H10.9023V35.5924H20.0876V32.1479Z" fill="white"/>
</svg>
