<svg width="200" height="200" viewBox="0 0 200 200" fill="none" xmlns="http://www.w3.org/2000/svg">
<path d="M138.533 115.928L161.175 138.562L99.9 199.837L38.6333 138.57L61.275 115.928L99.9083 154.762L138.533 115.928ZM177.175 77.295L200 99.9284L177.375 122.562L154.733 99.9284L177.175 77.295ZM99.9083 77.295L122.542 99.7284L99.9 122.37L77.2667 99.9284L99.9 77.3034L99.9083 77.295ZM22.6333 77.295L45.0833 99.9284L22.65 122.362L0 99.9284L22.6333 77.295ZM99.9167 0.0116577L161.183 61.095L138.542 83.72L99.9083 45.0867L61.2833 83.92L38.6417 61.2867L99.9083 0.0199911L99.9167 0.0116577Z" fill="#F3BA2F"/>
</svg>
