<svg width="222" height="222" viewBox="0 0 222 222" fill="none" xmlns="http://www.w3.org/2000/svg">
<path opacity="0.02" d="M50.1233 111L25.1483 136.148L0 111L25.1483 85.8513L50.1233 111ZM111 50.1233L154.013 93.1356L179.161 67.9873L136.148 25.1483L111 0L85.8513 25.1483L43.0123 67.9873L68.1607 93.1356L111 50.1233ZM196.852 85.8513L171.877 111L197.025 136.148L222 111L196.852 85.8513ZM111 171.877L67.9873 128.864L43.0123 154.013L86.0247 197.025L111 222L136.148 196.852L179.161 153.839L154.013 128.864L111 171.877ZM111 136.148L136.148 111L111 85.8513L85.8513 111L111 136.148Z" fill="white"/>
</svg>
