<svg width="16" height="16" viewBox="0 0 16 16" fill="none" xmlns="http://www.w3.org/2000/svg">
<path d="M8 16C12.4183 16 16 12.4183 16 8C16 3.58172 12.4183 0 8 0C3.58172 0 0 3.58172 0 8C0 12.4183 3.58172 16 8 16Z" fill="#F0B90B"/>
<path d="M5.01656 8.00006L3.79256 9.23256L2.56006 8.00006L3.79256 6.76756L5.01656 8.00006ZM8.00006 5.01656L10.1081 7.12456L11.3406 5.89206L9.23256 3.79256L8.00006 2.56006L6.76756 3.79256L4.66806 5.89206L5.90056 7.12456L8.00006 5.01656ZM12.2076 6.76756L10.9836 8.00006L12.2161 9.23256L13.4401 8.00006L12.2076 6.76756ZM8.00006 10.9836L5.89206 8.87556L4.66806 10.1081L6.77606 12.2161L8.00006 13.4401L9.23256 12.2076L11.3406 10.0996L10.1081 8.87556L8.00006 10.9836ZM8.00006 9.23256L9.23256 8.00006L8.00006 6.76756L6.76756 8.00006L8.00006 9.23256Z" fill="white"/>
</svg>
