<svg width="198" height="198" viewBox="0 0 198 198" fill="none" xmlns="http://www.w3.org/2000/svg">
<path d="M99 198C153.676 198 198 153.676 198 99C198 44.3238 153.676 0 99 0C44.3238 0 0 44.3238 0 99C0 153.676 44.3238 198 99 198Z" fill="#F0B90B"/>
<path d="M62.0662 99.0083L46.9192 114.261L31.667 99.0083L46.9192 83.7562L62.0662 99.0083ZM98.987 62.0875L125.074 88.174L140.326 72.9218L114.239 46.9405L98.987 31.6884L83.7348 46.9405L57.7535 72.9218L73.0057 88.174L98.987 62.0875ZM151.055 83.7562L135.908 99.0083L151.161 114.261L166.307 99.0083L151.055 83.7562ZM98.987 135.93L72.9005 109.843L57.7535 125.095L83.84 151.182L98.987 166.329L114.239 151.077L140.326 124.99L125.074 109.843L98.987 135.93ZM98.987 114.261L114.239 99.0083L98.987 83.7562L83.7348 99.0083L98.987 114.261Z" fill="white"/>
</svg>
