<svg width="24" height="24" viewBox="0 0 16 14" fill="none" xmlns="http://www.w3.org/2000/svg">
<path fill-rule="evenodd" clip-rule="evenodd" d="M6.29961 0H4.89961V1.7472C4.20521 1.9082 3.50661 2.1273 2.79961 2.4059V0.7H1.39961V3.031C1.05171 3.2039 0.702409 3.3901 0.349609 3.591L1.04961 4.809C1.16651 4.7418 1.28341 4.676 1.39961 4.613V5.999C1.16161 6.1495 0.927809 6.3077 0.699609 6.475V11.2H5.07461C5.27467 10.6692 5.63474 10.2136 6.105 9.89632C6.57526 9.57908 7.13247 9.41577 7.69961 9.429C8.26675 9.41577 8.82395 9.57908 9.29421 9.89632C9.76447 10.2136 10.1246 10.6692 10.3246 11.2H14.6996V6.475C14.4714 6.3028 14.2376 6.1397 13.9996 5.9857V4.613C14.1158 4.676 14.2327 4.7418 14.3496 4.809L15.0496 3.591C14.7049 3.39456 14.3548 3.20781 13.9996 3.031V0.7H12.5996V2.4059C11.917 2.13457 11.215 1.91462 10.4996 1.7479V0H9.09961V1.5043C8.16945 1.39556 7.22977 1.39556 6.29961 1.5043V0ZM12.5996 3.92V5.2108C11.925 4.89549 11.2217 4.64516 10.4996 4.4632V3.1787C11.2182 3.36959 11.9204 3.61747 12.5996 3.92ZM9.09961 2.9015C8.17043 2.77725 7.22879 2.77725 6.29961 2.9015V4.2182C6.78466 4.15264 7.27317 4.11618 7.76261 4.109C8.21131 4.1139 8.65791 4.144 9.09961 4.2V2.9015ZM2.79961 3.92C3.47877 3.61724 4.181 3.36911 4.89961 3.178V4.4912C4.17839 4.67591 3.47549 4.92591 2.79961 5.2381V3.92ZM7.76261 5.509C9.73493 5.52207 11.6601 6.11349 13.2996 7.21V9.8H11.1996C10.8044 9.24224 10.279 8.78941 9.66906 8.48078C9.05915 8.17215 8.38309 8.0171 7.69961 8.029C7.02201 8.02277 6.353 8.18062 5.74963 8.48897C5.14626 8.79739 4.62647 9.24721 4.23461 9.8H2.09961V7.224C3.79005 6.13464 5.75182 5.54054 7.76261 5.509ZM12.2916 12.999L13.6146 13.881L14.3846 12.719L13.0686 11.837C12.7228 11.6053 12.3159 11.4815 11.8996 11.4815C11.4833 11.4815 11.0764 11.6053 10.7306 11.837L10.1916 12.201C10.0758 12.2793 9.93933 12.3211 9.79961 12.3211C9.65989 12.3211 9.52339 12.2793 9.40761 12.201L8.86861 11.837C8.52281 11.6053 8.1159 11.4815 7.69961 11.4815C7.28332 11.4815 6.87643 11.6053 6.53061 11.837L5.99161 12.201C5.87585 12.2793 5.73933 12.3211 5.59961 12.3211C5.45989 12.3211 5.32337 12.2793 5.20761 12.201L4.66861 11.837C4.32279 11.6053 3.91589 11.4815 3.49961 11.4815C3.08333 11.4815 2.67643 11.6053 2.33061 11.837L1.01461 12.719L1.78461 13.881L3.10761 12.999C3.22337 12.9207 3.35989 12.879 3.49961 12.879C3.63933 12.879 3.77585 12.9207 3.89161 12.999L4.43061 13.363C4.77643 13.5947 5.18333 13.7185 5.59961 13.7185C6.01589 13.7185 6.42279 13.5947 6.76861 13.363L7.30761 12.999C7.42339 12.9207 7.55989 12.879 7.69961 12.879C7.83933 12.879 7.97583 12.9207 8.09161 12.999L8.63061 13.363C8.97641 13.5947 9.38332 13.7185 9.79961 13.7185C10.2159 13.7185 10.6228 13.5947 10.9686 13.363L11.5076 12.999C11.6234 12.9207 11.7599 12.879 11.8996 12.879C12.0393 12.879 12.1758 12.9207 12.2916 12.999Z" fill="white"/>
</svg>
