<svg width="41" height="39" viewBox="0 0 41 39" fill="none" xmlns="http://www.w3.org/2000/svg">
<path fill-rule="evenodd" clip-rule="evenodd" d="M16.7173 1.9777C16.7173 0.891498 15.8368 0 14.7506 0C13.6644 0 12.7838 0.88054 12.7838 1.96674V2.73611C12.7838 4.0083 11.9035 5.10321 10.6818 5.4582C10.3112 5.56591 9.93993 5.6795 9.56804 5.79899C8.26452 6.21786 6.88359 5.27724 6.88359 3.90807C6.88359 2.8359 6.00181 1.96674 4.92964 1.96674C3.84344 1.96674 2.95011 2.84728 2.95011 3.93348V7.23973C2.95011 8.02159 2.50593 8.73326 1.81368 9.09673C1.78704 9.11071 1.7604 9.12473 1.73375 9.13878C0.768781 9.64734 0.441755 10.858 0.985271 11.8038L1.75715 13.1468C1.8729 13.3482 2.13209 13.4162 2.33437 13.302C2.61195 13.1452 2.95011 13.3485 2.95011 13.6673V15.8933C2.95011 16.492 2.64152 17.0462 2.14409 17.3794C2.06732 17.4308 1.99074 17.4825 1.91434 17.5346C1.32214 17.9381 0.983371 18.6157 0.983371 19.3323V26.4679C0.983371 29.2293 3.22195 31.4679 5.98337 31.4679H9.81665C11.8978 31.4679 13.6627 30.0437 15.1704 28.609C15.4793 28.315 15.8136 28.0458 16.1705 27.805C17.4918 26.9137 19.0573 26.4548 20.6508 26.492C22.2442 26.4548 23.8098 26.9137 25.131 27.805C25.4879 28.0458 25.8222 28.315 26.1312 28.609C27.6388 30.0437 29.4037 31.4679 31.4849 31.4679H35.3182C38.0796 31.4679 40.3182 29.2293 40.3182 26.4679V19.3396C40.3182 18.6171 39.982 17.9323 39.3905 17.5175C39.306 17.4583 39.2213 17.3995 39.1364 17.3411C38.6516 17.0079 38.3515 16.4624 38.3515 15.874V13.6673C38.3515 13.3485 38.6896 13.1452 38.9672 13.302C39.1695 13.4162 39.4287 13.3482 39.5444 13.1468L40.3165 11.8034C40.8599 10.8578 40.533 9.64748 39.568 9.13914C39.5412 9.12501 39.5144 9.11089 39.4875 9.0968C38.7953 8.73351 38.3515 8.02179 38.3515 7.24004V3.93348C38.3515 2.84728 37.4563 1.96674 36.3701 1.96674C35.2999 1.96674 34.418 2.83426 34.418 3.9044C34.418 5.27342 33.0344 6.21413 31.7304 5.79726C31.3599 5.67881 30.9877 5.56559 30.614 5.45762C29.395 5.10545 28.5177 4.01319 28.5177 2.74435V1.96674C28.5177 0.88054 27.6372 0 26.551 0C25.4648 0 24.5843 0.891498 24.5843 1.9777C24.5843 3.16841 23.5453 4.10028 22.3561 4.04034C21.2199 3.98308 20.0816 3.98308 18.9455 4.04034C17.7563 4.10028 16.7173 3.16841 16.7173 1.9777ZM33.4435 10.5954C34.0396 10.8418 34.418 11.4293 34.418 12.0742C34.418 13.2696 33.1722 14.0658 32.0532 13.6455C31.3187 13.3696 30.5745 13.12 29.822 12.8972C29.0596 12.6714 28.5177 11.9827 28.5177 11.1876C28.5177 10.048 29.5981 9.21731 30.6809 9.57261C31.6141 9.87884 32.5356 10.22 33.4435 10.5954ZM24.5843 9.74069C24.5843 8.83121 23.9114 8.05596 23.0048 7.98383C21.4428 7.85954 19.8734 7.85915 18.3114 7.98266C17.3963 8.05502 16.7173 8.8375 16.7173 9.7554C16.7173 10.8646 17.6956 11.7156 18.8019 11.6341C19.476 11.5845 20.1516 11.5547 20.8278 11.5448C21.398 11.551 21.9669 11.5717 22.534 11.6071C23.6249 11.6751 24.5843 10.8337 24.5843 9.74069ZM6.88359 12.1002C6.88359 11.4394 7.27114 10.8374 7.88189 10.5852C8.76545 10.2202 9.6619 9.88768 10.5695 9.5882C11.6774 9.22258 12.7838 10.073 12.7838 11.2397C12.7838 12.0511 12.2326 12.7548 11.4553 12.9873C10.7285 13.2048 10.0093 13.4461 9.2987 13.711C8.15386 14.1377 6.88359 13.322 6.88359 12.1002ZM20.8278 15.4783C25.5221 15.5094 30.1215 16.7066 34.2183 18.9448C35.6078 19.7039 36.3847 21.2079 36.3847 22.7913V23.645C36.3847 25.793 34.6434 27.5344 32.4953 27.5344C31.2341 27.5344 30.0812 26.8909 29.188 26.0004C28.3104 25.1254 27.2974 24.3912 26.1842 23.8279C24.4706 22.9607 22.5711 22.5251 20.6508 22.5585C18.747 22.541 16.8673 22.9845 15.1721 23.8509C14.086 24.406 13.0962 25.1243 12.2357 25.9772C11.325 26.8798 10.1535 27.5344 8.87136 27.5344C6.68735 27.5344 4.91685 25.7639 4.91685 23.5799V22.8505C4.91685 21.2586 5.7133 19.752 7.11936 19.0056C11.3348 16.7678 16.0317 15.5535 20.8278 15.4783ZM33.5526 36.5224L35.6338 37.9099C36.5366 38.5117 37.7565 38.266 38.3558 37.3615C38.9517 36.4622 38.7091 35.2504 37.813 34.6498L35.7357 33.2576C34.7641 32.6066 33.6208 32.2589 32.4512 32.2589C31.2816 32.2589 30.1383 32.6066 29.1668 33.2576L27.6524 34.2803C27.3271 34.5002 26.9436 34.6176 26.551 34.6176C26.1584 34.6176 25.7749 34.5002 25.4496 34.2803L23.9352 33.2576C22.9637 32.6066 21.8204 32.2589 20.6508 32.2589C19.4812 32.2589 18.338 32.6066 17.3663 33.2576L15.8519 34.2803C15.5267 34.5002 15.1431 34.6176 14.7506 34.6176C14.358 34.6176 13.9744 34.5002 13.6492 34.2803L12.1348 33.2576C11.1632 32.6066 10.0199 32.2589 8.85034 32.2589C7.68073 32.2589 6.53751 32.6066 5.56588 33.2576L3.48859 34.6498C2.59242 35.2504 2.34985 36.4622 2.94577 37.3615C3.54509 38.266 4.76498 38.5117 5.66773 37.9099L7.74896 36.5224C8.0742 36.3025 8.45777 36.1851 8.85034 36.1851C9.2429 36.1851 9.62647 36.3025 9.95171 36.5224L11.4661 37.5451C12.4377 38.1961 13.581 38.5438 14.7506 38.5438C15.9202 38.5438 17.0634 38.1961 18.035 37.5451L19.5494 36.5224C19.8747 36.3025 20.2582 36.1851 20.6508 36.1851C21.0433 36.1851 21.4269 36.3025 21.7522 36.5224L23.2665 37.5451C24.2381 38.1961 25.3814 38.5438 26.551 38.5438C27.7206 38.5438 28.8639 38.1961 29.8355 37.5451L31.3499 36.5224C31.6752 36.3025 32.0587 36.1851 32.4512 36.1851C32.8438 36.1851 33.2273 36.3025 33.5526 36.5224Z" fill="url(#paint0_linear_300_525)"/>
<defs>
<linearGradient id="paint0_linear_300_525" x1="0" y1="39.0004" x2="41.3016" y2="39.0004" gradientUnits="userSpaceOnUse">
<stop stop-color="#610D89"/>
<stop offset="1" stop-color="#C42BB4"/>
</linearGradient>
</defs>
</svg>
