<svg width="24" height="24" viewBox="0 0 24 24" fill="none" xmlns="http://www.w3.org/2000/svg">
<path d="M8.82766 5.88809H7.94658V3.37263H7.10764V5.88809H6.22656V12.9252H7.10764V15.4404H7.94658V12.9252H8.82766V5.88809Z" fill="white"/>
<path d="M13.7401 2.76383H12.8587V0H12.0198V2.76383H11.1387V10.4971H12.0198V13.2609H12.8587V10.4971H13.7401V2.76383Z" fill="white"/>
<path d="M3.91604 12.6914H3.03496V10.7261H2.19566V12.6914H1.31494V18.1895H2.19566V20.1546H3.03496V18.1895H3.91604V12.6914Z" fill="white"/>
<path d="M13.8922 18.5542L12.0923 20.3607C11.9692 20.4902 11.9692 20.6909 12.0923 20.8204L13.8922 22.6268C14.0929 22.834 14.4426 22.6851 14.4426 22.4002V21.2347H18.3338C18.6899 21.2347 18.9813 20.9434 18.9813 20.5873C18.9813 20.2312 18.6899 19.9398 18.3338 19.9398H14.4426V18.7809C14.4426 18.4895 14.0929 18.3471 13.8922 18.5542ZM23.2869 16.4759L21.4869 14.6695C21.2862 14.4623 20.9366 14.6112 20.9366 14.8961V16.055H17.0389C16.6828 16.055 16.3914 16.3464 16.3914 16.7025C16.3914 17.0586 16.6828 17.35 17.0389 17.35H20.9301V18.5089C20.9301 18.8003 21.2798 18.9427 21.4805 18.7355L23.2804 16.9291C23.4099 16.8061 23.4099 16.5989 23.2869 16.4759Z" fill="white"/>
</svg>
