<svg width="38" height="47" viewBox="0 0 38 47" fill="none" xmlns="http://www.w3.org/2000/svg">
<path d="M36.2642 6.87684L31.1684 1.78105C30.0305 0.643158 28.5463 0.0494736 26.9632 0.0494736L5.93684 0C4.35368 0 2.86947 0.593684 1.73158 1.73158C0.593684 2.86947 0 4.35368 0 5.93684V41.0632C0 44.3284 2.67158 47 5.93684 47H32.0589C35.3242 47 37.9958 44.3284 37.9958 41.0632V11.0326C37.9958 9.49895 37.3526 7.96526 36.2642 6.87684ZM34.0874 9.05368C34.2853 9.25158 34.4832 9.54842 34.6316 9.79579H28.4474C28.3484 9.79579 28.2495 9.69684 28.2495 9.59789V3.46316C28.4968 3.61158 28.7937 3.76 28.9916 4.00737L34.0874 9.05368ZM32.0589 43.8832H5.93684C4.40316 43.8832 3.11684 42.5968 3.11684 41.0632V5.93684C3.11684 5.19474 3.41368 4.45263 3.95789 3.95789C4.50211 3.41368 5.19474 3.11684 5.93684 3.11684L25.1326 3.16632V9.64737C25.1326 11.4779 26.6168 12.9621 28.4474 12.9621H34.9284V41.1126C34.8789 42.5968 33.6421 43.8832 32.0589 43.8832Z" fill="url(#paint0_linear_37_518)"/>
<path d="M29.4371 26.3696H18.6518C17.8108 26.3696 17.1182 27.0623 17.1182 27.9033C17.1182 28.7444 17.8108 29.437 18.6518 29.437H29.4371C30.2782 29.437 30.9708 28.7444 30.9708 27.9033C30.9708 27.0623 30.2782 26.3696 29.4371 26.3696Z" fill="url(#paint1_linear_37_518)"/>
<path d="M29.4371 17.5625H18.6518C17.8108 17.5625 17.1182 18.2551 17.1182 19.0962C17.1182 19.9372 17.8108 20.6299 18.6518 20.6299H29.4371C30.2782 20.6299 30.9708 19.9372 30.9708 19.0962C30.9708 18.2551 30.2782 17.5625 29.4371 17.5625Z" fill="url(#paint2_linear_37_518)"/>
<path d="M29.4371 35.127H18.6518C17.8108 35.127 17.1182 35.8196 17.1182 36.6606C17.1182 37.5017 17.8108 38.1943 18.6518 38.1943H29.4371C30.2782 38.1943 30.9708 37.5017 30.9708 36.6606C30.9708 35.8196 30.2782 35.127 29.4371 35.127Z" fill="url(#paint3_linear_37_518)"/>
<path d="M12.7656 15.9794L10.3414 18.4037L9.69828 17.7605C9.10459 17.1668 8.11512 17.1668 7.52144 17.7605C6.92775 18.3542 6.92775 19.3436 7.52144 19.9373L9.30249 21.7184C9.59933 22.0152 9.99512 22.1636 10.3909 22.1636C10.7867 22.1636 11.1825 22.0152 11.4793 21.7184L15.0414 18.1563C15.6351 17.5626 15.6351 16.5731 15.0414 15.9794C14.3488 15.3363 13.3593 15.3363 12.7656 15.9794Z" fill="url(#paint4_linear_37_518)"/>
<path d="M12.7656 24.7365L10.3414 27.1607L9.69828 26.5176C9.10459 25.9239 8.11512 25.9239 7.52144 26.5176C6.92775 27.1113 6.92775 28.1007 7.52144 28.6944L9.30249 30.4755C9.59933 30.7723 9.99512 30.9207 10.3909 30.9207C10.7867 30.9207 11.1825 30.7723 11.4793 30.4755L15.0414 26.9134C15.6351 26.3197 15.6351 25.3302 15.0414 24.7365C14.3488 24.1428 13.3593 24.1428 12.7656 24.7365Z" fill="url(#paint5_linear_37_518)"/>
<path d="M12.7656 33.4941L10.3414 35.9183L9.69828 35.2751C9.10459 34.6815 8.11512 34.6815 7.52144 35.2751C6.92775 35.8688 6.92775 36.8583 7.52144 37.452L9.30249 39.233C9.59933 39.5299 9.99512 39.6783 10.3909 39.6783C10.7867 39.6783 11.1825 39.5299 11.4793 39.233L15.0414 35.6709C15.6351 35.0773 15.6351 34.0878 15.0414 33.4941C14.3488 32.9004 13.3593 32.9004 12.7656 33.4941Z" fill="url(#paint6_linear_37_518)"/>
<defs>
<linearGradient id="paint0_linear_37_518" x1="0" y1="47" x2="37.9958" y2="47" gradientUnits="userSpaceOnUse">
<stop stop-color="#610D89"/>
<stop offset="1" stop-color="#C42BB4"/>
</linearGradient>
<linearGradient id="paint1_linear_37_518" x1="17.1182" y1="29.437" x2="30.9708" y2="29.437" gradientUnits="userSpaceOnUse">
<stop stop-color="#610D89"/>
<stop offset="1" stop-color="#C42BB4"/>
</linearGradient>
<linearGradient id="paint2_linear_37_518" x1="17.1182" y1="20.6299" x2="30.9708" y2="20.6299" gradientUnits="userSpaceOnUse">
<stop stop-color="#610D89"/>
<stop offset="1" stop-color="#C42BB4"/>
</linearGradient>
<linearGradient id="paint3_linear_37_518" x1="17.1182" y1="38.1943" x2="30.9708" y2="38.1943" gradientUnits="userSpaceOnUse">
<stop stop-color="#610D89"/>
<stop offset="1" stop-color="#C42BB4"/>
</linearGradient>
<linearGradient id="paint4_linear_37_518" x1="7.07617" y1="22.1636" x2="15.4867" y2="22.1636" gradientUnits="userSpaceOnUse">
<stop stop-color="#610D89"/>
<stop offset="1" stop-color="#C42BB4"/>
</linearGradient>
<linearGradient id="paint5_linear_37_518" x1="7.07617" y1="30.9207" x2="15.4867" y2="30.9207" gradientUnits="userSpaceOnUse">
<stop stop-color="#610D89"/>
<stop offset="1" stop-color="#C42BB4"/>
</linearGradient>
<linearGradient id="paint6_linear_37_518" x1="7.07617" y1="39.6783" x2="15.4867" y2="39.6783" gradientUnits="userSpaceOnUse">
<stop stop-color="#610D89"/>
<stop offset="1" stop-color="#C42BB4"/>
</linearGradient>
</defs>
</svg>
