<svg width="24" height="24" viewBox="0 0 16 12" fill="none" xmlns="http://www.w3.org/2000/svg">
<g clip-path="url(#clip0_12:389)">
<path d="M11.8082 11.5512C11.8082 11.5512 11.3151 10.9599 10.9041 10.4374C12.6986 9.92859 13.3836 8.80098 13.3836 8.80098C12.8219 9.17227 12.2877 9.43354 11.8082 9.61231C11.1233 9.90109 10.4658 10.0936 9.82192 10.2036C8.50685 10.4511 7.30137 10.3824 6.27397 10.1899C5.49315 10.0386 4.82192 9.81858 4.26027 9.59856C3.9452 9.47479 3.60274 9.32353 3.26027 9.13101C3.21918 9.10351 3.17808 9.08976 3.13699 9.06225C3.10959 9.0485 3.09589 9.03475 3.08219 9.021C2.83562 8.88349 2.69863 8.78723 2.69863 8.78723C2.69863 8.78723 3.35616 9.88734 5.09589 10.4099C4.68493 10.9324 4.17808 11.5512 4.17808 11.5512C1.15069 11.455 0 9.46104 0 9.46104C0 5.03311 1.9726 1.44401 1.9726 1.44401C3.94521 -0.0411397 5.82192 0.000114276 5.82192 0.000114276L5.9589 0.16513C3.49315 0.8802 2.35616 1.96656 2.35616 1.96656C2.35616 1.96656 2.65753 1.80154 3.16438 1.56777C4.63014 0.921454 5.79452 0.742687 6.27397 0.701433C6.35616 0.687682 6.42466 0.67393 6.50685 0.67393C7.34247 0.56392 8.28767 0.536417 9.27397 0.646428C10.5753 0.797693 11.9726 1.18273 13.3973 1.96656C13.3973 1.96656 12.3151 0.935206 9.9863 0.220136L10.1781 0.000114276C10.1781 0.000114276 12.0548 -0.0411397 14.0274 1.44401C14.0274 1.44401 16 5.03311 16 9.46104C16 9.46104 14.8356 11.455 11.8082 11.5512ZM5.43836 5.12937C4.65753 5.12937 4.0411 5.81694 4.0411 6.65577C4.0411 7.4946 4.67123 8.18217 5.43836 8.18217C6.21918 8.18217 6.83562 7.4946 6.83562 6.65577C6.84931 5.81694 6.21918 5.12937 5.43836 5.12937ZM10.4384 5.12937C9.65753 5.12937 9.04109 5.81694 9.04109 6.65577C9.04109 7.4946 9.67123 8.18217 10.4384 8.18217C11.2192 8.18217 11.8356 7.4946 11.8356 6.65577C11.8356 5.81694 11.2192 5.12937 10.4384 5.12937Z" fill="white"/>
</g>
<defs>
<clipPath id="clip0_12:389">
<rect width="16" height="11.5512" fill="white"/>
</clipPath>
</defs>
</svg>
