<svg width="62" height="48" viewBox="0 0 62 48" fill="none" xmlns="http://www.w3.org/2000/svg">
<g clip-path="url(#clip0_11:3553)">
<path d="M52.307 4.0033C48.2574 2.10856 43.9733 0.762259 39.5679 0C39.0192 0.99208 38.378 2.32643 37.9359 3.38798C33.1861 2.67377 28.4799 2.67377 23.8174 3.38798C23.3755 2.32667 22.7199 0.99208 22.1661 0C17.7563 0.76261 13.4686 2.11233 9.41715 4.01319C1.35508 16.1963 -0.830489 28.0764 0.262174 39.7884C5.60947 43.7815 10.7915 46.2074 15.8863 47.7947C17.1525 46.0535 18.2717 44.2101 19.2325 42.2834C17.4033 41.587 15.6398 40.7288 13.9632 39.7189C14.4044 39.3919 14.8352 39.051 15.2551 38.6969C25.4151 43.4492 36.4547 43.4492 46.4937 38.6969C46.9153 39.0487 47.346 39.3895 47.7853 39.7189C46.1059 40.7314 44.3392 41.5914 42.5063 42.2885C43.4725 44.223 44.5898 46.0682 45.8525 47.7996C50.9521 46.2124 56.139 43.7866 61.4863 39.7884C62.7685 26.2114 59.2961 14.44 52.307 4.00306V4.0033ZM20.6168 32.5857C17.5668 32.5857 15.0655 29.7383 15.0655 26.271C15.0655 22.8036 17.5135 19.9514 20.6168 19.9514C23.7204 19.9514 26.2215 22.7986 26.1682 26.271C26.173 29.7383 23.7204 32.5857 20.6168 32.5857ZM41.1316 32.5857C38.0816 32.5857 35.5805 29.7383 35.5805 26.271C35.5805 22.8036 38.0283 19.9514 41.1316 19.9514C44.2352 19.9514 46.7363 22.7986 46.683 26.271C46.683 29.7383 44.2352 32.5857 41.1316 32.5857Z" fill="#5865F2"/>
</g>
<defs>
<clipPath id="clip0_11:3553">
<rect width="61.7487" height="48" fill="white"/>
</clipPath>
</defs>
</svg>
