<svg width="39" height="49" viewBox="0 0 39 49" fill="none" xmlns="http://www.w3.org/2000/svg">
<path d="M34.125 0H4.875C3.58251 0.0014194 2.34335 0.51549 1.42942 1.42942C0.51549 2.34335 0.0014194 3.58251 0 4.875V35.75H9.75C10.6116 35.751 11.4377 36.0937 12.047 36.703C12.6563 37.3123 12.999 38.1384 13 39V48.75H34.125C35.4175 48.7486 36.6566 48.2345 37.5706 47.3206C38.4845 46.4066 38.9986 45.1675 39 43.875V4.875C38.9986 3.58251 38.4845 2.34335 37.5706 1.42942C36.6566 0.51549 35.4175 0.0014194 34.125 0ZM11.375 8.125H27.625C28.056 8.125 28.4693 8.29621 28.774 8.60095C29.0788 8.9057 29.25 9.31902 29.25 9.75C29.25 10.181 29.0788 10.5943 28.774 10.899C28.4693 11.2038 28.056 11.375 27.625 11.375H11.375C10.944 11.375 10.5307 11.2038 10.226 10.899C9.92121 10.5943 9.75 10.181 9.75 9.75C9.75 9.31902 9.92121 8.9057 10.226 8.60095C10.5307 8.29621 10.944 8.125 11.375 8.125ZM11.375 17.875H27.625C28.056 17.875 28.4693 18.0462 28.774 18.351C29.0788 18.6557 29.25 19.069 29.25 19.5C29.25 19.931 29.0788 20.3443 28.774 20.649C28.4693 20.9538 28.056 21.125 27.625 21.125H11.375C10.944 21.125 10.5307 20.9538 10.226 20.649C9.92121 20.3443 9.75 19.931 9.75 19.5C9.75 19.069 9.92121 18.6557 10.226 18.351C10.5307 18.0462 10.944 17.875 11.375 17.875ZM11.375 30.875C10.944 30.875 10.5307 30.7038 10.226 30.399C9.92121 30.0943 9.75 29.681 9.75 29.25C9.75 28.819 9.92121 28.4057 10.226 28.101C10.5307 27.7962 10.944 27.625 11.375 27.625H27.625C28.056 27.625 28.4693 27.7962 28.774 28.101C29.0788 28.4057 29.25 28.819 29.25 29.25C29.25 29.681 29.0788 30.0943 28.774 30.399C28.4693 30.7038 28.056 30.875 27.625 30.875H11.375ZM29.25 40.625H21.125C20.694 40.625 20.2807 40.4538 19.976 40.149C19.6712 39.8443 19.5 39.431 19.5 39C19.5 38.569 19.6712 38.1557 19.976 37.851C20.2807 37.5462 20.694 37.375 21.125 37.375H29.25C29.681 37.375 30.0943 37.5462 30.399 37.851C30.7038 38.1557 30.875 38.569 30.875 39C30.875 39.431 30.7038 39.8443 30.399 40.149C30.0943 40.4538 29.681 40.625 29.25 40.625Z" fill="url(#paint0_linear_37_205)"/>
<path d="M9.74628 39H1.02734C1.15147 39.1692 1.28624 39.3304 1.43083 39.4825L9.26333 47.315C9.41557 47.4598 9.57688 47.5949 9.74628 47.7193V39Z" fill="url(#paint1_linear_37_205)"/>
<defs>
<linearGradient id="paint0_linear_37_205" x1="0" y1="48.75" x2="39" y2="48.75" gradientUnits="userSpaceOnUse">
<stop stop-color="#610D89"/>
<stop offset="1" stop-color="#C42BB4"/>
</linearGradient>
<linearGradient id="paint1_linear_37_205" x1="1.02734" y1="47.7193" x2="9.74628" y2="47.7193" gradientUnits="userSpaceOnUse">
<stop stop-color="#610D89"/>
<stop offset="1" stop-color="#C42BB4"/>
</linearGradient>
</defs>
</svg>
