<svg width="48" height="48" viewBox="0 0 48 48" fill="none" xmlns="http://www.w3.org/2000/svg">
<path d="M24 4V15.25C24 16.2446 24.3951 17.1984 25.0983 17.9017C25.8016 18.6049 26.7554 19 27.75 19H40V40C40 40.7957 39.6839 41.5587 39.1213 42.1213C38.5587 42.6839 37.7956 43 37 43H11C10.2044 43 9.44129 42.6839 8.87868 42.1213C8.31607 41.5587 8 40.7957 8 40V7C8 6.20435 8.31607 5.44129 8.87868 4.87868C9.44129 4.31607 10.2044 4 11 4H24Z" fill="#8B2A9B"/>
<path d="M26.5 4.46399V15.25C26.5 15.94 27.06 16.5 27.75 16.5H39.462L26.5 4.46399Z" fill="#8B2A9B"/>
</svg>
