<svg width="24" height="24" viewBox="0 0 24 24" fill="none" xmlns="http://www.w3.org/2000/svg">
<path d="M13.3995 6.16156C13.6149 6.37696 13.6149 6.72622 13.3995 6.94162L12.6863 7.65477L13.5836 8.55202H17.9738C18.7828 8.55202 19.4447 9.21393 19.4447 10.0229V13.5237C18.9152 13.1707 18.29 12.9648 17.6061 12.9648C15.9071 12.9648 14.5171 14.2592 14.3333 15.9066H12.0239C12.0607 15.6639 12.0901 15.4212 12.0901 15.1711C12.0901 14.0385 11.6562 13.0089 10.9575 12.2293H11.3547C12.1637 12.2293 12.8256 11.5674 12.8256 10.7584V9.35418L11.9062 8.43484L11.1931 9.14799C10.9777 9.3634 10.6285 9.3634 10.413 9.14799C10.1976 8.93258 10.1976 8.58333 10.413 8.36792L12.6194 6.16156C12.8348 5.94615 13.184 5.94615 13.3995 6.16156Z" fill="white"/>
<path fill-rule="evenodd" clip-rule="evenodd" d="M11.3546 15.1932C11.3546 17.2241 9.70823 18.8705 7.67731 18.8705C5.64639 18.8705 4 17.2241 4 15.1932C4 13.1622 5.64639 11.5158 7.67731 11.5158C9.70823 11.5158 11.3546 13.1622 11.3546 15.1932ZM9.8837 15.1932C9.8837 16.4117 8.89586 17.3995 7.67731 17.3995C6.45876 17.3995 5.47092 16.4117 5.47092 15.1932C5.47092 13.9746 6.45876 12.9868 7.67731 12.9868C8.89586 12.9868 9.8837 13.9746 9.8837 15.1932Z" fill="white"/>
<path fill-rule="evenodd" clip-rule="evenodd" d="M17.6059 13.7003C16.1864 13.7003 15.0317 14.8549 15.0317 16.2744C15.0317 17.6938 16.1864 18.8484 17.6059 18.8484C19.0253 18.8484 20.18 17.6938 20.18 16.2744C20.18 14.8549 19.0253 13.7003 17.6059 13.7003ZM17.6059 17.3775C16.9954 17.3775 16.5027 16.8848 16.5027 16.2744C16.5027 15.6639 16.9954 15.1712 17.6059 15.1712C18.2163 15.1712 18.7091 15.6639 18.7091 16.2744C18.7091 16.8848 18.2163 17.3775 17.6059 17.3775Z" fill="white"/>
<path d="M9.88342 10.7583H6.20616C5.80166 10.7583 5.4707 10.4347 5.4707 10.0229C5.4707 9.61837 5.80166 9.28741 6.20616 9.28741H8.41252C9.22151 9.28741 9.88342 9.94932 9.88342 10.7583Z" fill="white"/>
</svg>
