<svg width="49" height="39" viewBox="0 0 49 39" fill="none" xmlns="http://www.w3.org/2000/svg">
<path d="M28.412 0.488285C29.063 1.1393 29.063 2.19489 28.412 2.84591L28.1742 3.08372C27.1151 4.14276 27.1151 5.85987 28.1742 6.91891V6.91891C28.6827 7.42744 29.3725 7.71312 30.0916 7.71312H42.2372C44.6823 7.71312 46.6828 9.71365 46.6828 12.1587V16.8457C46.6828 19.3649 43.6451 21.0501 41.1259 21.0501V21.0501C37.05 21.0501 33.5625 23.5149 32.0195 27.0216C31.3236 28.6031 29.9275 29.9413 28.1996 29.9413H26.4886C25.313 29.9413 24.4545 28.894 24.4545 27.7184V27.7184C24.4545 24.7276 23.4535 21.9745 21.7923 19.7553C21.5144 19.3841 21.7682 18.8272 22.2319 18.8272V18.8272C24.677 18.8272 26.6775 16.8267 26.6775 14.3816V11.2885C26.6775 10.5516 26.3847 9.84479 25.8636 9.32369V9.32369C24.7784 8.2386 23.0191 8.23866 21.934 9.32382L21.7435 9.51436C21.0925 10.1654 20.037 10.1654 19.3857 9.51436C18.7347 8.86331 18.7347 7.80775 19.3857 7.1567L26.0543 0.488285C26.7053 -0.162762 27.7607 -0.162762 28.412 0.488285Z" fill="url(#paint0_linear_153:1946)"/>
<path fill-rule="evenodd" clip-rule="evenodd" d="M22.2283 27.7881C22.2283 33.9262 17.2523 38.9022 11.1142 38.9022C4.97599 38.9022 0 33.9262 0 27.7881C0 21.6496 4.97599 16.6736 11.1142 16.6736C17.2523 16.6736 22.2283 21.6496 22.2283 27.7881ZM17.7827 27.7881C17.7827 31.4708 14.7971 34.4563 11.1142 34.4563C7.43127 34.4563 4.44565 31.4708 4.44565 27.7881C4.44565 24.105 7.43127 21.1195 11.1142 21.1195C14.7971 21.1195 17.7827 24.105 17.7827 27.7881Z" fill="url(#paint1_linear_153:1946)"/>
<path fill-rule="evenodd" clip-rule="evenodd" d="M41.1151 23.2747C36.8249 23.2747 33.335 26.7643 33.335 31.0546C33.335 35.3445 36.8249 38.8342 41.1151 38.8342C45.4051 38.8342 48.895 35.3445 48.895 31.0546C48.895 26.7643 45.4051 23.2747 41.1151 23.2747ZM41.1151 34.3886C39.27 34.3886 37.7809 32.8994 37.7809 31.0546C37.7809 29.2094 39.27 27.7203 41.1151 27.7203C42.96 27.7203 44.4494 29.2094 44.4494 31.0546C44.4494 32.8994 42.96 34.3886 41.1151 34.3886Z" fill="url(#paint2_linear_153:1946)"/>
<path d="M15.2521 10.3702C17.7408 11.5669 15.5455 14.3801 12.7841 14.3801H6.67009C5.44755 14.3801 4.44727 13.4021 4.44727 12.1575C4.44727 10.9349 5.44755 9.93457 6.67009 9.93457H13.3385C14.0225 9.93457 14.6718 10.0911 15.2521 10.3702Z" fill="url(#paint3_linear_153:1946)"/>
<defs>
<linearGradient id="paint0_linear_153:1946" x1="18.8975" y1="29.9413" x2="46.6828" y2="29.9413" gradientUnits="userSpaceOnUse">
<stop stop-color="#610D89"/>
<stop offset="1" stop-color="#C42BB4"/>
</linearGradient>
<linearGradient id="paint1_linear_153:1946" x1="0" y1="38.9022" x2="22.2283" y2="38.9022" gradientUnits="userSpaceOnUse">
<stop stop-color="#610D89"/>
<stop offset="1" stop-color="#C42BB4"/>
</linearGradient>
<linearGradient id="paint2_linear_153:1946" x1="33.335" y1="38.8341" x2="48.895" y2="38.8341" gradientUnits="userSpaceOnUse">
<stop stop-color="#610D89"/>
<stop offset="1" stop-color="#C42BB4"/>
</linearGradient>
<linearGradient id="paint3_linear_153:1946" x1="4.44727" y1="14.3801" x2="17.7841" y2="14.3801" gradientUnits="userSpaceOnUse">
<stop stop-color="#610D89"/>
<stop offset="1" stop-color="#C42BB4"/>
</linearGradient>
</defs>
</svg>
