<svg width="24" height="24" viewBox="0 0 24 24" fill="none" xmlns="http://www.w3.org/2000/svg">
<path d="M22.3892 1.79348C22.3807 1.75202 22.3605 1.71387 22.331 1.68348C22.3015 1.65309 22.264 1.63174 22.2228 1.62192C19.4773 0.950668 13.1337 3.3427 9.69687 6.77817C9.08388 7.38621 8.52504 8.04652 8.02672 8.75161C6.96687 8.65786 5.90703 8.73614 5.00375 9.12989C2.45515 10.2516 1.71312 13.1785 1.5064 14.4375C1.49468 14.5065 1.4991 14.5772 1.51932 14.6441C1.53955 14.711 1.57502 14.7723 1.62295 14.8232C1.67088 14.8741 1.72996 14.9131 1.79555 14.9373C1.86114 14.9615 1.93144 14.9701 2.00093 14.9625L6.09359 14.5111C6.09651 14.8197 6.11513 15.1279 6.14937 15.4346C6.16997 15.6475 6.2645 15.8466 6.41656 15.9971L8.0014 17.5782C8.15206 17.73 8.351 17.8245 8.5639 17.8454C8.86886 17.8795 9.17534 17.8981 9.48218 17.9011L9.03312 21.9886C9.02563 22.0581 9.03433 22.1284 9.05855 22.1939C9.08277 22.2594 9.12184 22.3185 9.1727 22.3664C9.22356 22.4143 9.28483 22.4498 9.3517 22.47C9.41857 22.4903 9.48922 22.4948 9.55812 22.4832C10.8148 22.2816 13.7469 21.5396 14.862 18.991C15.2558 18.0877 15.3364 17.033 15.2455 15.9783C15.9523 15.48 16.6143 14.921 17.2241 14.3077C20.6717 10.8774 23.0502 4.67536 22.3892 1.79348ZM13.7844 10.2155C13.4696 9.9009 13.2551 9.49999 13.1682 9.0635C13.0812 8.627 13.1257 8.17452 13.296 7.7633C13.4662 7.35208 13.7546 7.0006 14.1247 6.7533C14.4947 6.506 14.9298 6.374 15.3748 6.374C15.8199 6.374 16.255 6.506 16.625 6.7533C16.9951 7.0006 17.2835 7.35208 17.4537 7.7633C17.624 8.17452 17.6684 8.627 17.5815 9.0635C17.4946 9.49999 17.2801 9.9009 16.9653 10.2155C16.7566 10.4246 16.5086 10.5904 16.2357 10.7036C15.9628 10.8167 15.6703 10.875 15.3748 10.875C15.0794 10.875 14.7869 10.8167 14.514 10.7036C14.241 10.5904 13.9931 10.4246 13.7844 10.2155Z" fill="white"/>
<path d="M7.89375 18.7233C7.63687 18.9806 7.22484 19.0809 6.72891 19.1667C5.61469 19.3566 4.63078 18.3937 4.83094 17.2673C4.90734 16.8403 5.13328 16.2417 5.27391 16.1011C5.30464 16.071 5.3251 16.0319 5.33238 15.9895C5.33965 15.947 5.33337 15.9034 5.31443 15.8647C5.29549 15.8261 5.26485 15.7943 5.22686 15.7741C5.18887 15.7538 5.14547 15.7461 5.10281 15.7519C4.47973 15.8281 3.90006 16.1106 3.45609 16.5544C2.35406 17.6573 2.25 21.75 2.25 21.75C2.25 21.75 6.345 21.6459 7.44703 20.543C7.89218 20.0994 8.17503 19.5188 8.25 18.8948C8.26734 18.6989 8.02875 18.5822 7.89375 18.7233Z" fill="white"/>
</svg>
