<svg width="40" height="42" viewBox="0 0 40 42" fill="none" xmlns="http://www.w3.org/2000/svg">
<path d="M18.375 3.9375V1.3125C18.375 0.964403 18.5133 0.630564 18.7594 0.384422C19.0056 0.138281 19.3394 0 19.6875 0C20.0356 0 20.3694 0.138281 20.6156 0.384422C20.8617 0.630564 21 0.964403 21 1.3125V3.9375C21 4.2856 20.8617 4.61944 20.6156 4.86558C20.3694 5.11172 20.0356 5.25 19.6875 5.25C19.3394 5.25 19.0056 5.11172 18.7594 4.86558C18.5133 4.61944 18.375 4.2856 18.375 3.9375ZM7.62563 9.47625C7.74329 9.61364 7.88808 9.72523 8.05091 9.80402C8.21375 9.8828 8.39111 9.92707 8.57187 9.93405C8.75262 9.94103 8.93287 9.91057 9.1013 9.84459C9.26973 9.7786 9.42269 9.67851 9.5506 9.5506C9.67851 9.42269 9.7786 9.26973 9.84459 9.1013C9.91057 8.93287 9.94103 8.75262 9.93405 8.57187C9.92707 8.39111 9.8828 8.21375 9.80402 8.05091C9.72523 7.88808 9.61364 7.74329 9.47625 7.62563L7.62563 5.76844C7.50368 5.64649 7.35891 5.54976 7.19958 5.48377C7.04025 5.41777 6.86949 5.3838 6.69703 5.3838C6.52458 5.3838 6.35381 5.41777 6.19448 5.48377C6.03515 5.54976 5.89038 5.64649 5.76844 5.76844C5.64649 5.89038 5.54976 6.03515 5.48377 6.19448C5.41777 6.35381 5.3838 6.52458 5.3838 6.69703C5.3838 6.86949 5.41777 7.04025 5.48377 7.19958C5.54976 7.35891 5.64649 7.50368 5.76844 7.62563L7.62563 9.47625ZM30.8438 9.84375C31.1913 9.84229 31.5241 9.70304 31.7691 9.45656L33.6263 7.60594C33.7482 7.48399 33.8449 7.33922 33.9109 7.17989C33.9769 7.02057 34.0109 6.8498 34.0109 6.67734C34.0109 6.50489 33.9769 6.33412 33.9109 6.17479C33.8449 6.01546 33.7482 5.87069 33.6263 5.74875C33.5043 5.62681 33.3595 5.53007 33.2002 5.46408C33.0409 5.39808 32.8701 5.36411 32.6977 5.36411C32.5252 5.36411 32.3544 5.39808 32.1951 5.46408C32.0358 5.53007 31.891 5.62681 31.7691 5.74875L29.9184 7.60594C29.736 7.78947 29.6119 8.02284 29.5617 8.27671C29.5115 8.53059 29.5375 8.79363 29.6364 9.03278C29.7352 9.27193 29.9026 9.47651 30.1174 9.62081C30.3323 9.7651 30.585 9.84266 30.8438 9.84375ZM1.3125 21H3.9375C4.2856 21 4.61944 20.8617 4.86558 20.6156C5.11172 20.3694 5.25 20.0356 5.25 19.6875C5.25 19.3394 5.11172 19.0056 4.86558 18.7594C4.61944 18.5133 4.2856 18.375 3.9375 18.375H1.3125C0.964403 18.375 0.630564 18.5133 0.384422 18.7594C0.138281 19.0056 0 19.3394 0 19.6875C0 20.0356 0.138281 20.3694 0.384422 20.6156C0.630564 20.8617 0.964403 21 1.3125 21ZM38.0625 18.375H35.4375C35.0894 18.375 34.7556 18.5133 34.5094 18.7594C34.2633 19.0056 34.125 19.3394 34.125 19.6875C34.125 20.0356 34.2633 20.3694 34.5094 20.6156C34.7556 20.8617 35.0894 21 35.4375 21H38.0625C38.4106 21 38.7444 20.8617 38.9906 20.6156C39.2367 20.3694 39.375 20.0356 39.375 19.6875C39.375 19.3394 39.2367 19.0056 38.9906 18.7594C38.7444 18.5133 38.4106 18.375 38.0625 18.375ZM6.5625 19.6875C6.56014 17.383 7.16457 15.1185 8.31503 13.1217C9.46548 11.125 11.1214 9.46629 13.1163 8.31251C15.1111 7.15873 17.3746 6.55053 19.6791 6.54905C21.9836 6.54757 24.2478 7.15288 26.2442 8.3041C28.2405 9.45532 29.8985 11.1119 31.0515 13.1072C32.2046 15.1025 32.8119 17.3662 32.8125 19.6707C32.8131 21.9752 32.2069 24.2392 31.0549 26.2351C29.9029 28.231 28.2457 29.8884 26.25 31.0406V36.75C26.25 37.0981 26.1117 37.4319 25.8656 37.6781C25.6194 37.9242 25.2856 38.0625 24.9375 38.0625H14.4375C14.0894 38.0625 13.7556 37.9242 13.5094 37.6781C13.2633 37.4319 13.125 37.0981 13.125 36.75V31.0406C11.1254 29.897 9.46467 28.2438 8.31189 26.2495C7.15911 24.2552 6.55549 21.991 6.5625 19.6875ZM9.1875 19.6875C9.18382 21.6428 9.72855 23.5599 10.7598 25.2211C11.7911 26.8822 13.2676 28.2209 15.0216 29.085C15.2402 29.1937 15.4243 29.3612 15.5529 29.5687C15.6816 29.7762 15.7499 30.0155 15.75 30.2597V35.4375H23.625V30.2597C23.6251 30.0155 23.6934 29.7762 23.8221 29.5687C23.9507 29.3612 24.1348 29.1937 24.3534 29.085C26.0301 28.2533 27.454 26.9886 28.4777 25.4217C29.5014 23.8549 30.0877 22.0429 30.1758 20.1734C30.264 18.3038 29.8509 16.4447 28.9792 14.7885C28.1075 13.1322 26.809 11.7391 25.2181 10.7533C23.6271 9.76746 21.8016 9.2248 19.9305 9.18149C18.0594 9.13817 16.2107 9.59577 14.5759 10.5069C12.941 11.4181 11.5794 12.7496 10.632 14.3637C9.68465 15.9779 9.18593 17.8159 9.1875 19.6875ZM22.3125 42C22.6606 42 22.9944 41.8617 23.2406 41.6156C23.4867 41.3694 23.625 41.0356 23.625 40.6875C23.625 40.3394 23.4867 40.0056 23.2406 39.7594C22.9944 39.5133 22.6606 39.375 22.3125 39.375H17.0625C16.7144 39.375 16.3806 39.5133 16.1344 39.7594C15.8883 40.0056 15.75 40.3394 15.75 40.6875C15.75 41.0356 15.8883 41.3694 16.1344 41.6156C16.3806 41.8617 16.7144 42 17.0625 42H22.3125Z" fill="url(#paint0_linear_37_2766)"/>
<defs>
<linearGradient id="paint0_linear_37_2766" x1="0" y1="42" x2="39.375" y2="42" gradientUnits="userSpaceOnUse">
<stop stop-color="#610D89"/>
<stop offset="1" stop-color="#C42BB4"/>
</linearGradient>
</defs>
</svg>
