<svg width="18" height="17" viewBox="0 0 18 17" fill="none" xmlns="http://www.w3.org/2000/svg">
<path d="M0.449753 3.61836C0.447278 3.66281 0.431675 3.70553 0.404918 3.74111C0.378161 3.77669 0.341452 3.80354 0.299435 3.81825C0.257419 3.83297 0.211981 3.83489 0.168872 3.82377C0.125762 3.81266 0.0869171 3.78901 0.0572505 3.75582C0.0275838 3.72262 0.00842864 3.68138 0.002208 3.6373C-0.00401263 3.59321 0.0029807 3.54828 0.0223035 3.50817C0.0416264 3.46806 0.0724103 3.43459 0.110761 3.41198C0.149112 3.38937 0.193307 3.37864 0.237755 3.38116C0.297314 3.38453 0.353099 3.4114 0.392851 3.45588C0.432603 3.50036 0.453069 3.5588 0.449753 3.61836ZM17.7575 11.9416C17.7131 11.9447 17.6705 11.9608 17.6353 11.988C17.6001 12.0153 17.5737 12.0523 17.5595 12.0945C17.5454 12.1367 17.544 12.1822 17.5557 12.2252C17.5674 12.2681 17.5915 12.3067 17.6251 12.3359C17.6587 12.3651 17.7002 12.3837 17.7444 12.3894C17.7885 12.395 17.8334 12.3874 17.8732 12.3676C17.9131 12.3477 17.9461 12.3165 17.9682 12.2779C17.9903 12.2392 18.0005 12.1949 17.9974 12.1505C17.9932 12.091 17.9656 12.0356 17.9206 11.9964C17.8757 11.9572 17.817 11.9375 17.7575 11.9416ZM0.420946 2.2334C0.376518 2.23089 0.332344 2.24161 0.294007 2.26421C0.25567 2.2868 0.224891 2.32025 0.205561 2.36033C0.18623 2.40041 0.179215 2.44532 0.185403 2.48939C0.191591 2.53346 0.210704 2.5747 0.240326 2.6079C0.269948 2.64111 0.308749 2.66479 0.351826 2.67595C0.394902 2.68711 0.44032 2.68525 0.48234 2.6706C0.524359 2.65596 0.561093 2.62918 0.5879 2.59367C0.614706 2.55815 0.630381 2.51548 0.632944 2.47105C0.634647 2.44152 0.630513 2.41195 0.620778 2.38402C0.611043 2.35609 0.595898 2.33035 0.576208 2.30828C0.556519 2.28621 0.532672 2.26824 0.506031 2.25539C0.47939 2.24254 0.450477 2.23507 0.420946 2.2334ZM0.834139 1.08564C0.789691 1.08313 0.745496 1.09386 0.707145 1.11646C0.668794 1.13907 0.63801 1.17255 0.618687 1.21265C0.599364 1.25276 0.592371 1.2977 0.598592 1.34178C0.604812 1.38586 0.623967 1.42711 0.653634 1.4603C0.683301 1.4935 0.722146 1.51715 0.765255 1.52826C0.808365 1.53937 0.853802 1.53745 0.895819 1.52274C0.937836 1.50802 0.974545 1.48118 1.0013 1.44559C1.02806 1.41001 1.04366 1.3673 1.04614 1.32285C1.04945 1.26328 1.02899 1.20484 0.989234 1.16037C0.949482 1.11589 0.893698 1.08901 0.834139 1.08564ZM17.613 13.2834C17.5559 13.2661 17.4944 13.2722 17.4418 13.3003C17.3892 13.3284 17.3499 13.3762 17.3326 13.4333C17.2026 13.9637 16.9617 14.4604 16.6256 14.8908C16.2894 15.3212 15.8658 15.6754 15.3827 15.93C15.3285 15.955 15.2864 16.0005 15.2657 16.0566C15.245 16.1126 15.2475 16.1746 15.2725 16.2288C15.2975 16.2831 15.343 16.3252 15.3991 16.3459C15.4551 16.3666 15.5171 16.3641 15.5713 16.3391C16.1125 16.0583 16.5878 15.6657 16.9657 15.1873C17.3436 14.7089 17.6155 14.1557 17.7633 13.5642C17.7722 13.5358 17.7753 13.5059 17.7726 13.4763C17.7698 13.4466 17.7612 13.4178 17.7472 13.3915C17.7332 13.3652 17.7142 13.342 17.6911 13.3231C17.6681 13.3042 17.6415 13.2901 17.613 13.2816V13.2834ZM14.6702 15.2314C13.617 15.515 11.398 15.695 9.01697 15.695C6.63594 15.695 4.42144 15.515 3.36821 15.2314C2.09442 14.8893 1.50029 13.3995 1.37426 12.2202C1.23923 10.942 1.17171 8.57442 1.17171 7.84526C1.17171 7.11609 1.23923 4.74856 1.37426 3.47028C1.50029 2.29551 2.09442 0.80118 3.36821 0.463604C4.42144 0.18004 6.64044 0 9.01697 0C11.3935 0 13.617 0.18004 14.6702 0.463604C15.944 0.80118 16.5382 2.29551 16.6642 3.47028C16.7992 4.74856 16.8667 7.11609 16.8667 7.84526C16.8667 8.57442 16.7992 10.942 16.6642 12.2202C16.5382 13.4 15.944 14.8893 14.6702 15.2314ZM13.1624 3.73584C13.1346 3.6385 13.0871 3.54791 13.0229 3.4697C12.9586 3.3915 12.8789 3.32735 12.7888 3.28124C12.7 3.23324 12.6025 3.20332 12.502 3.19319C12.4015 3.18306 12.3 3.19293 12.2033 3.22222C12.1067 3.25151 12.0168 3.29964 11.9388 3.36385C11.8608 3.42805 11.7964 3.50706 11.7491 3.59631L8.13027 10.3793L6.19484 8.11082C6.12991 8.03361 6.05036 7.97 5.96075 7.92365C5.87114 7.8773 5.77326 7.84913 5.67272 7.84076C5.46873 7.82385 5.26637 7.8886 5.1101 8.0208C4.95427 8.15775 4.85749 8.34969 4.84004 8.55642C4.82693 8.75797 4.89316 8.95666 5.02458 9.11004L7.68467 12.2247C7.74804 12.304 7.82791 12.3685 7.91873 12.4138C8.02971 12.4725 8.15327 12.5034 8.27881 12.5038C8.35498 12.5047 8.43086 12.4941 8.50386 12.4723C8.60054 12.4431 8.69048 12.3951 8.76851 12.3309C8.84653 12.2668 8.91109 12.1879 8.95846 12.0987L13.1084 4.32097C13.1559 4.23195 13.1852 4.13433 13.1944 4.03385C13.2037 3.93337 13.1928 3.83205 13.1624 3.73584Z" fill="#FEB519"/>
</svg>
