<svg width="37" height="29" viewBox="0 0 37 29" fill="none" xmlns="http://www.w3.org/2000/svg">
<path d="M36.9992 27.0547C36.9992 27.8835 36.3249 28.5578 35.4961 28.5578H11.1735C10.3447 28.5578 9.67041 27.8835 9.67041 27.0547V25.1327C9.67041 24.3039 10.3447 23.6296 11.1735 23.6296H35.4939C36.3227 23.6296 36.9969 24.3039 36.9969 25.1327V27.0547H36.9992Z" fill="url(#paint0_linear_37_1180)"/>
<path d="M5.63908 26.7657C5.63908 27.7536 4.83489 28.5578 3.84703 28.5578H2.50299C1.51512 28.5578 0.710938 27.7536 0.710938 26.7657V25.4217C0.710938 24.4338 1.51512 23.6296 2.50299 23.6296H3.84703C4.83489 23.6296 5.63908 24.4338 5.63908 25.4217V26.7657Z" fill="url(#paint1_linear_37_1180)"/>
<path d="M36.9992 15.406C36.9992 16.2348 36.3249 16.9091 35.4961 16.9091H11.1735C10.3447 16.9091 9.67041 16.2348 9.67041 15.406V13.484C9.67041 12.6552 10.3447 11.981 11.1735 11.981H35.4939C36.3227 11.981 36.9969 12.6552 36.9969 13.484V15.406H36.9992Z" fill="url(#paint2_linear_37_1180)"/>
<path d="M36.9992 3.75709C36.9992 4.58591 36.3249 5.26017 35.4961 5.26017H11.1735C10.3447 5.26017 9.67041 4.58591 9.67041 3.75709V1.83511C9.67041 1.00629 10.3447 0.332031 11.1735 0.332031H35.4939C36.3227 0.332031 36.9969 1.00629 36.9969 1.83511V3.75709H36.9992Z" fill="url(#paint3_linear_37_1180)"/>
<path d="M5.63908 15.117C5.63908 16.1049 4.83489 16.9091 3.84703 16.9091H2.50299C1.51512 16.9091 0.710938 16.1049 0.710938 15.117V13.773C0.710938 12.7851 1.51512 11.981 2.50299 11.981H3.84703C4.83489 11.981 5.63908 12.7851 5.63908 13.773V15.117Z" fill="url(#paint4_linear_37_1180)"/>
<path d="M5.63908 3.46812C5.63908 4.45599 4.83489 5.26017 3.84703 5.26017H2.50299C1.51512 5.26017 0.710938 4.45599 0.710938 3.46812V2.12408C0.710938 1.13621 1.51512 0.332031 2.50299 0.332031H3.84703C4.83489 0.332031 5.63908 1.13621 5.63908 2.12408V3.46812Z" fill="url(#paint5_linear_37_1180)"/>
<defs>
<linearGradient id="paint0_linear_37_1180" x1="9.67041" y1="28.5578" x2="36.9992" y2="28.5578" gradientUnits="userSpaceOnUse">
<stop stop-color="#610D89"/>
<stop offset="1" stop-color="#C42BB4"/>
</linearGradient>
<linearGradient id="paint1_linear_37_1180" x1="0.710938" y1="28.5578" x2="5.63908" y2="28.5578" gradientUnits="userSpaceOnUse">
<stop stop-color="#610D89"/>
<stop offset="1" stop-color="#C42BB4"/>
</linearGradient>
<linearGradient id="paint2_linear_37_1180" x1="9.67041" y1="16.9091" x2="36.9992" y2="16.9091" gradientUnits="userSpaceOnUse">
<stop stop-color="#610D89"/>
<stop offset="1" stop-color="#C42BB4"/>
</linearGradient>
<linearGradient id="paint3_linear_37_1180" x1="9.67041" y1="5.26017" x2="36.9992" y2="5.26017" gradientUnits="userSpaceOnUse">
<stop stop-color="#610D89"/>
<stop offset="1" stop-color="#C42BB4"/>
</linearGradient>
<linearGradient id="paint4_linear_37_1180" x1="0.710938" y1="16.9091" x2="5.63908" y2="16.9091" gradientUnits="userSpaceOnUse">
<stop stop-color="#610D89"/>
<stop offset="1" stop-color="#C42BB4"/>
</linearGradient>
<linearGradient id="paint5_linear_37_1180" x1="0.710938" y1="5.26017" x2="5.63908" y2="5.26017" gradientUnits="userSpaceOnUse">
<stop stop-color="#610D89"/>
<stop offset="1" stop-color="#C42BB4"/>
</linearGradient>
</defs>
</svg>
