<svg width="100" height="81" viewBox="0 0 100 81" fill="none" xmlns="http://www.w3.org/2000/svg">
  <path d="M100 24.4133C98.2464 26.7171 96.742 29.167 95.4612 31.7201C95.2119 32.2015 94.9712 32.6915 94.7477 33.1729C89.3235 44.7176 88.034 57.8699 87.9137 66.9561C87.8965 67.575 87.8965 68.2197 87.8965 68.7957C87.9051 72.4577 88.0942 75.1827 88.2318 76.9019H11.7768C11.9144 75.1827 12.1035 72.4577 12.1121 68.7957C12.1121 68.2197 12.1121 67.6008 12.0949 66.9819C11.9746 57.887 10.6765 44.6574 5.20932 33.0869C4.98582 32.5969 4.74512 32.1069 4.49583 31.617C3.21499 29.0983 1.72784 26.6827 0 24.4133C0 24.4133 16.5649 28.8919 26.4162 41.8723C26.4162 41.8723 37.2733 14.0978 50.0043 0C62.7353 14.1064 73.5838 41.8723 73.5838 41.8723C83.4351 28.8919 100 24.4133 100 24.4133Z" fill="#FCDB1C"/>
  <path d="M88.2295 76.8962H11.7832C11.9207 75.1769 12.1099 72.5981 12.1185 69.1596H87.9115C87.9115 72.5981 88.1006 75.1769 88.2295 76.8962Z" fill="#FEB50D"/>
  <path d="M60.8783 46.7944L49.6775 63.5828L49.1101 62.7318L38.4766 46.7944L49.1101 30.8569L49.6775 30.0059L60.8783 46.7944Z" fill="#FEB50D"/>
  <path d="M58.8956 46.7927L49.689 60.5983L49.2248 59.8934L40.4824 46.7927L49.2248 33.6921L49.689 32.9872L58.8956 46.7927Z" fill="#108728"/>
  <path d="M48.7496 43.4543C47.4601 46.0847 45.7495 47.8899 44.9414 47.4945C44.1334 47.0991 44.5202 44.6406 45.8097 42.0101C47.0991 39.3797 48.8097 37.5745 49.6178 37.9699C50.4258 38.3739 50.039 40.8324 48.7496 43.4543Z" fill="#27C13D"/>
  <path d="M95.4798 31.7312C95.2305 32.2126 94.9898 32.7026 94.7663 33.184C88.6544 36.8288 77.806 43.8691 72.4849 50.832L71.9949 51.4767L71.7112 50.7117C71.6081 50.4452 61.9975 25.0777 50.0487 11.3839C38.1171 25.0863 28.5323 50.4194 28.4206 50.6945L28.1455 51.451L27.6555 50.8062C22.2915 43.7831 11.2969 36.6826 5.21935 33.0722C4.99585 32.5822 4.75515 32.0922 4.50586 31.6108C10.1364 34.8774 21.9906 42.2358 27.9908 49.6371C29.7014 45.2531 38.2375 22.4215 50.2722 10.0515V10.0687C60.5877 22.4473 70.6281 45.2703 72.3473 49.6629C78.2873 42.3217 89.7977 35.0407 95.4798 31.7312Z" fill="#DD9403"/>
  <path d="M12.0957 75.1727L16.7807 68.7169L21.457 75.1727H12.0957Z" fill="#FCDB1C"/>
  <path d="M21.5234 75.1727L26.1998 68.7169L30.8761 75.1727H21.5234Z" fill="#FCDB1C"/>
  <path d="M30.9238 75.1727L35.6002 68.7169L40.2765 75.1727H30.9238Z" fill="#FCDB1C"/>
  <path d="M40.3516 75.1727L45.0279 68.7169L49.7129 75.1727H40.3516Z" fill="#FCDB1C"/>
  <path d="M50.2988 75.1727L54.9752 68.7169L59.6515 75.1727H50.2988Z" fill="#FCDB1C"/>
  <path d="M60.1172 75.1727L64.7935 68.7169L69.4699 75.1727H60.1172Z" fill="#FCDB1C"/>
  <path d="M69.5176 75.1727L74.1939 68.7169L78.8789 75.1727H69.5176Z" fill="#FCDB1C"/>
  <path d="M78.9453 75.1727L83.6303 68.7169L88.3066 75.1727H78.9453Z" fill="#FCDB1C"/>
  <path d="M87.9114 66.5815C87.8942 67.4411 87.8942 68.3007 87.8942 69.1603H12.1012C12.1012 68.3007 12.1012 67.4411 12.084 66.5815H87.9114Z" fill="#DD9403"/>
  <path d="M88.9447 75.174H9.85938V80.3318H88.9447V75.174Z" fill="#FEB50D"/>
  <path d="M88.9447 78.6115H9.85938V80.3308H88.9447V78.6115Z" fill="#FCDB1C"/>
  <path d="M88.9428 75.1746H9.85742V76.0342H88.9428V75.1746Z" fill="#DD9403"/>
  <path d="M73.1485 67.4099L76.2002 66.9457L73.1485 66.4901L72.521 62.3296L71.8935 66.4901L68.8418 66.9457L71.8935 67.4099L72.521 71.5619L73.1485 67.4099Z" fill="white"/>
  <path d="M49.8673 39.6409L52.9189 39.1853L49.8673 38.7211L49.2397 34.5692L48.6122 38.7211L45.5605 39.1853L48.6122 39.6409L49.2397 43.7929L49.8673 39.6409Z" fill="white"/>
</svg>
