<svg width="79" height="69" viewBox="0 0 79 69" fill="none" xmlns="http://www.w3.org/2000/svg">
    <path d="M37.8997 49.3174C38.152 49.345 38.4066 49.345 38.6589 49.3174C38.8924 49.3449 39.1283 49.3449 39.3618 49.3174C45.0675 47.4732 50.0121 43.811 53.4395 38.8908C56.8669 33.9706 58.5884 28.0632 58.3408 22.072C58.3408 19.2603 58.3408 16.4486 58.2002 14.0305C58.156 13.4331 57.9221 12.8654 57.5327 12.4103C57.1432 11.9551 56.6186 11.6362 56.0352 11.5H55.8384C55.6437 11.459 55.4426 11.459 55.2479 11.5H54.8543C52.0694 11.5339 49.3271 10.8151 46.9169 9.41943C44.5067 8.02381 42.5182 6.0032 41.1613 3.57101L41.1051 3.20549C40.9991 3.04334 40.8766 2.89258 40.7395 2.75562C40.6059 2.6347 40.4651 2.52202 40.3178 2.41821L40.121 2.24951C40.028 2.23323 39.9328 2.23323 39.8398 2.24951C39.6724 2.1639 39.4918 2.10688 39.3056 2.08081H38.7714H38.2652C38.0709 2.1109 37.8817 2.16767 37.7029 2.24951C37.619 2.23759 37.5338 2.23759 37.4499 2.24951C37.4499 2.24951 37.4499 2.24951 37.253 2.24951C37.0998 2.35596 36.9584 2.4785 36.8313 2.61503L36.4658 3.20549C36.4658 3.20549 36.4658 3.20549 36.3252 3.40231C34.8797 5.83778 32.8209 7.85162 30.354 9.2429C27.8872 10.6342 25.0987 11.3543 22.2667 11.3313C21.8807 11.2835 21.489 11.3163 21.1163 11.4276C20.7437 11.5389 20.3982 11.7263 20.1017 11.978C19.7743 12.2223 19.5041 12.535 19.3099 12.8943C19.1157 13.2536 19.0021 13.651 18.977 14.0587C18.977 16.2799 18.977 18.6417 18.977 21.0879V21.9877C18.6879 27.9897 20.3849 33.9198 23.8056 38.8602C27.2263 43.8006 32.1798 47.4759 37.8997 49.3174ZM35.8472 22.6343L38.6589 16.7298L41.4706 22.6343L47.7969 23.5622L43.242 28.1734L44.2823 34.6684L38.6589 31.6318L33.0355 34.6684L34.1039 28.1734L29.549 23.5622L35.8472 22.6343Z" fill="url(#paint0_linear_300:1804)"/>
    <path d="M67.738 5.62315C67.9614 4.95658 68.0293 4.24776 67.9367 3.55089C67.8441 2.85402 67.5934 2.18755 67.2038 1.60242C66.8785 1.0519 66.3986 0.609145 65.8237 0.329197C65.2488 0.0492492 64.6043 -0.0555378 63.9703 0.0278661C63.7449 0.694114 63.6758 1.40332 63.7684 2.10055C63.8611 2.79778 64.113 3.46434 64.5046 4.0486C64.8243 4.60432 65.3032 5.05141 65.8797 5.3321C66.4561 5.61278 67.1034 5.71417 67.738 5.62315Z" fill="url(#paint1_linear_300:1804)"/>
    <path d="M73.017 7.64822C73.2655 6.95822 73.3565 6.22142 73.2835 5.4917C73.2106 4.76198 72.9754 4.0578 72.5953 3.43066C71.9268 3.62275 71.3181 3.98154 70.8262 4.47336C70.3344 4.96517 69.9756 5.57389 69.7836 6.24237C69.5285 6.93464 69.4315 7.67517 69.4996 8.40977C69.5678 9.14437 69.7993 9.85445 70.1772 10.488C70.8517 10.2927 71.4658 9.92993 71.9624 9.43339C72.4589 8.93685 72.8217 8.32273 73.017 7.64822Z" fill="url(#paint2_linear_300:1804)"/>
    <path d="M65.995 11.6384C66.6206 11.8459 67.2928 11.8687 67.931 11.7042C68.5693 11.5396 69.1466 11.1947 69.5939 10.7106C69.4322 10.063 69.1106 9.4664 68.6587 8.97522C68.2068 8.48403 67.639 8.11397 67.0072 7.89886C66.385 7.68081 65.7126 7.64982 65.0729 7.80973C64.4333 7.96963 63.8546 8.31341 63.4082 8.79861C63.5609 9.45349 63.8788 10.0583 64.3317 10.5555C64.7845 11.0526 65.3571 11.4254 65.995 11.6384Z" fill="url(#paint3_linear_300:1804)"/>
    <path d="M71.7771 15.0704C71.4072 15.7868 71.1957 16.5744 71.1569 17.3797C71.1181 18.185 71.2529 18.9892 71.5522 19.7379C72.287 19.6506 72.9875 19.3776 73.5876 18.9447C74.1878 18.5119 74.6678 17.9333 74.9825 17.2636C75.3914 16.5349 75.6247 15.7209 75.6638 14.8862C75.7028 14.0515 75.5465 13.2192 75.2074 12.4556C74.4588 12.559 73.7497 12.8541 73.1487 13.3122C72.5477 13.7704 72.0752 14.376 71.7771 15.0704Z" fill="url(#paint4_linear_300:1804)"/>
    <path d="M66.7783 20.0753C67.3984 20.4352 68.1113 20.6033 68.827 20.5583C69.5426 20.5133 70.2289 20.2571 70.799 19.8222C70.7596 19.0629 70.5272 18.3261 70.1238 17.6816C69.7204 17.0371 69.1592 16.5061 68.4934 16.1389C67.8732 15.7789 67.1603 15.6108 66.4447 15.6558C65.729 15.7009 65.0428 15.957 64.4727 16.3919C64.512 17.1513 64.7444 17.8881 65.1478 18.5326C65.5513 19.1771 66.1124 19.7081 66.7783 20.0753Z" fill="url(#paint5_linear_300:1804)"/>
    <path d="M72.5436 29.1021C73.3353 29.2376 74.1492 29.1457 74.8907 28.8371C75.6323 28.5286 76.2711 28.016 76.733 27.3589C77.3064 26.6785 77.7201 25.8783 77.9439 25.0172C78.1677 24.156 78.1959 23.2557 78.0264 22.3822C77.2281 22.2543 76.41 22.3524 75.6646 22.6655C74.9192 22.9785 74.2764 23.494 73.8088 24.1535C73.2462 24.8341 72.8409 25.6307 72.6222 26.4862C72.4035 27.3417 72.3766 28.235 72.5436 29.1021Z" fill="url(#paint6_linear_300:1804)"/>
    <path d="M70.124 24.2358C69.5788 23.6735 68.8793 23.2853 68.1137 23.1201C67.348 22.955 66.5507 23.0203 65.8221 23.3079C65.716 24.1632 65.8078 25.0315 66.0906 25.8457C66.3733 26.6598 66.8394 27.3981 67.4529 28.0035C67.9939 28.5722 68.6936 28.9649 69.4609 29.1304C70.2282 29.2959 71.0275 29.2265 71.7548 28.9313C71.861 28.076 71.7692 27.2077 71.4864 26.3936C71.2036 25.5794 70.7375 24.8411 70.124 24.2358Z" fill="url(#paint7_linear_300:1804)"/>
    <path d="M73.1817 32.8128C72.5384 33.417 72.038 34.1571 71.717 34.9791C71.396 35.8011 71.2624 36.6844 71.326 37.5646C72.0808 37.8217 72.8938 37.855 73.6671 37.6604C74.4404 37.4658 75.1408 37.0517 75.6841 36.4681C76.334 35.8678 76.8408 35.1291 77.1669 34.3066C77.4929 33.4841 77.63 32.5989 77.5679 31.7163C76.8078 31.4673 75.9927 31.4381 75.2167 31.6321C74.4407 31.8261 73.7353 32.2354 73.1817 32.8128Z" fill="url(#paint8_linear_300:1804)"/>
    <path d="M70.5768 37.2828C70.805 36.4424 70.8348 35.5605 70.664 34.7067C70.4933 33.8528 70.1265 33.0503 69.5927 32.3623C69.1392 31.7166 68.5046 31.2198 67.769 30.9346C67.0334 30.6494 66.2297 30.5885 65.4595 30.7596C65.2391 31.6042 65.2184 32.4886 65.399 33.3426C65.5795 34.1967 65.9564 34.9969 66.4999 35.6801C66.9541 36.3101 67.58 36.7962 68.3029 37.0804C69.0258 37.3646 69.8151 37.4348 70.5768 37.2828Z" fill="url(#paint9_linear_300:1804)"/>
    <path d="M70.483 41.8946C69.6118 42.2428 68.8416 42.8033 68.2425 43.5252C67.6434 44.2471 67.2344 45.1074 67.0527 46.0278C67.6729 46.6312 68.4587 47.0363 69.3099 47.1916C70.1612 47.3468 71.0394 47.2451 71.8326 46.8995C72.6933 46.5438 73.4521 45.9799 74.041 45.2585C74.63 44.5371 75.0305 43.6807 75.2067 42.7663C74.5913 42.1742 73.8155 41.7759 72.9758 41.6209C72.136 41.466 71.2692 41.5612 70.483 41.8946Z" fill="url(#paint10_linear_300:1804)"/>
    <path d="M66.3745 45.3781C66.8692 44.5372 67.1757 43.599 67.2728 42.6281C67.3698 41.6573 67.2552 40.677 66.9369 39.7547C66.7012 38.8801 66.2351 38.0848 65.5872 37.4518C64.9393 36.8187 64.1334 36.3711 63.2535 36.1558C62.7553 36.9953 62.4468 37.9337 62.3496 38.9052C62.2525 39.8766 62.3691 40.8576 62.6912 41.7792C62.9269 42.6538 63.393 43.4491 64.0409 44.0822C64.6888 44.7152 65.4947 45.1628 66.3745 45.3781Z" fill="url(#paint11_linear_300:1804)"/>
    <path d="M65.202 49.8225C64.2434 50.2028 63.3944 50.8157 62.7318 51.606C62.0691 52.3962 61.6136 53.339 61.4062 54.3493C62.0846 55.0189 62.9477 55.4704 63.8846 55.6457C64.8216 55.8211 65.7895 55.7123 66.6641 55.3334C67.6208 54.942 68.467 54.3222 69.1287 53.5282C69.7904 52.7341 70.2475 51.79 70.4599 50.7785C69.7784 50.1136 68.9138 49.6673 67.9771 49.497C67.0403 49.3267 66.074 49.44 65.202 49.8225Z" fill="url(#paint12_linear_300:1804)"/>
    <path d="M61.2874 47.4044C61.0238 46.4444 60.5102 45.5715 59.7988 44.8749C59.0875 44.1784 58.2039 43.6832 57.2385 43.4399C56.6848 44.3665 56.3422 45.4037 56.2353 46.4778C56.1284 47.5519 56.2597 48.6363 56.6199 49.6538C56.8835 50.6139 57.3971 51.4868 58.1085 52.1833C58.8199 52.8798 59.7034 53.375 60.6688 53.6183C61.2225 52.6918 61.5651 51.6545 61.672 50.5804C61.7789 49.5064 61.6476 48.4219 61.2874 47.4044Z" fill="url(#paint13_linear_300:1804)"/>
    <path d="M13.5716 4.04897C13.9574 3.46215 14.2058 2.79583 14.2983 2.09967C14.3908 1.4035 14.325 0.695442 14.1058 0.0282386C13.4808 -0.0437171 12.8483 0.0666437 12.2846 0.346018C11.7208 0.625392 11.2499 1.06185 10.9286 1.60279C10.5621 2.19915 10.3362 2.87112 10.268 3.56775C10.1998 4.26439 10.2911 4.96741 10.535 5.62352C11.1382 5.6746 11.7435 5.55382 12.2809 5.27517C12.8183 4.99652 13.2658 4.57138 13.5716 4.04897Z" fill="url(#paint14_linear_300:1804)"/>
    <path d="M7.8964 10.5452C8.27434 9.91158 8.50583 9.2015 8.57394 8.4669C8.64205 7.7323 8.54505 6.99177 8.29003 6.29949C8.09794 5.63101 7.73916 5.0223 7.24734 4.53049C6.75553 4.03867 6.14681 3.67988 5.47833 3.48779C5.09818 4.11493 4.86302 4.81911 4.79005 5.54883C4.71707 6.27855 4.80814 7.01535 5.05658 7.70535C5.24948 8.38107 5.61149 8.99646 6.10839 9.49336C6.60528 9.99026 7.22067 10.3523 7.8964 10.5452Z" fill="url(#paint15_linear_300:1804)"/>
    <path d="M12.1459 11.6377C12.7803 11.4272 13.3507 11.0586 13.8032 10.5667C14.2558 10.0748 14.5756 9.47569 14.7326 8.82595C14.2862 8.34076 13.7075 7.99697 13.0679 7.83707C12.4283 7.67717 11.7558 7.70816 11.1336 7.92621C10.5018 8.14131 9.934 8.51138 9.48211 9.00256C9.03022 9.49375 8.70867 10.0904 8.54688 10.7379C8.99737 11.2171 9.57615 11.5567 10.2142 11.7163C10.8523 11.8758 11.5228 11.8485 12.1459 11.6377Z" fill="url(#paint16_linear_300:1804)"/>
    <path d="M6.57446 19.7379C6.87375 18.9892 7.00856 18.185 6.96975 17.3797C6.93094 16.5744 6.71941 15.7868 6.34952 15.0704C6.05145 14.376 5.57901 13.7704 4.97801 13.3122C4.37701 12.8541 3.66784 12.559 2.91925 12.4556C2.58011 13.2192 2.42385 14.0515 2.4629 14.8862C2.50195 15.7209 2.73523 16.5349 3.14418 17.2636C3.45887 17.9333 3.93891 18.5119 4.53904 18.9447C5.13918 19.3776 5.83966 19.6506 6.57446 19.7379Z" fill="url(#paint17_linear_300:1804)"/>
    <path d="M11.3215 20.0744C11.9952 19.7022 12.5614 19.1625 12.9653 18.5073C13.3693 17.8522 13.5972 17.1039 13.6271 16.3348C13.057 15.8999 12.3708 15.6438 11.6551 15.5987C10.9395 15.5537 10.2265 15.7218 9.60638 16.0817C8.94055 16.449 8.37939 16.9799 7.97595 17.6244C7.57252 18.269 7.34014 19.0057 7.30078 19.7651C7.86514 20.2087 8.54846 20.4749 9.2642 20.53C9.97995 20.5851 10.6959 20.4265 11.3215 20.0744Z" fill="url(#paint18_linear_300:1804)"/>
    <path d="M5.592 29.0983C5.76122 28.2293 5.73284 27.3333 5.50896 26.4767C5.28507 25.6201 4.87142 24.8248 4.29862 24.1497C3.83788 23.49 3.20027 22.9738 2.45913 22.6604C1.71798 22.347 0.903432 22.2493 0.109184 22.3783C-0.0603371 23.2518 -0.032161 24.1522 0.191645 25.0133C0.415451 25.8745 0.82921 26.6746 1.40257 27.3551C1.86447 28.0122 2.50329 28.5248 3.24486 28.8333C3.98642 29.1419 4.8003 29.2338 5.592 29.0983Z" fill="url(#paint19_linear_300:1804)"/>
    <path d="M6.38216 28.9313C7.10947 29.2265 7.90883 29.2959 8.67612 29.1304C9.44342 28.9649 10.1431 28.5722 10.6841 28.0035C11.2975 27.3981 11.7637 26.6598 12.0464 25.8457C12.3292 25.0315 12.421 24.1632 12.3149 23.3079C11.5863 23.0203 10.789 22.955 10.0233 23.1201C9.25771 23.2853 8.55816 23.6735 8.01295 24.2358C7.38481 24.8305 6.90879 25.5675 6.62498 26.3847C6.34118 27.2019 6.2579 28.0752 6.38216 28.9313Z" fill="url(#paint20_linear_300:1804)"/>
    <path d="M6.80613 37.5646C6.86616 36.6822 6.72816 35.7976 6.40221 34.9754C6.07626 34.1533 5.57062 33.4144 4.92229 32.8128C4.36871 32.2354 3.66329 31.8261 2.88726 31.6321C2.11124 31.4381 1.2962 31.4673 0.536032 31.7163C0.473965 32.5989 0.611033 33.4841 0.937105 34.3066C1.26318 35.1291 1.76992 35.8678 2.41987 36.4681C2.96547 37.0571 3.67083 37.4745 4.44977 37.6692C5.22871 37.864 6.04751 37.8276 6.80613 37.5646Z" fill="url(#paint21_linear_300:1804)"/>
    <path d="M11.696 35.6801C12.2394 34.9969 12.6163 34.1967 12.7969 33.3426C12.9775 32.4886 12.9567 31.6042 12.7363 30.7596C11.9661 30.5885 11.1625 30.6494 10.4269 30.9346C9.69126 31.2198 9.05664 31.7166 8.60314 32.3623C8.05491 33.043 7.67291 33.8421 7.48744 34.6962C7.30197 35.5504 7.31815 36.436 7.5347 37.2828C8.30905 37.4523 9.11614 37.3908 9.85588 37.1059C10.5956 36.821 11.2354 36.3252 11.696 35.6801Z" fill="url(#paint22_linear_300:1804)"/>
    <path d="M7.73184 41.8925C6.93507 41.5408 6.05118 41.4358 5.19419 41.5911C4.33719 41.7465 3.5464 42.1551 2.92383 42.7642C3.10815 43.6876 3.52139 44.5499 4.12564 45.272C4.7299 45.9942 5.50582 46.5531 6.38222 46.8974C7.17547 47.243 8.05366 47.3447 8.9049 47.1895C9.75615 47.0342 10.5419 46.6291 11.1621 46.0257C10.9805 45.1054 10.5715 44.245 9.97235 43.5231C9.37322 42.8012 8.603 42.2407 7.73184 41.8925Z" fill="url(#paint23_linear_300:1804)"/>
    <path d="M11.1862 39.7577C10.8621 40.679 10.7445 41.6602 10.8417 42.632C10.9388 43.6037 11.2484 44.5423 11.7485 45.3811C12.6279 45.1617 13.4317 44.7089 14.0751 44.0704C14.7185 43.432 15.1775 42.6317 15.4037 41.754C15.7358 40.8355 15.8602 39.8547 15.7678 38.8824C15.6754 37.91 15.3686 36.9702 14.8695 36.1306C13.9849 36.3456 13.1752 36.7964 12.5266 37.4351C11.8779 38.0739 11.4147 38.8765 11.1862 39.7577Z" fill="url(#paint24_linear_300:1804)"/>
    <path d="M16.6368 54.6262C17.2956 53.2029 15.842 51.1289 13.39 49.9938C10.938 48.8587 8.41622 49.0924 7.75738 50.5157C7.09854 51.939 8.55218 54.013 11.0042 55.1481C13.4561 56.2832 15.978 56.0495 16.6368 54.6262Z" fill="url(#paint25_linear_300:1804)"/>
    <path d="M16.8433 47.4044C16.4772 48.4209 16.3427 49.5063 16.4497 50.5813C16.5568 51.6564 16.9026 52.694 17.4619 53.6183C18.4221 53.3707 19.2998 52.8735 20.0059 52.1773C20.712 51.481 21.2215 50.6105 21.4826 49.6538C21.847 48.6383 21.983 47.555 21.881 46.481C21.7789 45.4069 21.4413 44.3686 20.8922 43.4399C19.9267 43.6832 19.0432 44.1784 18.3319 44.8749C17.6205 45.5715 17.1068 46.4444 16.8433 47.4044Z" fill="url(#paint26_linear_300:1804)"/>
    <path d="M44.0592 50.8086H33.2623C31.1925 50.821 29.1879 51.5335 27.5746 52.8303C25.9613 54.127 24.8344 55.9316 24.3773 57.9503L22.6903 65.5981C22.6016 66.0088 22.6061 66.4342 22.7034 66.8429C22.8007 67.2516 22.9884 67.6333 23.2526 67.96C23.5173 68.2862 23.8516 68.549 24.2312 68.729C24.6107 68.909 25.0257 69.0017 25.4458 69.0003H51.8758C52.2958 69.0017 52.7109 68.909 53.0904 68.729C53.4699 68.549 53.8043 68.2862 54.0689 67.96C54.3331 67.6333 54.5208 67.2516 54.6181 66.8429C54.7154 66.4342 54.7199 66.0088 54.6312 65.5981L52.9442 57.9503C52.4871 55.9316 51.3602 54.127 49.7469 52.8303C48.1337 51.5335 46.129 50.821 44.0592 50.8086Z" fill="url(#paint27_linear_300:1804)"/>
    <defs>
    <linearGradient id="paint0_linear_300:1804" x1="38.6548" y1="2.08081" x2="38.6548" y2="49.3381" gradientUnits="userSpaceOnUse">
    <stop stop-color="#FDC821"/>
    <stop offset="1" stop-color="#FFA412"/>
    </linearGradient>
    <linearGradient id="paint1_linear_300:1804" x1="65.8527" y1="0" x2="65.8527" y2="5.65562" gradientUnits="userSpaceOnUse">
    <stop stop-color="#FDC821"/>
    <stop offset="1" stop-color="#FFA412"/>
    </linearGradient>
    <linearGradient id="paint2_linear_300:1804" x1="71.3932" y1="3.43066" x2="71.3932" y2="10.488" gradientUnits="userSpaceOnUse">
    <stop stop-color="#FDC821"/>
    <stop offset="1" stop-color="#FFA412"/>
    </linearGradient>
    <linearGradient id="paint3_linear_300:1804" x1="66.5011" y1="7.70898" x2="66.5011" y2="11.8128" gradientUnits="userSpaceOnUse">
    <stop stop-color="#FDC821"/>
    <stop offset="1" stop-color="#FFA412"/>
    </linearGradient>
    <linearGradient id="paint4_linear_300:1804" x1="73.41" y1="12.4556" x2="73.41" y2="19.7379" gradientUnits="userSpaceOnUse">
    <stop stop-color="#FDC821"/>
    <stop offset="1" stop-color="#FFA412"/>
    </linearGradient>
    <linearGradient id="paint5_linear_300:1804" x1="67.6358" y1="15.6487" x2="67.6358" y2="20.5655" gradientUnits="userSpaceOnUse">
    <stop stop-color="#FDC821"/>
    <stop offset="1" stop-color="#FFA412"/>
    </linearGradient>
    <linearGradient id="paint6_linear_300:1804" x1="75.2856" y1="22.3276" x2="75.2856" y2="29.163" gradientUnits="userSpaceOnUse">
    <stop stop-color="#FDC821"/>
    <stop offset="1" stop-color="#FFA412"/>
    </linearGradient>
    <linearGradient id="paint7_linear_300:1804" x1="68.7885" y1="23.031" x2="68.7885" y2="29.2183" gradientUnits="userSpaceOnUse">
    <stop stop-color="#FDC821"/>
    <stop offset="1" stop-color="#FFA412"/>
    </linearGradient>
    <linearGradient id="paint8_linear_300:1804" x1="74.4465" y1="31.5054" x2="74.4465" y2="37.7853" gradientUnits="userSpaceOnUse">
    <stop stop-color="#FDC821"/>
    <stop offset="1" stop-color="#FFA412"/>
    </linearGradient>
    <linearGradient id="paint9_linear_300:1804" x1="68.0253" y1="30.6646" x2="68.0253" y2="37.3611" gradientUnits="userSpaceOnUse">
    <stop stop-color="#FDC821"/>
    <stop offset="1" stop-color="#FFA412"/>
    </linearGradient>
    <linearGradient id="paint10_linear_300:1804" x1="71.1297" y1="41.5486" x2="71.1297" y2="47.2623" gradientUnits="userSpaceOnUse">
    <stop stop-color="#FDC821"/>
    <stop offset="1" stop-color="#FFA412"/>
    </linearGradient>
    <linearGradient id="paint11_linear_300:1804" x1="64.8113" y1="36.1558" x2="64.8113" y2="45.3781" gradientUnits="userSpaceOnUse">
    <stop stop-color="#FDC821"/>
    <stop offset="1" stop-color="#FFA412"/>
    </linearGradient>
    <linearGradient id="paint12_linear_300:1804" x1="65.9331" y1="49.4199" x2="65.9331" y2="55.7273" gradientUnits="userSpaceOnUse">
    <stop stop-color="#FDC821"/>
    <stop offset="1" stop-color="#FFA412"/>
    </linearGradient>
    <linearGradient id="paint13_linear_300:1804" x1="58.9537" y1="43.4399" x2="58.9537" y2="53.6183" gradientUnits="userSpaceOnUse">
    <stop stop-color="#FDC821"/>
    <stop offset="1" stop-color="#FFA412"/>
    </linearGradient>
    <linearGradient id="paint14_linear_300:1804" x1="12.2925" y1="0.00683594" x2="12.2925" y2="5.63495" gradientUnits="userSpaceOnUse">
    <stop stop-color="#FDC821"/>
    <stop offset="1" stop-color="#FFA412"/>
    </linearGradient>
    <linearGradient id="paint15_linear_300:1804" x1="6.68035" y1="3.48779" x2="6.68035" y2="10.5452" gradientUnits="userSpaceOnUse">
    <stop stop-color="#FDC821"/>
    <stop offset="1" stop-color="#FFA412"/>
    </linearGradient>
    <linearGradient id="paint16_linear_300:1804" x1="11.6397" y1="7.73633" x2="11.6397" y2="11.8187" gradientUnits="userSpaceOnUse">
    <stop stop-color="#FDC821"/>
    <stop offset="1" stop-color="#FFA412"/>
    </linearGradient>
    <linearGradient id="paint17_linear_300:1804" x1="4.71665" y1="12.4556" x2="4.71665" y2="19.7379" gradientUnits="userSpaceOnUse">
    <stop stop-color="#FDC821"/>
    <stop offset="1" stop-color="#FFA412"/>
    </linearGradient>
    <linearGradient id="paint18_linear_300:1804" x1="10.4639" y1="15.5916" x2="10.4639" y2="20.5407" gradientUnits="userSpaceOnUse">
    <stop stop-color="#FDC821"/>
    <stop offset="1" stop-color="#FFA412"/>
    </linearGradient>
    <linearGradient id="paint19_linear_300:1804" x1="2.85043" y1="22.323" x2="2.85043" y2="29.1591" gradientUnits="userSpaceOnUse">
    <stop stop-color="#FDC821"/>
    <stop offset="1" stop-color="#FFA412"/>
    </linearGradient>
    <linearGradient id="paint20_linear_300:1804" x1="9.34193" y1="23.031" x2="9.34193" y2="29.2183" gradientUnits="userSpaceOnUse">
    <stop stop-color="#FDC821"/>
    <stop offset="1" stop-color="#FFA412"/>
    </linearGradient>
    <linearGradient id="paint21_linear_300:1804" x1="3.67065" y1="31.5054" x2="3.67065" y2="37.7927" gradientUnits="userSpaceOnUse">
    <stop stop-color="#FDC821"/>
    <stop offset="1" stop-color="#FFA412"/>
    </linearGradient>
    <linearGradient id="paint22_linear_300:1804" x1="10.139" y1="30.6646" x2="10.139" y2="37.3765" gradientUnits="userSpaceOnUse">
    <stop stop-color="#FDC821"/>
    <stop offset="1" stop-color="#FFA412"/>
    </linearGradient>
    <linearGradient id="paint23_linear_300:1804" x1="7.04297" y1="41.5212" x2="7.04297" y2="47.2602" gradientUnits="userSpaceOnUse">
    <stop stop-color="#FDC821"/>
    <stop offset="1" stop-color="#FFA412"/>
    </linearGradient>
    <linearGradient id="paint24_linear_300:1804" x1="13.303" y1="36.1306" x2="13.303" y2="45.3811" gradientUnits="userSpaceOnUse">
    <stop stop-color="#FDC821"/>
    <stop offset="1" stop-color="#FFA412"/>
    </linearGradient>
    <linearGradient id="paint25_linear_300:1804" x1="7.75738" y1="50.5157" x2="16.6369" y2="54.6259" gradientUnits="userSpaceOnUse">
    <stop stop-color="#FDC821"/>
    <stop offset="1" stop-color="#FFA412"/>
    </linearGradient>
    <linearGradient id="paint26_linear_300:1804" x1="19.164" y1="43.4399" x2="19.164" y2="53.6183" gradientUnits="userSpaceOnUse">
    <stop stop-color="#FDC821"/>
    <stop offset="1" stop-color="#FFA412"/>
    </linearGradient>
    <linearGradient id="paint27_linear_300:1804" x1="38.6608" y1="50.8086" x2="38.6608" y2="69.0003" gradientUnits="userSpaceOnUse">
    <stop stop-color="#FDC821"/>
    <stop offset="1" stop-color="#FFA412"/>
    </linearGradient>
    </defs>
</svg>
