<svg width="16" height="12" viewBox="0 0 16 12" fill="none" xmlns="http://www.w3.org/2000/svg">
  <path d="M15.1785 3.61402C14.9189 3.95506 14.6962 4.31774 14.5066 4.69568C14.4697 4.76694 14.434 4.83948 14.401 4.91074C13.598 6.61977 13.4071 8.56676 13.3893 9.91183C13.3867 10.0035 13.3867 10.0989 13.3867 10.1842C13.388 10.7263 13.416 11.1297 13.4364 11.3842H2.11838C2.13874 11.1297 2.16674 10.7263 2.16801 10.1842C2.16801 10.0989 2.16801 10.0073 2.16547 9.91565C2.14765 8.5693 1.9555 6.61086 1.14616 4.89802C1.11307 4.82548 1.07744 4.75295 1.04054 4.68041C0.850931 4.30756 0.630781 3.94997 0.375 3.61402C0.375 3.61402 2.82719 4.27701 4.28552 6.19855C4.28552 6.19855 5.89274 2.08697 7.77738 0C9.66201 2.08824 11.268 6.19855 11.268 6.19855C12.7263 4.27701 15.1785 3.61402 15.1785 3.61402Z" fill="#FCDB1C"/>
  <path d="M13.4359 11.3835H2.11914C2.1395 11.129 2.1675 10.7472 2.16877 10.2382H13.3888C13.3888 10.7472 13.4168 11.129 13.4359 11.3835Z" fill="#FEB50D"/>
  <path d="M9.3846 6.92854L7.72648 9.41382L7.64249 9.28784L6.06836 6.92854L7.64249 4.56925L7.72648 4.44327L9.3846 6.92854Z" fill="#FEB50D"/>
  <path d="M9.09102 6.92816L7.72813 8.97187L7.65941 8.86752L6.36523 6.92816L7.65941 4.98881L7.72813 4.88446L9.09102 6.92816Z" fill="#108728"/>
  <path d="M7.58908 6.43434C7.3982 6.82373 7.14497 7.09097 7.02535 7.03243C6.90573 6.97389 6.96299 6.60995 7.15387 6.22055C7.34475 5.83115 7.59799 5.56392 7.71761 5.62245C7.83723 5.68226 7.77996 6.04621 7.58908 6.43434Z" fill="#27C13D"/>
  <path d="M14.5103 4.69672C14.4734 4.76798 14.4377 4.84051 14.4047 4.91178C13.4999 5.45133 11.8939 6.49355 11.1062 7.52431L11.0337 7.61975L10.9917 7.50649C10.9764 7.46704 9.55373 3.71177 7.7849 1.68461C6.01861 3.71304 4.59972 7.46322 4.58318 7.50395L4.54246 7.61593L4.46993 7.52049C3.67586 6.48082 2.04828 5.4297 1.14859 4.89523C1.1155 4.8227 1.07987 4.75016 1.04297 4.6789C1.87648 5.16247 3.63132 6.25176 4.51955 7.34742C4.77279 6.69843 6.03642 3.31855 7.81798 1.48737V1.48991C9.34503 3.32237 10.8314 6.70097 11.0859 7.35124C11.9652 6.26449 13.6691 5.18665 14.5103 4.69672Z" fill="#DD9403"/>
  <path d="M2.16602 11.1287L2.85955 10.173L3.55181 11.1287H2.16602Z" fill="#FCDB1C"/>
  <path d="M3.56055 11.1278L4.25281 10.1721L4.94507 11.1278H3.56055Z" fill="#FCDB1C"/>
  <path d="M4.95117 11.1278L5.64343 10.1721L6.3357 11.1278H4.95117Z" fill="#FCDB1C"/>
  <path d="M6.34961 11.1278L7.04187 10.1721L7.73541 11.1278H6.34961Z" fill="#FCDB1C"/>
  <path d="M7.82031 11.1278L8.51258 10.1721L9.20484 11.1278H7.82031Z" fill="#FCDB1C"/>
  <path d="M9.27344 11.1278L9.9657 10.1721L10.658 11.1278H9.27344Z" fill="#FCDB1C"/>
  <path d="M10.668 11.1278L11.3602 10.1721L12.0538 11.1278H10.668Z" fill="#FCDB1C"/>
  <path d="M12.0625 11.1278L12.756 10.1721L13.4483 11.1278H12.0625Z" fill="#FCDB1C"/>
  <path d="M13.3872 9.85693C13.3847 9.98419 13.3847 10.1114 13.3847 10.2387H2.16465C2.16465 10.1114 2.16465 9.98419 2.16211 9.85693H13.3872Z" fill="#DD9403"/>
  <path d="M13.5355 11.1298H1.82812V11.8933H13.5355V11.1298Z" fill="#FEB50D"/>
  <path d="M13.5355 11.6399H1.82812V11.8944H13.5355V11.6399Z" fill="#FCDB1C"/>
  <path d="M13.5375 11.1288H1.83008V11.2561H13.5375V11.1288Z" fill="#DD9403"/>
  <path d="M11.202 9.97778L11.6538 9.90906L11.202 9.84162L11.1091 9.22571L11.0162 9.84162L10.5645 9.90906L11.0162 9.97778L11.1091 10.5924L11.202 9.97778Z" fill="white"/>
  <path d="M7.75668 5.86906L8.20844 5.80161L7.75668 5.73289L7.66379 5.11826L7.57089 5.73289L7.11914 5.80161L7.57089 5.86906L7.66379 6.48369L7.75668 5.86906Z" fill="white"/>
</svg>
