<svg width="52" height="72" viewBox="0 0 52 72" fill="none" xmlns="http://www.w3.org/2000/svg">
    <path d="M42.3342 56.5221L42.0613 56.7545L42.1937 57.0875L47.0045 69.1897C47.1287 69.7074 47.1005 70.1277 46.8489 70.4799L46.8342 70.5005L46.8216 70.5225C46.6218 70.8722 46.1989 71.0996 45.7484 71.0996H6.02944C5.61109 71.0996 5.22623 70.8961 4.92895 70.4799C4.65085 70.0906 4.59621 69.6642 4.76252 69.217C4.76306 69.2155 4.7636 69.2141 4.76414 69.2127L9.58416 57.0875L9.71657 56.7545L9.44365 56.5221C3.97278 51.8645 0.5 44.9168 0.5 37.2318C0.5 24.9647 9.21989 14.7637 20.8261 12.3981L21.6318 12.2339L21.1152 11.5941L14.4829 3.37895L14.4754 3.36972L14.4675 3.36085C14.0168 2.85373 13.9407 2.1704 14.2437 1.49667C14.5449 0.901303 15.1323 0.5 15.8273 0.5H35.9505C36.606 0.5 37.2435 0.85724 37.5303 1.48816L37.5341 1.49658L37.5383 1.50486C37.8168 2.06196 37.7159 2.83494 37.2919 3.38268L30.6626 11.5941L30.1461 12.2339L30.9518 12.3981C42.5579 14.7637 51.2778 24.9647 51.2778 37.2318C51.2778 44.9168 47.805 51.8645 42.3342 56.5221ZM35.5638 57.1692L35.7751 57.6804L36.2625 57.4187C40.4147 55.1888 43.8817 51.8021 46.0415 47.6366L46.2925 47.1526L45.7886 46.9444L40.136 44.608L39.7203 44.4361L39.5056 44.8315C38.1198 47.3844 36.0039 49.5003 33.451 50.8862L33.0556 51.1008L33.2274 51.5166L35.5638 57.1692ZM30.8663 49.1496L30.8704 49.1479C33.9991 47.8182 36.5095 45.3893 37.8435 42.1737C39.1777 39.033 39.1756 35.5026 37.8444 32.2921L37.8432 32.2893C35.7281 27.2757 30.946 24.2961 25.8512 24.2961C24.2029 24.2961 22.5532 24.6105 20.9068 25.316C17.7782 26.6458 15.2681 29.0747 13.9342 32.2901C12.6003 35.4303 12.6011 38.9634 14.0117 42.1783C15.342 45.3065 17.7711 47.8162 20.9869 49.1496C24.1996 50.4817 27.6536 50.4817 30.8663 49.1496ZM21.5551 52.2054L21.1177 52.0673L20.9424 52.4912L18.606 58.1438L18.3968 58.65L18.9199 58.8124C21.1492 59.5042 23.4602 59.89 25.8512 59.89C28.316 59.89 30.6286 59.5047 32.7874 58.8109L33.3036 58.6449L33.0964 58.1438L30.76 52.4912L30.5952 52.0925L30.1767 52.1972C28.6967 52.5672 27.3067 52.7852 25.8512 52.7852C24.3751 52.7852 22.9225 52.6373 21.5551 52.2054ZM46.7633 44.477L47.2539 44.6798L47.427 44.1779C48.198 41.9418 48.5858 39.6229 48.5094 37.2237C48.5086 34.762 48.1234 32.4521 47.4303 30.2957L47.2625 29.7736L46.758 29.9888L41.1054 32.4006L40.6983 32.5743L40.8214 32.9995C41.6238 35.7715 41.6248 38.691 40.8204 41.5428L40.6997 41.9707L41.1107 42.1406L46.7633 44.477ZM45.7886 27.5192L46.2925 27.3109L46.0415 26.827C43.8837 22.6655 40.4175 19.1993 36.2561 17.0415L35.7721 16.7905L35.5638 17.2944L33.2274 22.947L33.0577 23.3577L33.4456 23.5744C35.9305 24.9631 38.0477 27.0078 39.508 29.6363L39.7243 30.0258L40.136 29.8556L45.7886 27.5192ZM33.3256 3.93082L33.9789 3.11766H32.9358H18.7666H17.7235L18.3768 3.93082L25.4614 12.7489L25.8512 13.234L26.241 12.7489L33.3256 3.93082ZM28.3881 14.6515L28.1076 14.6234L27.9384 14.849L27.2704 15.7395C26.9153 16.1467 26.3819 16.3824 25.8512 16.3824C25.2544 16.3824 24.7914 16.1532 24.4321 15.7397L23.7641 14.849L23.5949 14.6234L23.3143 14.6515C21.7723 14.8057 20.3038 15.1144 18.91 15.579L18.3953 15.7506L18.6082 16.2496L21.02 21.9022L21.1925 22.3065L21.6156 22.1872C24.4687 21.3825 27.4621 21.3845 30.1555 22.1853L30.5877 22.3138L30.76 21.897L33.0964 16.2444L33.3013 15.7487L32.7925 15.579C31.3987 15.1144 29.9302 14.8057 28.3881 14.6515ZM16.1386 17.2944L15.9304 16.7905L15.4464 17.0415C11.2849 19.1993 7.81872 22.6655 5.66093 26.827L5.40997 27.3109L5.91381 27.5192L11.5664 29.8556L11.9822 30.0275L12.1968 29.6321C13.5827 27.0792 15.6986 24.9633 18.2515 23.5774L18.6469 23.3628L18.475 22.947L16.1386 17.2944ZM4.93918 29.9866L4.45392 29.786L4.27731 30.2805C3.50349 32.4472 3.11676 34.8432 3.19303 37.2399C3.19387 39.7016 3.57904 42.0115 4.27217 44.1679L4.43999 44.69L4.9444 44.4748L10.597 42.063L11.0042 41.8893L10.8811 41.4641C10.0783 38.691 10.0783 35.6973 10.8811 32.9241L11.0056 32.494L10.5918 32.323L4.93918 29.9866ZM5.91381 46.9444L5.40997 47.1526L5.66093 47.6366C7.82079 51.8021 11.2877 55.1888 15.44 57.4187L15.9273 57.6804L16.1386 57.1692L18.475 51.5166L18.6469 51.1008L18.2515 50.8862C15.6986 49.5003 13.5827 47.3844 12.1968 44.8315L11.9822 44.4361L11.5664 44.608L5.91381 46.9444ZM8.20253 67.6469L7.93117 68.3312H8.66732H43.0351H43.7713L43.4999 67.6469L40.033 58.9042L39.8123 58.3476L39.3039 58.6641C35.3814 61.1064 30.7991 62.583 25.8512 62.583C20.9033 62.583 16.3211 61.1064 12.3985 58.6641L11.8902 58.3476L11.6695 58.9042L8.20253 67.6469Z" fill="#C02AB3" stroke="#1A1A3A"/>
</svg>
