<svg width="37" height="48" viewBox="0 0 37 48" fill="none" xmlns="http://www.w3.org/2000/svg">
  <path d="M6.74647 20.5363C5.14963 20.5363 3.85513 21.8308 3.85513 23.4276V33.6176C3.85513 35.2144 5.14963 36.5089 6.74647 36.5089V36.5089C8.34332 36.5089 9.63782 35.2144 9.63782 33.6176V23.4276C9.63782 21.8308 8.34332 20.5363 6.74647 20.5363V20.5363ZM18.3118 20.5363C16.715 20.5363 15.4205 21.8308 15.4205 23.4276V33.6176C15.4205 35.2144 16.715 36.5089 18.3118 36.5089V36.5089C19.9087 36.5089 21.2032 35.2144 21.2032 33.6176V23.4276C21.2032 21.8308 19.9087 20.5363 18.3118 20.5363V20.5363ZM0 44.4953C0 46.3856 1.5324 47.918 3.42271 47.918H33.201C35.0913 47.918 36.6237 46.3856 36.6237 44.4953V44.4953C36.6237 42.6049 35.0913 41.0725 33.201 41.0725H3.42272C1.53241 41.0725 0 42.6049 0 44.4953V44.4953ZM29.8772 20.5363C28.2804 20.5363 26.9859 21.8308 26.9859 23.4276V33.6176C26.9859 35.2144 28.2804 36.5089 29.8772 36.5089V36.5089C31.4741 36.5089 32.7686 35.2144 32.7686 33.6176V23.4276C32.7686 21.8308 31.4741 20.5363 29.8772 20.5363V20.5363ZM20.9559 1.64733C19.3374 0.638963 17.2863 0.638962 15.6678 1.64733L1.38272 10.5475C0.522729 11.0834 0 12.0249 0 13.0382V13.0382C0 14.6588 1.31381 15.9727 2.93448 15.9727H33.6892C35.3099 15.9727 36.6237 14.6588 36.6237 13.0382V13.0382C36.6237 12.0249 36.101 11.0834 35.241 10.5475L20.9559 1.64733Z" fill="url(#paint0_linear_300:988)"/>
  <defs>
  <linearGradient id="paint0_linear_300:988" x1="0" y1="47.9179" x2="36.6237" y2="47.9179" gradientUnits="userSpaceOnUse">
  <stop stop-color="#610D89"/>
  <stop offset="1" stop-color="#C42BB4"/>
  </linearGradient>
  </defs>
</svg>
