<svg width="522" height="316" viewBox="0 0 522 316" fill="none" xmlns="http://www.w3.org/2000/svg">
<rect width="522" height="316" rx="10" fill="#20234E"/>
<rect x="0.5" y="0.5" width="521" height="315" rx="9.5" stroke="white" stroke-opacity="0.1"/>
<circle cx="67" cy="81" r="34" fill="#F75183"/>
<circle cx="67" cy="81" r="33" stroke="white" stroke-opacity="0.3" stroke-width="2"/>
<path d="M63.06 86.06C63.26 87.06 63.69 87.82 64.35 88.34C65.01 88.86 65.9 89.12 67.02 89.12C68.44 89.12 69.48 88.56 70.14 87.44C70.8 86.32 71.13 84.41 71.13 81.71C70.65 82.39 69.97 82.92 69.09 83.3C68.23 83.66 67.29 83.84 66.27 83.84C64.97 83.84 63.79 83.58 62.73 83.06C61.67 82.52 60.83 81.73 60.21 80.69C59.61 79.63 59.31 78.35 59.31 76.85C59.31 74.65 59.95 72.9 61.23 71.6C62.53 70.28 64.31 69.62 66.57 69.62C69.29 69.62 71.22 70.53 72.36 72.35C73.52 74.15 74.1 76.92 74.1 80.66C74.1 83.24 73.88 85.35 73.44 86.99C73.02 88.63 72.28 89.87 71.22 90.71C70.16 91.55 68.69 91.97 66.81 91.97C64.67 91.97 63.02 91.41 61.86 90.29C60.7 89.17 60.05 87.76 59.91 86.06H63.06ZM66.87 80.96C68.07 80.96 69.01 80.59 69.69 79.85C70.39 79.09 70.74 78.09 70.74 76.85C70.74 75.47 70.37 74.4 69.63 73.64C68.91 72.86 67.92 72.47 66.66 72.47C65.4 72.47 64.4 72.87 63.66 73.67C62.94 74.45 62.58 75.48 62.58 76.76C62.58 77.98 62.93 78.99 63.63 79.79C64.35 80.57 65.43 80.96 66.87 80.96Z" fill="white"/>
<circle cx="145" cy="81" r="34" fill="#9B51E0"/>
<circle cx="145" cy="81" r="33" stroke="white" stroke-opacity="0.3" stroke-width="2"/>
<path d="M141.35 73.25V70.13H147.59V92H144.14V73.25H141.35Z" fill="white"/>
<circle cx="223" cy="81" r="34" fill="#77BF3E"/>
<circle cx="223" cy="81" r="33" stroke="white" stroke-opacity="0.3" stroke-width="2"/>
<path d="M215.74 75.53C215.86 73.67 216.57 72.22 217.87 71.18C219.19 70.14 220.87 69.62 222.91 69.62C224.31 69.62 225.52 69.87 226.54 70.37C227.56 70.87 228.33 71.55 228.85 72.41C229.37 73.27 229.63 74.24 229.63 75.32C229.63 76.56 229.3 77.62 228.64 78.5C227.98 79.38 227.19 79.97 226.27 80.27V80.39C227.45 80.75 228.37 81.41 229.03 82.37C229.69 83.31 230.02 84.52 230.02 86C230.02 87.18 229.75 88.23 229.21 89.15C228.67 90.07 227.87 90.8 226.81 91.34C225.75 91.86 224.48 92.12 223 92.12C220.84 92.12 219.06 91.57 217.66 90.47C216.28 89.35 215.54 87.75 215.44 85.67H218.74C218.82 86.73 219.23 87.6 219.97 88.28C220.71 88.94 221.71 89.27 222.97 89.27C224.19 89.27 225.13 88.94 225.79 88.28C226.45 87.6 226.78 86.73 226.78 85.67C226.78 84.27 226.33 83.28 225.43 82.7C224.55 82.1 223.19 81.8 221.35 81.8H220.57V78.98H221.38C223 78.96 224.23 78.69 225.07 78.17C225.93 77.65 226.36 76.83 226.36 75.71C226.36 74.75 226.05 73.99 225.43 73.43C224.81 72.85 223.93 72.56 222.79 72.56C221.67 72.56 220.8 72.85 220.18 73.43C219.56 73.99 219.19 74.69 219.07 75.53H215.74Z" fill="white"/>
<circle cx="301" cy="81" r="34" fill="#21C2CC"/>
<circle cx="301" cy="81" r="33" stroke="white" stroke-opacity="0.3" stroke-width="2"/>
<path d="M304.56 75.2C304.34 74.28 303.94 73.59 303.36 73.13C302.78 72.67 301.97 72.44 300.93 72.44C299.35 72.44 298.17 73.05 297.39 74.27C296.61 75.47 296.2 77.47 296.16 80.27C296.68 79.39 297.44 78.71 298.44 78.23C299.44 77.75 300.52 77.51 301.68 77.51C303 77.51 304.16 77.8 305.16 78.38C306.18 78.94 306.97 79.76 307.53 80.84C308.11 81.92 308.4 83.21 308.4 84.71C308.4 86.11 308.12 87.36 307.56 88.46C307.02 89.56 306.21 90.43 305.13 91.07C304.05 91.69 302.75 92 301.23 92C299.17 92 297.55 91.55 296.37 90.65C295.21 89.73 294.39 88.44 293.91 86.78C293.45 85.12 293.22 83.05 293.22 80.57C293.22 73.25 295.8 69.59 300.96 69.59C302.96 69.59 304.53 70.13 305.67 71.21C306.83 72.29 307.51 73.62 307.71 75.2H304.56ZM300.93 80.39C299.71 80.39 298.67 80.76 297.81 81.5C296.97 82.22 296.55 83.27 296.55 84.65C296.55 86.03 296.94 87.13 297.72 87.95C298.52 88.75 299.63 89.15 301.05 89.15C302.31 89.15 303.3 88.76 304.02 87.98C304.76 87.2 305.13 86.16 305.13 84.86C305.13 83.5 304.77 82.42 304.05 81.62C303.35 80.8 302.31 80.39 300.93 80.39Z" fill="white"/>
<circle cx="379" cy="81" r="34" fill="#2E80EC"/>
<circle cx="379" cy="81" r="33" stroke="white" stroke-opacity="0.3" stroke-width="2"/>
<path d="M382.56 75.2C382.34 74.28 381.94 73.59 381.36 73.13C380.78 72.67 379.97 72.44 378.93 72.44C377.35 72.44 376.17 73.05 375.39 74.27C374.61 75.47 374.2 77.47 374.16 80.27C374.68 79.39 375.44 78.71 376.44 78.23C377.44 77.75 378.52 77.51 379.68 77.51C381 77.51 382.16 77.8 383.16 78.38C384.18 78.94 384.97 79.76 385.53 80.84C386.11 81.92 386.4 83.21 386.4 84.71C386.4 86.11 386.12 87.36 385.56 88.46C385.02 89.56 384.21 90.43 383.13 91.07C382.05 91.69 380.75 92 379.23 92C377.17 92 375.55 91.55 374.37 90.65C373.21 89.73 372.39 88.44 371.91 86.78C371.45 85.12 371.22 83.05 371.22 80.57C371.22 73.25 373.8 69.59 378.96 69.59C380.96 69.59 382.53 70.13 383.67 71.21C384.83 72.29 385.51 73.62 385.71 75.2H382.56ZM378.93 80.39C377.71 80.39 376.67 80.76 375.81 81.5C374.97 82.22 374.55 83.27 374.55 84.65C374.55 86.03 374.94 87.13 375.72 87.95C376.52 88.75 377.63 89.15 379.05 89.15C380.31 89.15 381.3 88.76 382.02 87.98C382.76 87.2 383.13 86.16 383.13 84.86C383.13 83.5 382.77 82.42 382.05 81.62C381.35 80.8 380.31 80.39 378.93 80.39Z" fill="white"/>
<circle cx="457" cy="81" r="34" fill="#ECAB2E"/>
<circle cx="457" cy="81" r="33" stroke="white" stroke-opacity="0.3" stroke-width="2"/>
<path d="M451.69 87.35C453.61 85.69 455.12 84.33 456.22 83.27C457.34 82.19 458.27 81.07 459.01 79.91C459.75 78.75 460.12 77.59 460.12 76.43C460.12 75.23 459.83 74.29 459.25 73.61C458.69 72.93 457.8 72.59 456.58 72.59C455.4 72.59 454.48 72.97 453.82 73.73C453.18 74.47 452.84 75.47 452.8 76.73H449.5C449.56 74.45 450.24 72.71 451.54 71.51C452.86 70.29 454.53 69.68 456.55 69.68C458.73 69.68 460.43 70.28 461.65 71.48C462.89 72.68 463.51 74.28 463.51 76.28C463.51 77.72 463.14 79.11 462.4 80.45C461.68 81.77 460.81 82.96 459.79 84.02C458.79 85.06 457.51 86.27 455.95 87.65L454.6 88.85H464.11V91.7H449.53V89.21L451.69 87.35Z" fill="white"/>
<path d="M82 24.3084C81.4739 24.9995 81.0226 25.7345 80.6384 26.5004C80.5636 26.6448 80.4914 26.7918 80.4243 26.9362C78.797 30.3997 78.4102 34.3453 78.3741 37.0712C78.3689 37.2569 78.3689 37.4503 78.3689 37.6231C78.3715 38.7217 78.4283 39.5392 78.4695 40.055H55.5331C55.5743 39.5392 55.631 38.7217 55.6336 37.6231C55.6336 37.4503 55.6336 37.2646 55.6285 37.0789C55.5924 34.3505 55.203 30.3816 53.5628 26.9104C53.4957 26.7635 53.4235 26.6165 53.3487 26.4695C52.9645 25.7139 52.5184 24.9892 52 24.3084C52 24.3084 56.9695 25.652 59.9249 29.5461C59.9249 29.5461 63.182 21.2137 67.0013 16.9844C70.8206 21.2163 74.0751 29.5461 74.0751 29.5461C77.0305 25.652 82 24.3084 82 24.3084Z" fill="#FCDB1C"/>
<path d="M78.469 40.0532H55.5352C55.5764 39.5374 55.6332 38.7637 55.6357 37.7322H78.3736C78.3736 38.7637 78.4304 39.5374 78.469 40.0532Z" fill="#FEB50D"/>
<path d="M70.2635 31.0236L66.9032 36.0601L66.733 35.8048L63.543 31.0236L66.733 26.2424L66.9032 25.9871L70.2635 31.0236Z" fill="#FEB50D"/>
<path d="M69.6665 31.024L66.9045 35.1657L66.7653 34.9542L64.1426 31.024L66.7653 27.0938L66.9045 26.8823L69.6665 31.024Z" fill="#108728"/>
<path d="M66.6225 30.0229C66.2357 30.8121 65.7225 31.3536 65.4801 31.235C65.2377 31.1164 65.3537 30.3788 65.7406 29.5897C66.1274 28.8006 66.6406 28.259 66.883 28.3776C67.1254 28.4988 67.0094 29.2364 66.6225 30.0229Z" fill="#27C13D"/>
<path d="M80.6418 26.5034C80.567 26.6478 80.4948 26.7948 80.4277 26.9393C78.5942 28.0327 75.3396 30.1448 73.7433 32.2337L73.5963 32.4271L73.5112 32.1976C73.4803 32.1176 70.5971 24.5074 67.0125 20.3992C63.433 24.51 60.5576 32.1099 60.524 32.1924L60.4415 32.4194L60.2945 32.2259C58.6853 30.119 55.3869 27.9889 53.5637 26.9057C53.4966 26.7587 53.4244 26.6117 53.3496 26.4673C55.0388 27.4473 58.595 29.6548 60.3951 31.8752C60.9083 30.56 63.4691 23.7105 67.0795 19.9995V20.0047C70.1742 23.7182 73.1863 30.5651 73.7021 31.8829C75.4841 29.6806 78.9372 27.4963 80.6418 26.5034Z" fill="#DD9403"/>
<path d="M55.627 39.5371L57.0324 37.6003L58.4353 39.5371H55.627Z" fill="#FCDB1C"/>
<path d="M58.4531 39.5371L59.856 37.6003L61.2589 39.5371H58.4531Z" fill="#FCDB1C"/>
<path d="M61.2754 39.5371L62.6783 37.6003L64.0812 39.5371H61.2754Z" fill="#FCDB1C"/>
<path d="M64.1016 39.5371L65.5045 37.6003L66.91 39.5371H64.1016Z" fill="#FCDB1C"/>
<path d="M67.0879 39.5371L68.4908 37.6003L69.8937 39.5371H67.0879Z" fill="#FCDB1C"/>
<path d="M70.0312 39.5371L71.4342 37.6003L72.8371 39.5371H70.0312Z" fill="#FCDB1C"/>
<path d="M72.8535 39.5371L74.2564 37.6003L75.6619 39.5371H72.8535Z" fill="#FCDB1C"/>
<path d="M75.6797 39.5371L77.0852 37.6003L78.4881 39.5371H75.6797Z" fill="#FCDB1C"/>
<path d="M78.3713 36.9587C78.3661 37.2166 78.3661 37.4745 78.3661 37.7324H55.6282C55.6282 37.4745 55.6282 37.2166 55.623 36.9587H78.3713Z" fill="#DD9403"/>
<path d="M78.6826 39.5369H54.957V41.0842H78.6826V39.5369Z" fill="#FEB50D"/>
<path d="M78.6826 40.5679H54.957V41.0836H78.6826V40.5679Z" fill="#FCDB1C"/>
<path d="M78.6826 39.5376H54.957V39.7955H78.6826V39.5376Z" fill="#DD9403"/>
<path d="M73.9444 37.2089L74.8599 37.0697L73.9444 36.933L73.7561 35.6848L73.5678 36.933L72.6523 37.0697L73.5678 37.2089L73.7561 38.4545L73.9444 37.2089Z" fill="white"/>
<path d="M66.96 28.878L67.8755 28.7413L66.96 28.602L66.7717 27.3564L66.5835 28.602L65.668 28.7413L66.5835 28.878L66.7717 30.1236L66.96 28.878Z" fill="white"/>
<path d="M160 24.3084C159.474 24.9995 159.023 25.7345 158.638 26.5004C158.564 26.6448 158.491 26.7918 158.424 26.9362C156.797 30.3997 156.41 34.3453 156.374 37.0712C156.369 37.2569 156.369 37.4503 156.369 37.6231C156.372 38.7217 156.428 39.5392 156.47 40.055H133.533C133.574 39.5392 133.631 38.7217 133.634 37.6231C133.634 37.4503 133.634 37.2646 133.628 37.0789C133.592 34.3505 133.203 30.3816 131.563 26.9104C131.496 26.7635 131.424 26.6165 131.349 26.4695C130.964 25.7139 130.518 24.9892 130 24.3084C130 24.3084 134.969 25.652 137.925 29.5461C137.925 29.5461 141.182 21.2137 145.001 16.9844C148.821 21.2163 152.075 29.5461 152.075 29.5461C155.031 25.652 160 24.3084 160 24.3084Z" fill="#FCDB1C"/>
<path d="M156.469 40.0532H133.535C133.576 39.5374 133.633 38.7637 133.636 37.7322H156.374C156.374 38.7637 156.43 39.5374 156.469 40.0532Z" fill="#FEB50D"/>
<path d="M148.264 31.0236L144.903 36.0601L144.733 35.8048L141.543 31.0236L144.733 26.2424L144.903 25.9871L148.264 31.0236Z" fill="#FEB50D"/>
<path d="M147.667 31.024L144.905 35.1657L144.765 34.9542L142.143 31.024L144.765 27.0938L144.905 26.8823L147.667 31.024Z" fill="#108728"/>
<path d="M144.623 30.0229C144.236 30.8121 143.722 31.3536 143.48 31.235C143.238 31.1164 143.354 30.3788 143.741 29.5897C144.127 28.8006 144.641 28.259 144.883 28.3776C145.125 28.4988 145.009 29.2364 144.623 30.0229Z" fill="#27C13D"/>
<path d="M158.642 26.5034C158.567 26.6478 158.495 26.7948 158.428 26.9393C156.594 28.0327 153.34 30.1448 151.743 32.2337L151.596 32.4271L151.511 32.1976C151.48 32.1176 148.597 24.5074 145.012 20.3992C141.433 24.51 138.558 32.1099 138.524 32.1924L138.442 32.4194L138.295 32.2259C136.685 30.119 133.387 27.9889 131.564 26.9057C131.497 26.7587 131.424 26.6117 131.35 26.4673C133.039 27.4473 136.595 29.6548 138.395 31.8752C138.908 30.56 141.469 23.7105 145.08 19.9995V20.0047C148.174 23.7182 151.186 30.5651 151.702 31.8829C153.484 29.6806 156.937 27.4963 158.642 26.5034Z" fill="#DD9403"/>
<path d="M133.627 39.5371L135.032 37.6003L136.435 39.5371H133.627Z" fill="#FCDB1C"/>
<path d="M136.453 39.5371L137.856 37.6003L139.259 39.5371H136.453Z" fill="#FCDB1C"/>
<path d="M139.275 39.5371L140.678 37.6003L142.081 39.5371H139.275Z" fill="#FCDB1C"/>
<path d="M142.102 39.5371L143.504 37.6003L144.91 39.5371H142.102Z" fill="#FCDB1C"/>
<path d="M145.088 39.5371L146.491 37.6003L147.894 39.5371H145.088Z" fill="#FCDB1C"/>
<path d="M148.031 39.5371L149.434 37.6003L150.837 39.5371H148.031Z" fill="#FCDB1C"/>
<path d="M150.854 39.5371L152.256 37.6003L153.662 39.5371H150.854Z" fill="#FCDB1C"/>
<path d="M153.68 39.5371L155.085 37.6003L156.488 39.5371H153.68Z" fill="#FCDB1C"/>
<path d="M156.371 36.9587C156.366 37.2166 156.366 37.4745 156.366 37.7324H133.628C133.628 37.4745 133.628 37.2166 133.623 36.9587H156.371Z" fill="#DD9403"/>
<path d="M156.683 39.5369H132.957V41.0842H156.683V39.5369Z" fill="#FEB50D"/>
<path d="M156.683 40.5679H132.957V41.0836H156.683V40.5679Z" fill="#FCDB1C"/>
<path d="M156.683 39.5376H132.957V39.7955H156.683V39.5376Z" fill="#DD9403"/>
<path d="M151.944 37.2089L152.86 37.0697L151.944 36.933L151.756 35.6848L151.568 36.933L150.652 37.0697L151.568 37.2089L151.756 38.4545L151.944 37.2089Z" fill="white"/>
<path d="M144.96 28.878L145.875 28.7413L144.96 28.602L144.772 27.3564L144.583 28.602L143.668 28.7413L144.583 28.878L144.772 30.1236L144.96 28.878Z" fill="white"/>
<path d="M238 24.3084C237.474 24.9995 237.023 25.7345 236.638 26.5004C236.564 26.6448 236.491 26.7918 236.424 26.9362C234.797 30.3997 234.41 34.3453 234.374 37.0712C234.369 37.2569 234.369 37.4503 234.369 37.6231C234.372 38.7217 234.428 39.5392 234.47 40.055H211.533C211.574 39.5392 211.631 38.7217 211.634 37.6231C211.634 37.4503 211.634 37.2646 211.628 37.0789C211.592 34.3505 211.203 30.3816 209.563 26.9104C209.496 26.7635 209.424 26.6165 209.349 26.4695C208.964 25.7139 208.518 24.9892 208 24.3084C208 24.3084 212.969 25.652 215.925 29.5461C215.925 29.5461 219.182 21.2137 223.001 16.9844C226.821 21.2163 230.075 29.5461 230.075 29.5461C233.031 25.652 238 24.3084 238 24.3084Z" fill="#FCDB1C"/>
<path d="M234.469 40.0532H211.535C211.576 39.5374 211.633 38.7637 211.636 37.7322H234.374C234.374 38.7637 234.43 39.5374 234.469 40.0532Z" fill="#FEB50D"/>
<path d="M226.264 31.0236L222.903 36.0601L222.733 35.8048L219.543 31.0236L222.733 26.2424L222.903 25.9871L226.264 31.0236Z" fill="#FEB50D"/>
<path d="M225.667 31.024L222.905 35.1657L222.765 34.9542L220.143 31.024L222.765 27.0938L222.905 26.8823L225.667 31.024Z" fill="#108728"/>
<path d="M222.623 30.0229C222.236 30.8121 221.722 31.3536 221.48 31.235C221.238 31.1164 221.354 30.3788 221.741 29.5897C222.127 28.8006 222.641 28.259 222.883 28.3776C223.125 28.4988 223.009 29.2364 222.623 30.0229Z" fill="#27C13D"/>
<path d="M236.642 26.5034C236.567 26.6478 236.495 26.7948 236.428 26.9393C234.594 28.0327 231.34 30.1448 229.743 32.2337L229.596 32.4271L229.511 32.1976C229.48 32.1176 226.597 24.5074 223.012 20.3992C219.433 24.51 216.558 32.1099 216.524 32.1924L216.442 32.4194L216.295 32.2259C214.685 30.119 211.387 27.9889 209.564 26.9057C209.497 26.7587 209.424 26.6117 209.35 26.4673C211.039 27.4473 214.595 29.6548 216.395 31.8752C216.908 30.56 219.469 23.7105 223.08 19.9995V20.0047C226.174 23.7182 229.186 30.5651 229.702 31.8829C231.484 29.6806 234.937 27.4963 236.642 26.5034Z" fill="#DD9403"/>
<path d="M211.627 39.5371L213.032 37.6003L214.435 39.5371H211.627Z" fill="#FCDB1C"/>
<path d="M214.453 39.5371L215.856 37.6003L217.259 39.5371H214.453Z" fill="#FCDB1C"/>
<path d="M217.275 39.5371L218.678 37.6003L220.081 39.5371H217.275Z" fill="#FCDB1C"/>
<path d="M220.102 39.5371L221.504 37.6003L222.91 39.5371H220.102Z" fill="#FCDB1C"/>
<path d="M223.088 39.5371L224.491 37.6003L225.894 39.5371H223.088Z" fill="#FCDB1C"/>
<path d="M226.031 39.5371L227.434 37.6003L228.837 39.5371H226.031Z" fill="#FCDB1C"/>
<path d="M228.854 39.5371L230.256 37.6003L231.662 39.5371H228.854Z" fill="#FCDB1C"/>
<path d="M231.68 39.5371L233.085 37.6003L234.488 39.5371H231.68Z" fill="#FCDB1C"/>
<path d="M234.371 36.9587C234.366 37.2166 234.366 37.4745 234.366 37.7324H211.628C211.628 37.4745 211.628 37.2166 211.623 36.9587H234.371Z" fill="#DD9403"/>
<path d="M234.683 39.5369H210.957V41.0842H234.683V39.5369Z" fill="#FEB50D"/>
<path d="M234.683 40.5679H210.957V41.0836H234.683V40.5679Z" fill="#FCDB1C"/>
<path d="M234.683 39.5376H210.957V39.7955H234.683V39.5376Z" fill="#DD9403"/>
<path d="M229.944 37.2089L230.86 37.0697L229.944 36.933L229.756 35.6848L229.568 36.933L228.652 37.0697L229.568 37.2089L229.756 38.4545L229.944 37.2089Z" fill="white"/>
<path d="M222.96 28.878L223.875 28.7413L222.96 28.602L222.772 27.3564L222.583 28.602L221.668 28.7413L222.583 28.878L222.772 30.1236L222.96 28.878Z" fill="white"/>
<path d="M316 24.3084C315.474 24.9995 315.023 25.7345 314.638 26.5004C314.564 26.6448 314.491 26.7918 314.424 26.9362C312.797 30.3997 312.41 34.3453 312.374 37.0712C312.369 37.2569 312.369 37.4503 312.369 37.6231C312.372 38.7217 312.428 39.5392 312.47 40.055H289.533C289.574 39.5392 289.631 38.7217 289.634 37.6231C289.634 37.4503 289.634 37.2646 289.628 37.0789C289.592 34.3505 289.203 30.3816 287.563 26.9104C287.496 26.7635 287.424 26.6165 287.349 26.4695C286.964 25.7139 286.518 24.9892 286 24.3084C286 24.3084 290.969 25.652 293.925 29.5461C293.925 29.5461 297.182 21.2137 301.001 16.9844C304.821 21.2163 308.075 29.5461 308.075 29.5461C311.031 25.652 316 24.3084 316 24.3084Z" fill="#FCDB1C"/>
<path d="M312.469 40.0532H289.535C289.576 39.5374 289.633 38.7637 289.636 37.7322H312.374C312.374 38.7637 312.43 39.5374 312.469 40.0532Z" fill="#FEB50D"/>
<path d="M304.264 31.0236L300.903 36.0601L300.733 35.8048L297.543 31.0236L300.733 26.2424L300.903 25.9871L304.264 31.0236Z" fill="#FEB50D"/>
<path d="M303.667 31.024L300.905 35.1657L300.765 34.9542L298.143 31.024L300.765 27.0938L300.905 26.8823L303.667 31.024Z" fill="#108728"/>
<path d="M300.623 30.0229C300.236 30.8121 299.722 31.3536 299.48 31.235C299.238 31.1164 299.354 30.3788 299.741 29.5897C300.127 28.8006 300.641 28.259 300.883 28.3776C301.125 28.4988 301.009 29.2364 300.623 30.0229Z" fill="#27C13D"/>
<path d="M314.642 26.5034C314.567 26.6478 314.495 26.7948 314.428 26.9393C312.594 28.0327 309.34 30.1448 307.743 32.2337L307.596 32.4271L307.511 32.1976C307.48 32.1176 304.597 24.5074 301.012 20.3992C297.433 24.51 294.558 32.1099 294.524 32.1924L294.442 32.4194L294.295 32.2259C292.685 30.119 289.387 27.9889 287.564 26.9057C287.497 26.7587 287.424 26.6117 287.35 26.4673C289.039 27.4473 292.595 29.6548 294.395 31.8752C294.908 30.56 297.469 23.7105 301.08 19.9995V20.0047C304.174 23.7182 307.186 30.5651 307.702 31.8829C309.484 29.6806 312.937 27.4963 314.642 26.5034Z" fill="#DD9403"/>
<path d="M289.627 39.5371L291.032 37.6003L292.435 39.5371H289.627Z" fill="#FCDB1C"/>
<path d="M292.453 39.5371L293.856 37.6003L295.259 39.5371H292.453Z" fill="#FCDB1C"/>
<path d="M295.275 39.5371L296.678 37.6003L298.081 39.5371H295.275Z" fill="#FCDB1C"/>
<path d="M298.102 39.5371L299.504 37.6003L300.91 39.5371H298.102Z" fill="#FCDB1C"/>
<path d="M301.088 39.5371L302.491 37.6003L303.894 39.5371H301.088Z" fill="#FCDB1C"/>
<path d="M304.031 39.5371L305.434 37.6003L306.837 39.5371H304.031Z" fill="#FCDB1C"/>
<path d="M306.854 39.5371L308.256 37.6003L309.662 39.5371H306.854Z" fill="#FCDB1C"/>
<path d="M309.68 39.5371L311.085 37.6003L312.488 39.5371H309.68Z" fill="#FCDB1C"/>
<path d="M312.371 36.9587C312.366 37.2166 312.366 37.4745 312.366 37.7324H289.628C289.628 37.4745 289.628 37.2166 289.623 36.9587H312.371Z" fill="#DD9403"/>
<path d="M312.683 39.5369H288.957V41.0842H312.683V39.5369Z" fill="#FEB50D"/>
<path d="M312.683 40.5679H288.957V41.0836H312.683V40.5679Z" fill="#FCDB1C"/>
<path d="M312.683 39.5376H288.957V39.7955H312.683V39.5376Z" fill="#DD9403"/>
<path d="M307.944 37.2089L308.86 37.0697L307.944 36.933L307.756 35.6848L307.568 36.933L306.652 37.0697L307.568 37.2089L307.756 38.4545L307.944 37.2089Z" fill="white"/>
<path d="M300.96 28.878L301.875 28.7413L300.96 28.602L300.772 27.3564L300.583 28.602L299.668 28.7413L300.583 28.878L300.772 30.1236L300.96 28.878Z" fill="white"/>
<path d="M394 24.3084C393.474 24.9995 393.023 25.7345 392.638 26.5004C392.564 26.6448 392.491 26.7918 392.424 26.9362C390.797 30.3997 390.41 34.3453 390.374 37.0712C390.369 37.2569 390.369 37.4503 390.369 37.6231C390.372 38.7217 390.428 39.5392 390.47 40.055H367.533C367.574 39.5392 367.631 38.7217 367.634 37.6231C367.634 37.4503 367.634 37.2646 367.628 37.0789C367.592 34.3505 367.203 30.3816 365.563 26.9104C365.496 26.7635 365.424 26.6165 365.349 26.4695C364.964 25.7139 364.518 24.9892 364 24.3084C364 24.3084 368.969 25.652 371.925 29.5461C371.925 29.5461 375.182 21.2137 379.001 16.9844C382.821 21.2163 386.075 29.5461 386.075 29.5461C389.031 25.652 394 24.3084 394 24.3084Z" fill="#FCDB1C"/>
<path d="M390.469 40.0532H367.535C367.576 39.5374 367.633 38.7637 367.636 37.7322H390.374C390.374 38.7637 390.43 39.5374 390.469 40.0532Z" fill="#FEB50D"/>
<path d="M382.264 31.0236L378.903 36.0601L378.733 35.8048L375.543 31.0236L378.733 26.2424L378.903 25.9871L382.264 31.0236Z" fill="#FEB50D"/>
<path d="M381.667 31.024L378.905 35.1657L378.765 34.9542L376.143 31.024L378.765 27.0938L378.905 26.8823L381.667 31.024Z" fill="#108728"/>
<path d="M378.623 30.0229C378.236 30.8121 377.722 31.3536 377.48 31.235C377.238 31.1164 377.354 30.3788 377.741 29.5897C378.127 28.8006 378.641 28.259 378.883 28.3776C379.125 28.4988 379.009 29.2364 378.623 30.0229Z" fill="#27C13D"/>
<path d="M392.642 26.5034C392.567 26.6478 392.495 26.7948 392.428 26.9393C390.594 28.0327 387.34 30.1448 385.743 32.2337L385.596 32.4271L385.511 32.1976C385.48 32.1176 382.597 24.5074 379.012 20.3992C375.433 24.51 372.558 32.1099 372.524 32.1924L372.442 32.4194L372.295 32.2259C370.685 30.119 367.387 27.9889 365.564 26.9057C365.497 26.7587 365.424 26.6117 365.35 26.4673C367.039 27.4473 370.595 29.6548 372.395 31.8752C372.908 30.56 375.469 23.7105 379.08 19.9995V20.0047C382.174 23.7182 385.186 30.5651 385.702 31.8829C387.484 29.6806 390.937 27.4963 392.642 26.5034Z" fill="#DD9403"/>
<path d="M367.627 39.5371L369.032 37.6003L370.435 39.5371H367.627Z" fill="#FCDB1C"/>
<path d="M370.453 39.5371L371.856 37.6003L373.259 39.5371H370.453Z" fill="#FCDB1C"/>
<path d="M373.275 39.5371L374.678 37.6003L376.081 39.5371H373.275Z" fill="#FCDB1C"/>
<path d="M376.102 39.5371L377.504 37.6003L378.91 39.5371H376.102Z" fill="#FCDB1C"/>
<path d="M379.088 39.5371L380.491 37.6003L381.894 39.5371H379.088Z" fill="#FCDB1C"/>
<path d="M382.031 39.5371L383.434 37.6003L384.837 39.5371H382.031Z" fill="#FCDB1C"/>
<path d="M384.854 39.5371L386.256 37.6003L387.662 39.5371H384.854Z" fill="#FCDB1C"/>
<path d="M387.68 39.5371L389.085 37.6003L390.488 39.5371H387.68Z" fill="#FCDB1C"/>
<path d="M390.371 36.9587C390.366 37.2166 390.366 37.4745 390.366 37.7324H367.628C367.628 37.4745 367.628 37.2166 367.623 36.9587H390.371Z" fill="#DD9403"/>
<path d="M390.683 39.5369H366.957V41.0842H390.683V39.5369Z" fill="#FEB50D"/>
<path d="M390.683 40.5679H366.957V41.0836H390.683V40.5679Z" fill="#FCDB1C"/>
<path d="M390.683 39.5376H366.957V39.7955H390.683V39.5376Z" fill="#DD9403"/>
<path d="M385.944 37.2089L386.86 37.0697L385.944 36.933L385.756 35.6848L385.568 36.933L384.652 37.0697L385.568 37.2089L385.756 38.4545L385.944 37.2089Z" fill="white"/>
<path d="M378.96 28.878L379.875 28.7413L378.96 28.602L378.772 27.3564L378.583 28.602L377.668 28.7413L378.583 28.878L378.772 30.1236L378.96 28.878Z" fill="white"/>
<path d="M472 24.3084C471.474 24.9995 471.023 25.7345 470.638 26.5004C470.564 26.6448 470.491 26.7918 470.424 26.9362C468.797 30.3997 468.41 34.3453 468.374 37.0712C468.369 37.2569 468.369 37.4503 468.369 37.6231C468.372 38.7217 468.428 39.5392 468.47 40.055H445.533C445.574 39.5392 445.631 38.7217 445.634 37.6231C445.634 37.4503 445.634 37.2646 445.628 37.0789C445.592 34.3505 445.203 30.3816 443.563 26.9104C443.496 26.7635 443.424 26.6165 443.349 26.4695C442.964 25.7139 442.518 24.9892 442 24.3084C442 24.3084 446.969 25.652 449.925 29.5461C449.925 29.5461 453.182 21.2137 457.001 16.9844C460.821 21.2163 464.075 29.5461 464.075 29.5461C467.031 25.652 472 24.3084 472 24.3084Z" fill="#FCDB1C"/>
<path d="M468.469 40.0532H445.535C445.576 39.5374 445.633 38.7637 445.636 37.7322H468.374C468.374 38.7637 468.43 39.5374 468.469 40.0532Z" fill="#FEB50D"/>
<path d="M460.264 31.0236L456.903 36.0601L456.733 35.8048L453.543 31.0236L456.733 26.2424L456.903 25.9871L460.264 31.0236Z" fill="#FEB50D"/>
<path d="M459.667 31.024L456.905 35.1657L456.765 34.9542L454.143 31.024L456.765 27.0938L456.905 26.8823L459.667 31.024Z" fill="#108728"/>
<path d="M456.623 30.0229C456.236 30.8121 455.722 31.3536 455.48 31.235C455.238 31.1164 455.354 30.3788 455.741 29.5897C456.127 28.8006 456.641 28.259 456.883 28.3776C457.125 28.4988 457.009 29.2364 456.623 30.0229Z" fill="#27C13D"/>
<path d="M470.642 26.5034C470.567 26.6478 470.495 26.7948 470.428 26.9393C468.594 28.0327 465.34 30.1448 463.743 32.2337L463.596 32.4271L463.511 32.1976C463.48 32.1176 460.597 24.5074 457.012 20.3992C453.433 24.51 450.558 32.1099 450.524 32.1924L450.442 32.4194L450.295 32.2259C448.685 30.119 445.387 27.9889 443.564 26.9057C443.497 26.7587 443.424 26.6117 443.35 26.4673C445.039 27.4473 448.595 29.6548 450.395 31.8752C450.908 30.56 453.469 23.7105 457.08 19.9995V20.0047C460.174 23.7182 463.186 30.5651 463.702 31.8829C465.484 29.6806 468.937 27.4963 470.642 26.5034Z" fill="#DD9403"/>
<path d="M445.627 39.5371L447.032 37.6003L448.435 39.5371H445.627Z" fill="#FCDB1C"/>
<path d="M448.453 39.5371L449.856 37.6003L451.259 39.5371H448.453Z" fill="#FCDB1C"/>
<path d="M451.275 39.5371L452.678 37.6003L454.081 39.5371H451.275Z" fill="#FCDB1C"/>
<path d="M454.102 39.5371L455.504 37.6003L456.91 39.5371H454.102Z" fill="#FCDB1C"/>
<path d="M457.088 39.5371L458.491 37.6003L459.894 39.5371H457.088Z" fill="#FCDB1C"/>
<path d="M460.031 39.5371L461.434 37.6003L462.837 39.5371H460.031Z" fill="#FCDB1C"/>
<path d="M462.854 39.5371L464.256 37.6003L465.662 39.5371H462.854Z" fill="#FCDB1C"/>
<path d="M465.68 39.5371L467.085 37.6003L468.488 39.5371H465.68Z" fill="#FCDB1C"/>
<path d="M468.371 36.9587C468.366 37.2166 468.366 37.4745 468.366 37.7324H445.628C445.628 37.4745 445.628 37.2166 445.623 36.9587H468.371Z" fill="#DD9403"/>
<path d="M468.683 39.5369H444.957V41.0842H468.683V39.5369Z" fill="#FEB50D"/>
<path d="M468.683 40.5679H444.957V41.0836H468.683V40.5679Z" fill="#FCDB1C"/>
<path d="M468.683 39.5376H444.957V39.7955H468.683V39.5376Z" fill="#DD9403"/>
<path d="M463.944 37.2089L464.86 37.0697L463.944 36.933L463.756 35.6848L463.568 36.933L462.652 37.0697L463.568 37.2089L463.756 38.4545L463.944 37.2089Z" fill="white"/>
<path d="M456.96 28.878L457.875 28.7413L456.96 28.602L456.772 27.3564L456.583 28.602L455.668 28.7413L456.583 28.878L456.772 30.1236L456.96 28.878Z" fill="white"/>
<rect x="51" y="134" width="440" height="71" rx="8" fill="#20234E"/>
<rect x="51.5" y="134.5" width="439" height="70" rx="7.5" stroke="#9B51E0" stroke-opacity="0.3"/>
<circle cx="55.5" cy="169.5" r="24.5" fill="#2A2E60" stroke="#1A1A3A" stroke-width="4"/>
<path d="M57.892 173.444H52.654L51.754 176H49.612L54.094 163.472H56.47L60.952 176H58.792L57.892 173.444ZM57.316 171.77L55.282 165.956L53.23 171.77H57.316Z" fill="white"/>
<rect opacity="0.4" x="83.5" y="152.5" width="183" height="33" rx="16.5" fill="#9B51E0" stroke="white"/>
<path d="M104.242 172.842C104.382 173.542 104.683 174.074 105.145 174.438C105.607 174.802 106.23 174.984 107.014 174.984C108.008 174.984 108.736 174.592 109.198 173.808C109.66 173.024 109.891 171.687 109.891 169.797C109.555 170.273 109.079 170.644 108.463 170.91C107.861 171.162 107.203 171.288 106.489 171.288C105.579 171.288 104.753 171.106 104.011 170.742C103.269 170.364 102.681 169.811 102.247 169.083C101.827 168.341 101.617 167.445 101.617 166.395C101.617 164.855 102.065 163.63 102.961 162.72C103.871 161.796 105.117 161.334 106.699 161.334C108.603 161.334 109.954 161.971 110.752 163.245C111.564 164.505 111.97 166.444 111.97 169.062C111.97 170.868 111.816 172.345 111.508 173.493C111.214 174.641 110.696 175.509 109.954 176.097C109.212 176.685 108.183 176.979 106.867 176.979C105.369 176.979 104.214 176.587 103.402 175.803C102.59 175.019 102.135 174.032 102.037 172.842H104.242ZM106.909 169.272C107.749 169.272 108.407 169.013 108.883 168.495C109.373 167.963 109.618 167.263 109.618 166.395C109.618 165.429 109.359 164.68 108.841 164.148C108.337 163.602 107.644 163.329 106.762 163.329C105.88 163.329 105.18 163.609 104.662 164.169C104.158 164.715 103.906 165.436 103.906 166.332C103.906 167.186 104.151 167.893 104.641 168.453C105.145 168.999 105.901 169.272 106.909 169.272ZM163.371 163.875V161.691H167.739V177H165.324V163.875H163.371ZM230.991 165.471C231.075 164.169 231.572 163.154 232.482 162.426C233.406 161.698 234.582 161.334 236.01 161.334C236.99 161.334 237.837 161.509 238.551 161.859C239.265 162.209 239.804 162.685 240.168 163.287C240.532 163.889 240.714 164.568 240.714 165.324C240.714 166.192 240.483 166.934 240.021 167.55C239.559 168.166 239.006 168.579 238.362 168.789V168.873C239.188 169.125 239.832 169.587 240.294 170.259C240.756 170.917 240.987 171.764 240.987 172.8C240.987 173.626 240.798 174.361 240.42 175.005C240.042 175.649 239.482 176.16 238.74 176.538C237.998 176.902 237.109 177.084 236.073 177.084C234.561 177.084 233.315 176.699 232.335 175.929C231.369 175.145 230.851 174.025 230.781 172.569H233.091C233.147 173.311 233.434 173.92 233.952 174.396C234.47 174.858 235.17 175.089 236.052 175.089C236.906 175.089 237.564 174.858 238.026 174.396C238.488 173.92 238.719 173.311 238.719 172.569C238.719 171.589 238.404 170.896 237.774 170.49C237.158 170.07 236.206 169.86 234.918 169.86H234.372V167.886H234.939C236.073 167.872 236.934 167.683 237.522 167.319C238.124 166.955 238.425 166.381 238.425 165.597C238.425 164.925 238.208 164.393 237.774 164.001C237.34 163.595 236.724 163.392 235.926 163.392C235.142 163.392 234.533 163.595 234.099 164.001C233.665 164.393 233.406 164.883 233.322 165.471H230.991Z" fill="white"/>
<path d="M306.49 172.842C306.63 173.542 306.931 174.074 307.393 174.438C307.855 174.802 308.478 174.984 309.262 174.984C310.256 174.984 310.984 174.592 311.446 173.808C311.908 173.024 312.139 171.687 312.139 169.797C311.803 170.273 311.327 170.644 310.711 170.91C310.109 171.162 309.451 171.288 308.737 171.288C307.827 171.288 307.001 171.106 306.259 170.742C305.517 170.364 304.929 169.811 304.495 169.083C304.075 168.341 303.865 167.445 303.865 166.395C303.865 164.855 304.313 163.63 305.209 162.72C306.119 161.796 307.365 161.334 308.947 161.334C310.851 161.334 312.202 161.971 313 163.245C313.812 164.505 314.218 166.444 314.218 169.062C314.218 170.868 314.064 172.345 313.756 173.493C313.462 174.641 312.944 175.509 312.202 176.097C311.46 176.685 310.431 176.979 309.115 176.979C307.617 176.979 306.462 176.587 305.65 175.803C304.838 175.019 304.383 174.032 304.285 172.842H306.49ZM309.157 169.272C309.997 169.272 310.655 169.013 311.131 168.495C311.621 167.963 311.866 167.263 311.866 166.395C311.866 165.429 311.607 164.68 311.089 164.148C310.585 163.602 309.892 163.329 309.01 163.329C308.128 163.329 307.428 163.609 306.91 164.169C306.406 164.715 306.154 165.436 306.154 166.332C306.154 167.186 306.399 167.893 306.889 168.453C307.393 168.999 308.149 169.272 309.157 169.272ZM385.076 165.24C384.922 164.596 384.642 164.113 384.236 163.791C383.83 163.469 383.263 163.308 382.535 163.308C381.429 163.308 380.603 163.735 380.057 164.589C379.511 165.429 379.224 166.829 379.196 168.789C379.56 168.173 380.092 167.697 380.792 167.361C381.492 167.025 382.248 166.857 383.06 166.857C383.984 166.857 384.796 167.06 385.496 167.466C386.21 167.858 386.763 168.432 387.155 169.188C387.561 169.944 387.764 170.847 387.764 171.897C387.764 172.877 387.568 173.752 387.176 174.522C386.798 175.292 386.231 175.901 385.475 176.349C384.719 176.783 383.809 177 382.745 177C381.303 177 380.169 176.685 379.343 176.055C378.531 175.411 377.957 174.508 377.621 173.346C377.299 172.184 377.138 170.735 377.138 168.999C377.138 163.875 378.944 161.313 382.556 161.313C383.956 161.313 385.055 161.691 385.853 162.447C386.665 163.203 387.141 164.134 387.281 165.24H385.076ZM382.535 168.873C381.681 168.873 380.953 169.132 380.351 169.65C379.763 170.154 379.469 170.889 379.469 171.855C379.469 172.821 379.742 173.591 380.288 174.165C380.848 174.725 381.625 175.005 382.619 175.005C383.501 175.005 384.194 174.732 384.698 174.186C385.216 173.64 385.475 172.912 385.475 172.002C385.475 171.05 385.223 170.294 384.719 169.734C384.229 169.16 383.501 168.873 382.535 168.873ZM451.646 173.745C452.99 172.583 454.047 171.631 454.817 170.889C455.601 170.133 456.252 169.349 456.77 168.537C457.288 167.725 457.547 166.913 457.547 166.101C457.547 165.261 457.344 164.603 456.938 164.127C456.546 163.651 455.923 163.413 455.069 163.413C454.243 163.413 453.599 163.679 453.137 164.211C452.689 164.729 452.451 165.429 452.423 166.311H450.113C450.155 164.715 450.631 163.497 451.541 162.657C452.465 161.803 453.634 161.376 455.048 161.376C456.574 161.376 457.764 161.796 458.618 162.636C459.486 163.476 459.92 164.596 459.92 165.996C459.92 167.004 459.661 167.977 459.143 168.915C458.639 169.839 458.03 170.672 457.316 171.414C456.616 172.142 455.72 172.989 454.628 173.955L453.683 174.795H460.34V176.79H450.134V175.047L451.646 173.745Z" fill="white"/>
<rect x="51" y="214" width="440" height="71" rx="8" fill="#20234E"/>
<rect x="51.5" y="214.5" width="439" height="70" rx="7.5" stroke="#9B51E0" stroke-opacity="0.3"/>
<circle cx="55.5" cy="249.5" r="24.5" fill="#2A2E60" stroke="#1A1A3A" stroke-width="4"/>
<path d="M57.046 249.574C57.718 249.694 58.288 250.048 58.756 250.636C59.224 251.224 59.458 251.89 59.458 252.634C59.458 253.27 59.29 253.846 58.954 254.362C58.63 254.866 58.156 255.268 57.532 255.568C56.908 255.856 56.182 256 55.354 256H50.35V243.49H55.12C55.972 243.49 56.704 243.634 57.316 243.922C57.928 244.21 58.39 244.6 58.702 245.092C59.014 245.572 59.17 246.112 59.17 246.712C59.17 247.432 58.978 248.032 58.594 248.512C58.21 248.992 57.694 249.346 57.046 249.574ZM52.402 248.746H54.94C55.612 248.746 56.134 248.596 56.506 248.296C56.89 247.984 57.082 247.54 57.082 246.964C57.082 246.4 56.89 245.962 56.506 245.65C56.134 245.326 55.612 245.164 54.94 245.164H52.402V248.746ZM55.174 254.326C55.87 254.326 56.416 254.158 56.812 253.822C57.208 253.486 57.406 253.018 57.406 252.418C57.406 251.806 57.196 251.32 56.776 250.96C56.356 250.6 55.798 250.42 55.102 250.42H52.402V254.326H55.174Z" fill="white"/>
<rect opacity="0.4" x="144.5" y="233.5" width="330" height="33" rx="16.5" fill="#9B51E0" stroke="white"/>
<path d="M101.26 249.146C101.26 246.724 101.666 244.834 102.478 243.476C103.304 242.104 104.718 241.418 106.72 241.418C108.722 241.418 110.129 242.104 110.941 243.476C111.767 244.834 112.18 246.724 112.18 249.146C112.18 251.596 111.767 253.514 110.941 254.9C110.129 256.272 108.722 256.958 106.72 256.958C104.718 256.958 103.304 256.272 102.478 254.9C101.666 253.514 101.26 251.596 101.26 249.146ZM109.828 249.146C109.828 248.012 109.751 247.053 109.597 246.269C109.457 245.485 109.163 244.848 108.715 244.358C108.267 243.854 107.602 243.602 106.72 243.602C105.838 243.602 105.173 243.854 104.725 244.358C104.277 244.848 103.976 245.485 103.822 246.269C103.682 247.053 103.612 248.012 103.612 249.146C103.612 250.322 103.682 251.309 103.822 252.107C103.962 252.905 104.256 253.549 104.704 254.039C105.166 254.529 105.838 254.774 106.72 254.774C107.602 254.774 108.267 254.529 108.715 254.039C109.177 253.549 109.478 252.905 109.618 252.107C109.758 251.309 109.828 250.322 109.828 249.146ZM163.494 243.875V241.691H167.862V257H165.447V243.875H163.494ZM231.114 245.471C231.198 244.169 231.695 243.154 232.605 242.426C233.529 241.698 234.705 241.334 236.133 241.334C237.113 241.334 237.96 241.509 238.674 241.859C239.388 242.209 239.927 242.685 240.291 243.287C240.655 243.889 240.837 244.568 240.837 245.324C240.837 246.192 240.606 246.934 240.144 247.55C239.682 248.166 239.129 248.579 238.485 248.789V248.873C239.311 249.125 239.955 249.587 240.417 250.259C240.879 250.917 241.11 251.764 241.11 252.8C241.11 253.626 240.921 254.361 240.543 255.005C240.165 255.649 239.605 256.16 238.863 256.538C238.121 256.902 237.232 257.084 236.196 257.084C234.684 257.084 233.438 256.699 232.458 255.929C231.492 255.145 230.974 254.025 230.904 252.569H233.214C233.27 253.311 233.557 253.92 234.075 254.396C234.593 254.858 235.293 255.089 236.175 255.089C237.029 255.089 237.687 254.858 238.149 254.396C238.611 253.92 238.842 253.311 238.842 252.569C238.842 251.589 238.527 250.896 237.897 250.49C237.281 250.07 236.329 249.86 235.041 249.86H234.495V247.886H235.062C236.196 247.872 237.057 247.683 237.645 247.319C238.247 246.955 238.548 246.381 238.548 245.597C238.548 244.925 238.331 244.393 237.897 244.001C237.463 243.595 236.847 243.392 236.049 243.392C235.265 243.392 234.656 243.595 234.222 244.001C233.788 244.393 233.529 244.883 233.445 245.471H231.114ZM306.613 252.842C306.753 253.542 307.054 254.074 307.516 254.438C307.978 254.802 308.601 254.984 309.385 254.984C310.379 254.984 311.107 254.592 311.569 253.808C312.031 253.024 312.262 251.687 312.262 249.797C311.926 250.273 311.45 250.644 310.834 250.91C310.232 251.162 309.574 251.288 308.86 251.288C307.95 251.288 307.124 251.106 306.382 250.742C305.64 250.364 305.052 249.811 304.618 249.083C304.198 248.341 303.988 247.445 303.988 246.395C303.988 244.855 304.436 243.63 305.332 242.72C306.242 241.796 307.488 241.334 309.07 241.334C310.974 241.334 312.325 241.971 313.123 243.245C313.935 244.505 314.341 246.444 314.341 249.062C314.341 250.868 314.187 252.345 313.879 253.493C313.585 254.641 313.067 255.509 312.325 256.097C311.583 256.685 310.554 256.979 309.238 256.979C307.74 256.979 306.585 256.587 305.773 255.803C304.961 255.019 304.506 254.032 304.408 252.842H306.613ZM309.28 249.272C310.12 249.272 310.778 249.013 311.254 248.495C311.744 247.963 311.989 247.263 311.989 246.395C311.989 245.429 311.73 244.68 311.212 244.148C310.708 243.602 310.015 243.329 309.133 243.329C308.251 243.329 307.551 243.609 307.033 244.169C306.529 244.715 306.277 245.436 306.277 246.332C306.277 247.186 306.522 247.893 307.012 248.453C307.516 248.999 308.272 249.272 309.28 249.272ZM385.199 245.24C385.045 244.596 384.765 244.113 384.359 243.791C383.953 243.469 383.386 243.308 382.658 243.308C381.552 243.308 380.726 243.735 380.18 244.589C379.634 245.429 379.347 246.829 379.319 248.789C379.683 248.173 380.215 247.697 380.915 247.361C381.615 247.025 382.371 246.857 383.183 246.857C384.107 246.857 384.919 247.06 385.619 247.466C386.333 247.858 386.886 248.432 387.278 249.188C387.684 249.944 387.887 250.847 387.887 251.897C387.887 252.877 387.691 253.752 387.299 254.522C386.921 255.292 386.354 255.901 385.598 256.349C384.842 256.783 383.932 257 382.868 257C381.426 257 380.292 256.685 379.466 256.055C378.654 255.411 378.08 254.508 377.744 253.346C377.422 252.184 377.261 250.735 377.261 248.999C377.261 243.875 379.067 241.313 382.679 241.313C384.079 241.313 385.178 241.691 385.976 242.447C386.788 243.203 387.264 244.134 387.404 245.24H385.199ZM382.658 248.873C381.804 248.873 381.076 249.132 380.474 249.65C379.886 250.154 379.592 250.889 379.592 251.855C379.592 252.821 379.865 253.591 380.411 254.165C380.971 254.725 381.748 255.005 382.742 255.005C383.624 255.005 384.317 254.732 384.821 254.186C385.339 253.64 385.598 252.912 385.598 252.002C385.598 251.05 385.346 250.294 384.842 249.734C384.352 249.16 383.624 248.873 382.658 248.873ZM451.77 253.745C453.114 252.583 454.171 251.631 454.941 250.889C455.725 250.133 456.376 249.349 456.894 248.537C457.412 247.725 457.671 246.913 457.671 246.101C457.671 245.261 457.468 244.603 457.062 244.127C456.67 243.651 456.047 243.413 455.193 243.413C454.367 243.413 453.723 243.679 453.261 244.211C452.813 244.729 452.575 245.429 452.547 246.311H450.237C450.279 244.715 450.755 243.497 451.665 242.657C452.589 241.803 453.758 241.376 455.172 241.376C456.698 241.376 457.888 241.796 458.742 242.636C459.61 243.476 460.044 244.596 460.044 245.996C460.044 247.004 459.785 247.977 459.267 248.915C458.763 249.839 458.154 250.672 457.44 251.414C456.74 252.142 455.844 252.989 454.752 253.955L453.807 254.795H460.464V256.79H450.258V255.047L451.77 253.745Z" fill="white"/>
</svg>
