<svg width="53" height="70" viewBox="0 0 53 70" fill="none" xmlns="http://www.w3.org/2000/svg">
  <path d="M9.38672 12.5397V29.4628C9.38672 38.4981 16.9878 45.8124 26.3816 45.8124C35.7754 45.8124 43.3765 38.4981 43.3765 29.4628V12.5397H9.38672ZM30.3973 34.1239L26.3816 31.3273L22.3659 34.1239L23.8718 29.6063L19.9279 26.8096H24.8757L26.3816 22.292L27.8875 26.8096H32.8354L28.8197 29.6063L30.3973 34.1239Z" stroke="#C02AB3" stroke-width="3" stroke-miterlimit="10"/>
  <path d="M42.5156 15.3365H50.7621C50.547 16.5556 49.9016 22.4357 47.6069 25.0172C45.8142 26.9533 43.8064 27.9572 42.659 28.3875" stroke="#C02AB3" stroke-width="3" stroke-miterlimit="10"/>
  <path d="M10.2465 15.3365H2C2.21513 16.5556 2.8605 22.4357 5.15517 25.0172C6.94788 26.9533 8.95571 27.9572 10.103 28.3875" stroke="#C02AB3" stroke-width="3" stroke-miterlimit="10"/>
  <path d="M26.3086 45.8126V59.2938" stroke="#C02AB3" stroke-width="3" stroke-miterlimit="10"/>
  <path d="M32.1207 63.6692V63.1672C32.1207 61.016 30.3997 59.3667 28.3201 59.3667H24.5196C22.942 59.3667 21.5795 60.2989 21.0059 61.7331" stroke="#C02AB3" stroke-width="3" stroke-miterlimit="10"/>
  <path d="M20.9353 61.6608C20.7201 62.091 20.6484 62.593 20.6484 63.1666V63.6686" stroke="#C02AB3" stroke-width="3" stroke-miterlimit="10"/>
  <path d="M33.4101 63.5978H19.3552C17.204 63.5978 15.5547 65.3188 15.5547 67.3983V67.9003H37.354V67.3983C37.2823 65.3188 35.5613 63.5978 33.4101 63.5978Z" stroke="#C02AB3" stroke-width="3" stroke-miterlimit="10"/>
  <path d="M39.7958 4.86829H12.9769C12.6183 4.86829 11.3276 4.93999 10.3237 5.94391C9.53488 6.661 9.31976 7.5215 9.24805 7.88004H43.6681C43.5964 7.5215 43.3095 6.661 42.5924 5.94391C41.4451 4.93999 40.1544 4.86829 39.7958 4.86829Z" stroke="#C02AB3" stroke-width="3" stroke-miterlimit="10"/>
  <path d="M33.4848 5.80054C33.4848 3.721 31.7638 2 29.6843 2H23.0154C20.9358 2 19.2148 3.721 19.2148 5.80054" stroke="#C02AB3" stroke-width="3" stroke-miterlimit="10"/>
</svg>
