<svg width="61" height="70" viewBox="0 0 61 70" fill="none" xmlns="http://www.w3.org/2000/svg">
  <path d="M12.7248 3.50139e-06C14.1261 0.00139641 15.4955 0.418192 16.6599 1.1977C17.8243 1.97722 18.7315 3.08445 19.2668 4.37945C19.8021 5.67445 19.9414 7.09907 19.6672 8.47324C19.3929 9.84741 18.7175 11.1094 17.7261 12.0998C16.7348 13.0901 15.4721 13.7643 14.0977 14.0372C12.7232 14.3101 11.2987 14.1693 10.0043 13.6328C8.70981 13.0962 7.60348 12.1879 6.82512 11.0227C6.04677 9.8575 5.63133 8.48769 5.63133 7.08643C5.63133 6.15524 5.81486 5.23317 6.17143 4.37294C6.52799 3.51272 7.05061 2.73121 7.70939 2.07308C8.36817 1.41495 9.1502 0.893115 10.0108 0.537403C10.8714 0.181691 11.7936 -0.000922141 12.7248 3.50139e-06ZM41.3593 20.0406C41.3962 19.7104 41.3658 19.3761 41.2698 19.0579C41.1739 18.7398 41.0144 18.4444 40.8011 18.1896C40.5878 17.9348 40.325 17.7258 40.0287 17.5755C39.7324 17.4251 39.4086 17.3363 39.077 17.3146L20.255 16.103L17.1415 16.0466C17.0983 16.0458 17.0556 16.0549 17.0165 16.0732C16.9774 16.0915 16.9431 16.1186 16.9161 16.1523L13.239 20.738C13.1736 20.8269 13.0881 20.8991 12.9896 20.9488C12.8911 20.9986 12.7823 21.0245 12.672 21.0245C12.5616 21.0245 12.4528 20.9986 12.3543 20.9488C12.2558 20.8991 12.1704 20.8269 12.1049 20.738L8.39969 16.1523C8.37307 16.1177 8.33897 16.0896 8.29992 16.07C8.26088 16.0505 8.21792 16.0401 8.17427 16.0396H5.99763C5.15309 16.0391 4.31799 16.2172 3.54705 16.562C2.77611 16.9068 2.08674 17.4106 1.52409 18.0404C0.96144 18.6703 0.538222 19.4119 0.282166 20.2166C0.0261099 21.0214 -0.0570057 21.8712 0.0382655 22.7104L1.78522 35.8266C1.88872 36.7695 2.25349 37.6648 2.83844 38.4115C3.4234 39.1583 4.20528 39.7268 5.09597 40.0531L8.03339 66.99C8.10227 67.5541 8.37537 68.0733 8.80108 68.4497C9.22679 68.8261 9.77563 69.0336 10.3439 69.0328H14.993C15.5645 69.0329 16.116 68.8226 16.5422 68.4418C16.9684 68.0611 17.2394 67.5367 17.3035 66.9689L18.6771 54.3739L21.9667 23.5839C21.9749 23.5095 22.0091 23.4405 22.0632 23.389C22.1174 23.3374 22.188 23.3066 22.2626 23.3021L38.9361 22.2314C39.5322 22.2062 40.1006 21.9735 40.5432 21.5734C40.9857 21.1733 41.2744 20.6311 41.3593 20.0406ZM55.3702 58.0157L45.3815 68.0959C45.0881 68.3926 44.7387 68.6281 44.3536 68.7889C43.9685 68.9496 43.5553 69.0324 43.138 69.0324C42.7207 69.0324 42.3075 68.9496 41.9224 68.7889C41.5373 68.6281 41.1879 68.3926 40.8944 68.0959L30.941 58.0157C20.3748 47.3509 27.1865 28.8811 42.1764 28.1767C42.4958 28.1767 42.8151 28.1767 43.1345 28.1767C43.4538 28.1767 43.7731 28.1767 44.0925 28.1767C59.1177 28.8811 65.9294 47.3509 55.3702 58.0157ZM49.3333 49.1471C49.3333 46.6112 47.9808 45.0615 44.6278 43.8781C42.2328 42.9764 41.2466 42.3847 41.2466 41.4549C41.2466 40.666 41.8383 39.877 43.6698 39.877C44.5141 39.8744 45.3542 39.9955 46.1634 40.2363C46.3099 40.2791 46.4617 40.3004 46.6143 40.2997C47.0054 40.2915 47.3806 40.1434 47.6718 39.8821C47.9629 39.6209 48.1507 39.2639 48.201 38.8759C48.2513 38.488 48.1608 38.0949 47.9459 37.768C47.731 37.4411 47.406 37.2022 47.0299 37.0946C46.1888 36.8776 45.3268 36.7524 44.4588 36.7212V35.6294C44.3941 35.3109 44.2213 35.0246 43.9697 34.8189C43.7181 34.6133 43.4031 34.5009 43.0781 34.5009C42.7531 34.5009 42.4381 34.6133 42.1865 34.8189C41.9349 35.0246 41.7621 35.3109 41.6974 35.6294V36.9255C38.6825 37.5172 36.9356 39.4614 36.9356 41.941C36.9356 44.6741 38.9925 46.0829 42.0074 47.0973C44.1206 47.8017 44.9941 48.5061 44.9941 49.5486C44.9941 50.5912 43.8952 51.2956 42.2892 51.2956C41.2531 51.2893 40.2251 51.1132 39.2461 50.7743C39.0716 50.7142 38.8883 50.6832 38.7037 50.6828C38.3486 50.6791 38.0025 50.7943 37.7204 51.0101C37.4383 51.2258 37.2365 51.5296 37.1469 51.8732V52.0071C37.0448 52.4047 37.0961 52.8262 37.2906 53.1877C37.485 53.5492 37.8085 53.8243 38.1965 53.9583C39.2876 54.3052 40.4198 54.5065 41.5636 54.557V55.8532C41.5221 56.0578 41.5265 56.2691 41.5766 56.4718C41.6268 56.6744 41.7213 56.8635 41.8534 57.0251C41.9856 57.1868 42.152 57.317 42.3406 57.4065C42.5293 57.496 42.7355 57.5424 42.9443 57.5424C43.1531 57.5424 43.3592 57.496 43.5479 57.4065C43.7365 57.317 43.903 57.1868 44.0351 57.0251C44.1672 56.8635 44.2618 56.6744 44.3119 56.4718C44.362 56.2691 44.3665 56.0578 44.3249 55.8532V54.3598C47.5582 53.7963 49.3333 51.6549 49.3333 49.1471Z" fill="url(#paint0_linear_300:1146)"/>
  <defs>
  <linearGradient id="paint0_linear_300:1146" x1="30.2391" y1="0" x2="30.2391" y2="69.0328" gradientUnits="userSpaceOnUse">
  <stop stop-color="#FDC821"/>
  <stop offset="1" stop-color="#FFA412"/>
  </linearGradient>
  </defs>
</svg>
