<svg width="66" height="66" viewBox="0 0 66 66" fill="none" xmlns="http://www.w3.org/2000/svg">
  <path d="M65.7161 41.4789L34.9023 10.6716C34.5195 10.2889 33.8992 10.2889 33.5164 10.6716C32.5594 11.6286 31.0085 11.6286 30.0582 10.6716C29.1078 9.7147 29.1078 8.16378 30.0582 7.21343C30.4409 6.83065 30.4409 6.21028 30.0582 5.8275L24.521 0.290385C24.3362 0.105595 24.0855 0 23.8281 0C23.5707 0 23.3199 0.105595 23.1351 0.283785L0.287085 23.1318C-0.0956951 23.5146 -0.0956951 24.135 0.287085 24.5177L5.8242 30.0549C6.00899 30.2396 6.25978 30.3386 6.51716 30.3386C6.77455 30.3386 7.02534 30.233 7.21013 30.0549C7.6721 29.5929 8.28587 29.3355 8.93924 29.3355C9.59261 29.3355 10.2064 29.5929 10.6683 30.0549C11.1303 30.5168 11.3877 31.1306 11.3877 31.784C11.3877 32.4373 11.1303 33.0511 10.6683 33.5131C10.4836 33.6979 10.3846 33.9487 10.3846 34.206C10.3846 34.4634 10.4902 34.7142 10.6683 34.899L41.4756 65.7062C41.6604 65.891 41.9111 65.99 42.1685 65.99C42.4259 65.99 42.6767 65.8844 42.8615 65.7062L65.7095 42.8582C66.0923 42.482 66.0923 41.8616 65.7161 41.4789ZM42.1751 63.6339L12.6746 34.1334C13.1168 33.4405 13.3478 32.6287 13.3478 31.784C13.3478 30.9392 13.1102 30.134 12.668 29.4411L13.3544 28.7547C13.7372 28.3719 13.7372 27.7516 13.3544 27.3688C12.9716 26.986 12.3513 26.986 11.9685 27.3688L11.2821 28.0552C10.5892 27.613 9.784 27.3754 8.93924 27.3754C8.09448 27.3754 7.28932 27.613 6.58976 28.0486L2.36598 23.8248L23.8281 2.36268L28.0585 6.59306C27.1609 8.01859 27.1609 9.85329 28.0585 11.2788L27.3721 11.9652C26.9893 12.348 26.9893 12.9683 27.3721 13.3511C27.5635 13.5425 27.8143 13.6349 28.0651 13.6349C28.3158 13.6349 28.5666 13.5425 28.758 13.3511L29.4444 12.6647C30.8699 13.5623 32.7046 13.5623 34.1301 12.6647L63.6306 42.1652L42.1751 63.6339Z" fill="#C02AB3"/>
  <path d="M22.1578 18.571C21.775 18.1882 21.1547 18.1882 20.7719 18.571L18.5742 20.7687C18.1914 21.1515 18.1914 21.7719 18.5742 22.1546C18.7656 22.346 19.0164 22.4384 19.2672 22.4384C19.5179 22.4384 19.7687 22.346 19.9601 22.1546L22.1578 19.9569C22.5406 19.5742 22.5406 18.9538 22.1578 18.571Z" fill="#C02AB3"/>
  <path d="M23.6715 18.0439C23.9222 18.0439 24.173 17.9515 24.3644 17.7601L26.5621 15.5624C26.9449 15.1796 26.9449 14.5593 26.5621 14.1765C26.1793 13.7937 25.559 13.7937 25.1762 14.1765L22.9785 16.3742C22.5957 16.757 22.5957 17.3773 22.9785 17.7601C23.1699 17.9449 23.4207 18.0439 23.6715 18.0439Z" fill="#C02AB3"/>
  <path d="M16.3793 22.9741L14.1816 25.1718C13.7988 25.5546 13.7988 26.1749 14.1816 26.5577C14.373 26.7491 14.6238 26.8415 14.8746 26.8415C15.1254 26.8415 15.3762 26.7491 15.5675 26.5577L17.7652 24.36C18.148 23.9772 18.148 23.3569 17.7652 22.9741C17.3759 22.5913 16.7555 22.5913 16.3793 22.9741Z" fill="#C02AB3"/>
  <path d="M32.8114 34.9457C32.5078 35.1635 32.3494 35.5331 32.4088 35.8961C32.4682 36.2656 32.7322 36.5692 33.082 36.6748L36.7514 37.8166L37.8931 41.486C38.0053 41.8423 38.3089 42.1063 38.6719 42.1591C38.7247 42.1657 38.7775 42.1723 38.8237 42.1723C39.1405 42.1723 39.4375 42.0205 39.6223 41.7566L41.8397 38.6217L45.6807 38.6679C46.0503 38.6811 46.3935 38.4633 46.5651 38.1333C46.7367 37.8034 46.6971 37.4008 46.4793 37.1038L44.1826 34.0283L45.4168 30.3919C45.5355 30.0422 45.4432 29.6462 45.1792 29.3822C44.9152 29.1182 44.5258 29.0258 44.1694 29.1446L40.533 30.3787L37.4576 28.0821C37.1606 27.8577 36.758 27.8247 36.428 27.9963C36.098 28.1679 35.8868 28.511 35.8934 28.8806L35.9396 32.7216L32.8114 34.9457ZM37.4972 34.0283C37.7612 33.8436 37.9129 33.54 37.9129 33.2166L37.8799 30.8473L39.7806 32.2662C40.038 32.4576 40.3746 32.5104 40.6782 32.4114L42.9221 31.6525L42.1631 33.8964C42.0575 34.1999 42.1103 34.5365 42.3083 34.7939L43.7272 36.6946L41.358 36.6616C41.0346 36.6484 40.731 36.8134 40.5462 37.0774L39.1801 39.0111L38.4739 36.7474C38.3815 36.4372 38.1373 36.1996 37.8271 36.1006L35.5635 35.3945L37.4972 34.0283Z" fill="#C02AB3"/>
  <path d="M43.5423 39.7631C43.2453 39.5387 42.8427 39.5057 42.5127 39.6773C42.1828 39.8489 41.9716 40.1921 41.9782 40.5616L42.0244 44.4026L38.8895 46.6201C38.5859 46.8379 38.4276 47.2075 38.4869 47.5705C38.5463 47.9401 38.8103 48.2436 39.1601 48.3492L42.8295 49.491L43.9713 53.1604C44.0835 53.5168 44.387 53.7808 44.75 53.8336C44.8028 53.8402 44.8556 53.8468 44.9018 53.8468C45.2186 53.8468 45.5156 53.695 45.7004 53.431L47.9179 50.2961L51.7589 50.3423C52.1284 50.3555 52.4716 50.1378 52.6432 49.8078C52.8148 49.4778 52.7752 49.0752 52.5574 48.7782L50.2607 45.7028L51.4949 42.0664C51.6137 41.7166 51.5213 41.3206 51.2573 41.0566C50.9933 40.7926 50.6039 40.7002 50.2475 40.819L46.6111 42.0532L43.5423 39.7631ZM49.0068 43.3203L48.2478 45.5642C48.1422 45.8678 48.195 46.2044 48.393 46.4617L49.812 48.3624L47.4427 48.3294C47.1325 48.3228 46.8157 48.4812 46.6309 48.7452L45.2648 50.6789L44.5586 48.4152C44.4662 48.1051 44.2221 47.8675 43.9119 47.7685L41.6482 47.0623L43.5819 45.6962C43.8459 45.5114 43.9977 45.2078 43.9977 44.8844L43.9647 42.5151L45.8654 43.9341C46.1228 44.1255 46.4593 44.1783 46.7629 44.0793L49.0068 43.3203Z" fill="#C02AB3"/>
  <path d="M33.7476 24.3131C33.8664 23.9633 33.774 23.5673 33.51 23.3033C33.246 23.0393 32.8566 22.9469 32.5002 23.0657L28.8638 24.2999L25.7884 22.0032C25.4914 21.7788 25.0888 21.7458 24.7588 21.9174C24.4289 22.089 24.2177 22.4322 24.2243 22.8018L24.2705 26.6428L21.1356 28.8602C20.832 29.078 20.6736 29.4476 20.733 29.8106C20.7924 30.1802 21.0564 30.4838 21.4062 30.5894L25.0822 31.7377L26.224 35.4071C26.3362 35.7635 26.6397 36.0275 27.0027 36.0803C27.0555 36.0869 27.1083 36.0935 27.1545 36.0935C27.4713 36.0935 27.7683 35.9417 27.9531 35.6777L30.1706 32.5429L34.0116 32.5891C34.3877 32.6023 34.7243 32.3845 34.8959 32.0545C35.0675 31.7245 35.0279 31.3219 34.8101 31.0249L32.5134 27.9495L33.7476 24.3131ZM29.6822 30.5828C29.372 30.5762 29.0552 30.7345 28.8704 30.9985L27.5043 32.9322L26.7981 30.6686C26.7057 30.3584 26.4615 30.1208 26.1514 30.0218L23.8877 29.3156L25.8214 27.9495C26.0854 27.7647 26.2372 27.4611 26.2372 27.1377L26.2042 24.7685L28.1049 26.1874C28.3623 26.3788 28.6988 26.4316 29.0024 26.3326L31.2463 25.5736L30.4873 27.8175C30.3817 28.1211 30.4345 28.4577 30.6325 28.7151L32.0515 30.6158L29.6822 30.5828Z" fill="#C02AB3"/>
</svg>
