<svg width="17" height="12" viewBox="0 0 17 12" fill="none" xmlns="http://www.w3.org/2000/svg">
<path d="M0.948131 11.3776H11.3776C11.899 11.3776 12.3257 10.9509 12.3257 10.4294C12.3257 9.90797 11.899 9.48131 11.3776 9.48131H0.948131C0.426659 9.48131 0 9.90797 0 10.4294C0 10.9509 0.426659 11.3776 0.948131 11.3776ZM0.948131 6.63692H8.53318C9.05466 6.63692 9.48131 6.21026 9.48131 5.68879C9.48131 5.16732 9.05466 4.74066 8.53318 4.74066H0.948131C0.426659 4.74066 0 5.16732 0 5.68879C0 6.21026 0.426659 6.63692 0.948131 6.63692ZM0 0.948131C0 1.4696 0.426659 1.89626 0.948131 1.89626H11.3776C11.899 1.89626 12.3257 1.4696 12.3257 0.948131C12.3257 0.426659 11.899 0 11.3776 0H0.948131C0.426659 0 0 0.426659 0 0.948131ZM16.4027 8.41941L13.6721 5.68879L16.4027 2.95817C16.7724 2.5884 16.7724 1.99108 16.4027 1.6213C16.0329 1.25153 15.4356 1.25153 15.0658 1.6213L11.662 5.0251C11.2922 5.39487 11.2922 5.99219 11.662 6.36196L15.0658 9.76575C15.4356 10.1355 16.0329 10.1355 16.4027 9.76575C16.763 9.39598 16.7724 8.78918 16.4027 8.41941Z" fill="white"/>
</svg>
