<svg width="64" height="64" viewBox="0 0 64 64" fill="none" xmlns="http://www.w3.org/2000/svg">
<path d="M56.139 9.846H53.264C53.239 8.062 52.985 6.21 52.129 4.54C51.514 3.334 50.227 2.037 48.277 2.022C48.217 2.019 48.172 2 48.109 2C44.289 2 43.208 5.746 43.183 9.846H41.703C41.678 8.062 41.424 6.21 40.567 4.54C39.952 3.334 38.665 2.037 36.714 2.022C36.655 2.019 36.61 2 36.547 2C32.728 2 31.647 5.746 31.621 9.846H30.141C30.116 8.062 29.862 6.21 29.005 4.54C28.39 3.334 27.103 2.037 25.152 2.022C25.093 2.019 25.048 2 24.984 2C21.165 2 20.084 5.746 20.058 9.846H18.578C18.553 8.062 18.299 6.21 17.443 4.54C16.828 3.334 15.541 2.037 13.59 2.022C13.531 2.019 13.486 2 13.423 2C9.604 2 8.523 5.746 8.498 9.846H7.861C5.729 9.846 4 11.533 4 13.614V58.231C4 60.313 5.729 62 7.861 62H56.139C58.271 62 60 60.313 60 58.231V13.614C60 11.533 58.271 9.846 56.139 9.846ZM55.111 45.341V58.232C55.111 59.201 54.275 59.99 53.248 59.99H42.651C48.318 57.155 52.721 51.62 55.111 45.341ZM48.605 4.497C50.089 4.793 50.361 8.432 50.375 9.846H46.283C46.297 5.931 47.127 4.203 48.605 4.497ZM37.043 4.497C38.528 4.792 38.801 8.432 38.814 9.846H34.722C34.735 5.931 35.563 4.203 37.043 4.497ZM25.48 4.497C26.965 4.792 27.238 8.432 27.251 9.846H23.159C23.173 5.931 24.001 4.203 25.48 4.497ZM11.598 9.846C11.612 5.931 12.441 4.203 13.919 4.497C15.403 4.793 15.676 8.432 15.69 9.846H11.598ZM6 58.231V13.614C6 12.645 6.835 11.856 7.861 11.856H8.6C8.779 13.497 9.228 15.373 10.186 16.653C10.185 16.69 10.175 16.724 10.175 16.76C10.175 18.32 11.474 19.586 13.071 19.586C14.671 19.586 15.969 18.319 15.969 16.76C15.969 15.197 14.67 13.932 13.071 13.932C12.721 13.932 12.389 14.002 12.079 14.114C11.886 13.462 11.759 12.659 11.683 11.856H20.161C20.349 13.575 20.828 15.56 21.884 16.839C21.928 18.36 23.2 19.586 24.775 19.586C26.373 19.586 27.67 18.319 27.67 16.76C27.67 15.197 26.373 13.932 24.775 13.932C24.377 13.932 23.999 14.011 23.653 14.152C23.454 13.493 23.322 12.674 23.246 11.856H31.725C31.913 13.573 32.391 15.557 33.446 16.836C33.489 18.359 34.764 19.586 36.335 19.586C37.937 19.586 39.231 18.319 39.231 16.76C39.231 15.197 37.936 13.932 36.335 13.932C35.939 13.932 35.562 14.011 35.217 14.152C35.018 13.493 34.886 12.674 34.81 11.856H43.288C43.476 13.575 43.955 15.561 45.012 16.841C45.057 18.362 46.33 19.586 47.899 19.586C49.501 19.586 50.797 18.319 50.797 16.76C50.797 15.197 49.5 13.932 47.899 13.932C47.503 13.932 47.126 14.011 46.78 14.152C46.581 13.493 46.45 12.674 46.374 11.856H53.251C54.278 11.856 55.114 12.645 55.114 13.614V39.811C54.1816 41.3985 52.991 42.8193 51.591 44.015V41.822H8.697V44.617H50.83C48.25 46.544 44.657 47.987 39.666 47.987C39.666 48.77 39.633 49.503 39.582 50.208H30.143V53.003H39.231C38.612 56.379 37.433 58.602 36.377 59.989H7.861C6.835 59.989 6 59.2 6 58.231Z" fill="white"/>
<path d="M8.69678 25.051H51.5878V27.846H8.69678V25.051Z" fill="white"/>
<path d="M8.69678 33.437H51.5878V36.232H8.69678V33.437Z" fill="white"/>
</svg>
