<svg width="30" height="30" viewBox="0 0 30 30" fill="none" xmlns="http://www.w3.org/2000/svg">
<path d="M6.21378 20.906H0.956694C0.434251 20.906 0.00976562 21.3165 0.00976562 21.8218V29.0847C0.00976562 29.5899 0.434251 30.0005 0.956694 30.0005H6.21378C6.73623 30.0005 7.16071 29.5899 7.16071 29.0847V21.8218C7.16071 21.3165 6.73623 20.906 6.21378 20.906Z" fill="white"/>
<path d="M17.185 16.2943H11.9279C11.4054 16.2943 10.981 16.7048 10.981 17.2101V29.0834C10.981 29.5886 11.4054 29.9991 11.9279 29.9991H17.185C17.7074 29.9991 18.1319 29.5886 18.1319 29.0834V17.2101C18.1319 16.7048 17.7074 16.2943 17.185 16.2943Z" fill="white"/>
<path d="M28.1579 11.6533H22.9335C22.4111 11.6533 21.9866 12.0638 21.9866 12.5691V29.0528C21.9866 29.558 22.4111 29.9685 22.9335 29.9685H28.1906C28.713 29.9685 29.1375 29.558 29.1375 29.0528V12.6007C29.1375 12.0638 28.713 11.6533 28.1579 11.6533Z" fill="white"/>
<path d="M29.0403 0.316697L21.8241 0.000917755C21.073 -0.0306602 20.5506 0.758789 20.9098 1.42193L21.8894 3.15871L0.89367 14.3057C0.077352 14.7478 -0.249175 15.7583 0.207963 16.5478C0.665101 17.3372 1.70999 17.653 2.52631 17.2109L23.5547 6.03231L24.5342 7.7691C24.8934 8.43223 25.873 8.43223 26.2648 7.7691L29.8566 1.73771C30.2485 1.13772 29.7913 0.348275 29.0403 0.316697Z" fill="white"/>
</svg>
