<svg width="40" height="41" viewBox="0 0 40 41" fill="none" xmlns="http://www.w3.org/2000/svg">
<path d="M39.1014 7.39484H36.3032V4.596C36.3031 4.35769 36.2084 4.12916 36.0399 3.96065C35.8714 3.79215 35.6429 3.69745 35.4045 3.69739H32.6063V0.89861C32.6063 0.660303 32.5116 0.431773 32.3431 0.263264C32.1746 0.0947553 31.946 6.09716e-05 31.7077 0L0.89861 0C0.660303 6.09716e-05 0.431773 0.0947553 0.263264 0.263264C0.0947553 0.431773 6.09716e-05 0.660303 0 0.89861L0 31.7077C6.09716e-05 31.946 0.0947553 32.1746 0.263264 32.3431C0.431773 32.5116 0.660303 32.6063 0.89861 32.6063H3.69742V35.404C3.69748 35.6423 3.79218 35.8708 3.96068 36.0393C4.12919 36.2079 4.35772 36.3025 4.59603 36.3026H7.39425V39.1026C7.39431 39.3409 7.48901 39.5694 7.65752 39.738C7.82603 39.9065 8.05456 40.0012 8.29287 40.0012H39.1014C39.3397 40.0012 39.5682 39.9065 39.7368 39.7379C39.9053 39.5694 40 39.3409 40 39.1026V8.29345C39.9999 8.05514 39.9052 7.82661 39.7367 7.6581C39.5682 7.48959 39.3397 7.3949 39.1014 7.39484ZM3.69742 4.596V30.8091H1.79723V1.79723H30.8091V3.69742H4.596C4.3577 3.69749 4.12919 3.79218 3.96068 3.96068C3.79218 4.12919 3.69749 4.3577 3.69742 4.596ZM7.39425 8.29345V34.5053H5.49465V5.49465H34.5059V7.39484H8.29287C8.05456 7.3949 7.82603 7.48959 7.65752 7.6581C7.48901 7.82661 7.39431 8.05514 7.39425 8.29345ZM38.2028 38.2039H9.19148V9.19207H38.2028V38.2039Z" fill="#B828AF"/>
<path d="M20.9653 21.8531H14.8584C14.6292 21.853 14.4094 21.7619 14.2473 21.5999C14.0853 21.4378 13.9942 21.218 13.9941 20.9888V15.5683C13.9942 15.3391 14.0853 15.1193 14.2473 14.9573C14.4094 14.7952 14.6292 14.7042 14.8584 14.7041H20.9653C21.1945 14.7042 21.4143 14.7952 21.5763 14.9573C21.7384 15.1193 21.8295 15.3391 21.8295 15.5683V20.9888C21.8295 21.218 21.7384 21.4378 21.5763 21.5999C21.4143 21.7619 21.1945 21.853 20.9653 21.8531ZM15.7226 20.1246H20.1011V16.4325H15.7226V20.1246Z" fill="#B828AF"/>
<path d="M32.5361 27.2725H14.8584C14.6292 27.2725 14.4093 27.1815 14.2473 27.0194C14.0852 26.8573 13.9941 26.6375 13.9941 26.4083C13.9941 26.1791 14.0852 25.9593 14.2473 25.7972C14.4093 25.6351 14.6292 25.5441 14.8584 25.5441H32.5361C32.7653 25.5441 32.9851 25.6351 33.1472 25.7972C33.3092 25.9593 33.4003 26.1791 33.4003 26.4083C33.4003 26.6375 33.3092 26.8573 33.1472 27.0194C32.9851 27.1815 32.7653 27.2725 32.5361 27.2725Z" fill="#B828AF"/>
<path d="M32.5361 32.6918H14.8584C14.6292 32.6918 14.4093 32.6008 14.2473 32.4387C14.0852 32.2766 13.9941 32.0568 13.9941 31.8276C13.9941 31.5984 14.0852 31.3786 14.2473 31.2165C14.4093 31.0544 14.6292 30.9634 14.8584 30.9634H32.5361C32.7653 30.9634 32.9851 31.0544 33.1472 31.2165C33.3092 31.3786 33.4003 31.5984 33.4003 31.8276C33.4003 32.0568 33.3092 32.2766 33.1472 32.4387C32.9851 32.6008 32.7653 32.6918 32.5361 32.6918Z" fill="#B828AF"/>
<path d="M32.5361 16.4325H26.4348C26.2056 16.4325 25.9858 16.3415 25.8237 16.1794C25.6616 16.0173 25.5706 15.7975 25.5706 15.5683C25.5706 15.3391 25.6616 15.1193 25.8237 14.9572C25.9858 14.7952 26.2056 14.7041 26.4348 14.7041H32.5361C32.7653 14.7041 32.9851 14.7952 33.1472 14.9572C33.3092 15.1193 33.4003 15.3391 33.4003 15.5683C33.4003 15.7975 33.3092 16.0173 33.1472 16.1794C32.9851 16.3415 32.7653 16.4325 32.5361 16.4325Z" fill="#B828AF"/>
<path d="M32.5361 21.8531H26.4348C26.2056 21.8531 25.9858 21.762 25.8237 21.5999C25.6616 21.4379 25.5706 21.2181 25.5706 20.9889C25.5706 20.7596 25.6616 20.5398 25.8237 20.3778C25.9858 20.2157 26.2056 20.1246 26.4348 20.1246H32.5361C32.6496 20.1246 32.7619 20.147 32.8668 20.1904C32.9717 20.2338 33.0669 20.2975 33.1472 20.3778C33.2274 20.458 33.2911 20.5533 33.3345 20.6581C33.3779 20.763 33.4003 20.8754 33.4003 20.9889C33.4003 21.1023 33.3779 21.2147 33.3345 21.3196C33.2911 21.4244 33.2274 21.5197 33.1472 21.5999C33.0669 21.6802 32.9717 21.7439 32.8668 21.7873C32.7619 21.8307 32.6496 21.8531 32.5361 21.8531Z" fill="#B828AF"/>
</svg>
