<svg width="32" height="32" viewBox="0 0 32 32" fill="none" xmlns="http://www.w3.org/2000/svg">
<path d="M20.6446 13.9355H19.0962V11.8709C19.0962 11.0496 18.7699 10.262 18.1892 9.68119C17.6084 9.10044 16.8207 8.77417 15.9994 8.77417C15.1781 8.77417 14.3904 9.10044 13.8097 9.68119C13.2289 10.262 12.9026 11.0496 12.9026 11.8709V13.9355H11.3543C11.2174 13.9355 11.0861 13.9898 10.9893 14.0866C10.8925 14.1834 10.8381 14.3147 10.8381 14.4516V21.6774C10.8381 21.8143 10.8925 21.9456 10.9893 22.0423C11.0861 22.1391 11.2174 22.1935 11.3543 22.1935H20.6446C20.7815 22.1935 20.9127 22.1391 21.0095 22.0423C21.1063 21.9456 21.1607 21.8143 21.1607 21.6774V14.4516C21.1607 14.3147 21.1063 14.1834 21.0095 14.0866C20.9127 13.9898 20.7815 13.9355 20.6446 13.9355ZM13.9349 11.8709C13.9349 11.3234 14.1524 10.7983 14.5396 10.4111C14.9268 10.0239 15.4519 9.80643 15.9994 9.80643C16.547 9.80643 17.0721 10.0239 17.4593 10.4111C17.8464 10.7983 18.0639 11.3234 18.0639 11.8709V13.9355H13.9349V11.8709ZM20.1284 21.1613H11.8704V14.9677H20.1284V21.1613Z" fill="#B928B0"/>
<path d="M16.5152 17.5483H15.4829V20.129H16.5152V17.5483Z" fill="#B928B0"/>
<path d="M30.4516 12.9032V7.66967C30.9381 7.54405 31.3621 7.2453 31.6442 6.82941C31.9262 6.41353 32.0468 5.90906 31.9835 5.41058C31.9202 4.9121 31.6773 4.45382 31.3002 4.12164C30.9232 3.78947 30.438 3.6062 29.9355 3.6062C29.433 3.6062 28.9477 3.78947 28.5707 4.12164C28.1937 4.45382 27.9507 4.9121 27.8874 5.41058C27.8241 5.90906 27.9447 6.41353 28.2268 6.82941C28.5088 7.2453 28.9328 7.54405 29.4193 7.66967V12.3871H25.9303C25.3996 10.9383 24.5595 9.62255 23.4685 8.53151C22.3774 7.44048 21.0617 6.60037 19.6129 6.06968V2.58065H22.2658C22.3914 3.06718 22.6902 3.4912 23.1061 3.77322C23.5219 4.05523 24.0264 4.17589 24.5249 4.11258C25.0234 4.04926 25.4816 3.80632 25.8138 3.42928C26.146 3.05225 26.3293 2.56701 26.3293 2.06452C26.3293 1.56203 26.146 1.07679 25.8138 0.699755C25.4816 0.32272 25.0234 0.0797756 24.5249 0.0164598C24.0264 -0.046856 23.5219 0.0738041 23.1061 0.355823C22.6902 0.637842 22.3914 1.06186 22.2658 1.54839H19.0968C18.9599 1.54839 18.8286 1.60277 18.7318 1.69956C18.635 1.79635 18.5806 1.92763 18.5806 2.06452V5.74968C17.7372 5.53419 16.8705 5.42325 16 5.41935C15.649 5.41935 15.3084 5.41935 14.9677 5.47097V3.09678C14.9677 2.95989 14.9134 2.82861 14.8166 2.73182C14.7198 2.63503 14.5885 2.58065 14.4516 2.58065H12.3148C12.1892 2.09411 11.8905 1.6701 11.4746 1.38808C11.0587 1.10606 10.5542 0.985401 10.0557 1.04872C9.55725 1.11203 9.09897 1.35498 8.7668 1.73201C8.43462 2.10905 8.25136 2.59429 8.25136 3.09678C8.25136 3.59927 8.43462 4.08451 8.7668 4.46154C9.09897 4.83858 9.55725 5.08152 10.0557 5.14484C10.5542 5.20815 11.0587 5.08749 11.4746 4.80547C11.8905 4.52345 12.1892 4.09944 12.3148 3.6129H13.9355V5.62581C12.1548 5.98414 10.4961 6.79419 9.11871 7.9782C7.74128 9.16221 6.69134 10.6804 6.06968 12.3871H2.58065V7.66967C3.06718 7.54405 3.4912 7.2453 3.77322 6.82941C4.05523 6.41353 4.17589 5.90906 4.11258 5.41058C4.04926 4.9121 3.80632 4.45382 3.42928 4.12164C3.05225 3.78947 2.56701 3.6062 2.06452 3.6062C1.56203 3.6062 1.07679 3.78947 0.699755 4.12164C0.32272 4.45382 0.0797756 4.9121 0.0164598 5.41058C-0.046856 5.90906 0.0738041 6.41353 0.355823 6.82941C0.637842 7.2453 1.06186 7.54405 1.54839 7.66967V12.9032C1.54839 13.0401 1.60277 13.1714 1.69956 13.2682C1.79635 13.365 1.92763 13.4193 2.06452 13.4193H5.74968C5.30922 15.1116 5.30922 16.8884 5.74968 18.5806H2.06452C1.92763 18.5806 1.79635 18.635 1.69956 18.7318C1.60277 18.8286 1.54839 18.9599 1.54839 19.0968V24.3303C1.06186 24.4559 0.637842 24.7547 0.355823 25.1706C0.0738041 25.5865 -0.046856 26.0909 0.0164598 26.5894C0.0797756 27.0879 0.32272 27.5462 0.699755 27.8783C1.07679 28.2105 1.56203 28.3938 2.06452 28.3938C2.56701 28.3938 3.05225 28.2105 3.42928 27.8783C3.80632 27.5462 4.04926 27.0879 4.11258 26.5894C4.17589 26.0909 4.05523 25.5865 3.77322 25.1706C3.4912 24.7547 3.06718 24.4559 2.58065 24.3303V19.6129H6.06968C6.66194 21.2339 7.64101 22.6858 8.92184 23.8425C10.2027 24.9993 11.7465 25.8258 13.4193 26.2503V29.4193H9.73419C9.60857 28.9328 9.30981 28.5088 8.89393 28.2268C8.47804 27.9447 7.97358 27.8241 7.47509 27.8874C6.97661 27.9507 6.51833 28.1937 6.18616 28.5707C5.85398 28.9477 5.67072 29.433 5.67072 29.9355C5.67072 30.438 5.85398 30.9232 6.18616 31.3002C6.51833 31.6773 6.97661 31.9202 7.47509 31.9835C7.97358 32.0468 8.47804 31.9262 8.89393 31.6442C9.30981 31.3621 9.60857 30.9381 9.73419 30.4516H13.9355C14.0724 30.4516 14.2036 30.3972 14.3004 30.3004C14.3972 30.2036 14.4516 30.0723 14.4516 29.9355V26.4568C14.9641 26.5347 15.4816 26.5761 16 26.5806C16.6933 26.5805 17.3849 26.5113 18.0645 26.3742V28.9032C18.0645 29.0401 18.1189 29.1714 18.2157 29.2682C18.3125 29.365 18.4437 29.4193 18.5806 29.4193H20.9755C21.1011 29.9059 21.3998 30.3299 21.8157 30.6119C22.2316 30.8939 22.7361 31.0146 23.2346 30.9513C23.733 30.8879 24.1913 30.645 24.5235 30.268C24.8557 29.8909 25.0389 29.4057 25.0389 28.9032C25.0389 28.4007 24.8557 27.9155 24.5235 27.5384C24.1913 27.1614 23.733 26.9185 23.2346 26.8551C22.7361 26.7918 22.2316 26.9125 21.8157 27.1945C21.3998 27.4765 21.1011 27.9005 20.9755 28.3871H19.0968V26.1161C20.6601 25.6324 22.0904 24.7938 23.2759 23.6656C24.4614 22.5374 25.3698 21.1504 25.9303 19.6129H29.4193V24.3303C28.9328 24.4559 28.5088 24.7547 28.2268 25.1706C27.9447 25.5865 27.8241 26.0909 27.8874 26.5894C27.9507 27.0879 28.1937 27.5462 28.5707 27.8783C28.9477 28.2105 29.433 28.3938 29.9355 28.3938C30.438 28.3938 30.9232 28.2105 31.3002 27.8783C31.6773 27.5462 31.9202 27.0879 31.9835 26.5894C32.0468 26.0909 31.9262 25.5865 31.6442 25.1706C31.3621 24.7547 30.9381 24.4559 30.4516 24.3303V19.0968C30.4516 18.9599 30.3972 18.8286 30.3004 18.7318C30.2036 18.635 30.0723 18.5806 29.9355 18.5806H26.2503C26.6908 16.8884 26.6908 15.1116 26.2503 13.4193H29.9355C30.0723 13.4193 30.2036 13.365 30.3004 13.2682C30.3972 13.1714 30.4516 13.0401 30.4516 12.9032ZM24.258 1.03226C24.4622 1.03226 24.6618 1.0928 24.8315 1.20623C25.0013 1.31965 25.1336 1.48087 25.2117 1.66949C25.2899 1.85811 25.3103 2.06566 25.2705 2.2659C25.2306 2.46614 25.1323 2.65007 24.988 2.79444C24.8436 2.9388 24.6597 3.03711 24.4594 3.07694C24.2592 3.11677 24.0516 3.09633 23.863 3.0182C23.6744 2.94007 23.5132 2.80776 23.3998 2.63801C23.2863 2.46826 23.2258 2.26868 23.2258 2.06452C23.2258 1.79075 23.3345 1.52819 23.5281 1.3346C23.7217 1.14102 23.9843 1.03226 24.258 1.03226ZM10.3226 4.12903C10.1184 4.12903 9.91884 4.06849 9.74908 3.95507C9.57933 3.84164 9.44702 3.68042 9.36889 3.4918C9.29077 3.30318 9.27032 3.09563 9.31015 2.89539C9.34998 2.69515 9.4483 2.51122 9.59266 2.36686C9.73702 2.2225 9.92095 2.12418 10.1212 2.08435C10.3214 2.04452 10.529 2.06497 10.7176 2.14309C10.9062 2.22122 11.0674 2.35353 11.1809 2.52328C11.2943 2.69304 11.3548 2.89262 11.3548 3.09678C11.3548 3.37055 11.2461 3.63311 11.0525 3.82669C10.8589 4.02028 10.5963 4.12903 10.3226 4.12903ZM1.03226 5.67742C1.03226 5.47326 1.0928 5.27368 1.20623 5.10393C1.31965 4.93417 1.48087 4.80187 1.66949 4.72374C1.85811 4.64561 2.06566 4.62517 2.2659 4.665C2.46614 4.70483 2.65007 4.80314 2.79444 4.9475C2.9388 5.09187 3.03711 5.2758 3.07694 5.47604C3.11677 5.67627 3.09633 5.88383 3.0182 6.07245C2.94007 6.26107 2.80776 6.42228 2.63801 6.53571C2.46826 6.64914 2.26868 6.70968 2.06452 6.70968C1.79075 6.70968 1.52819 6.60092 1.3346 6.40733C1.14102 6.21375 1.03226 5.95119 1.03226 5.67742ZM3.09678 26.3226C3.09678 26.5267 3.03624 26.7263 2.92281 26.8961C2.80938 27.0658 2.64817 27.1981 2.45955 27.2762C2.27093 27.3544 2.06337 27.3748 1.86314 27.335C1.6629 27.2952 1.47897 27.1968 1.3346 27.0525C1.19024 26.9081 1.09193 26.7242 1.0521 26.5239C1.01227 26.3237 1.03271 26.1162 1.11084 25.9275C1.18897 25.7389 1.32127 25.5777 1.49103 25.4643C1.66078 25.3508 1.86036 25.2903 2.06452 25.2903C2.33829 25.2903 2.60085 25.3991 2.79444 25.5926C2.98802 25.7862 3.09678 26.0488 3.09678 26.3226ZM7.74193 30.9677C7.53777 30.9677 7.3382 30.9072 7.16844 30.7938C6.99869 30.6803 6.86638 30.5191 6.78825 30.3305C6.71012 30.1419 6.68968 29.9343 6.72951 29.7341C6.76934 29.5338 6.86765 29.3499 7.01202 29.2055C7.15638 29.0612 7.34031 28.9629 7.54055 28.923C7.74079 28.8832 7.94834 28.9037 8.13696 28.9818C8.32558 29.0599 8.4868 29.1922 8.60022 29.362C8.71365 29.5317 8.77419 29.7313 8.77419 29.9355C8.77419 30.2092 8.66543 30.4718 8.47185 30.6654C8.27826 30.859 8.01571 30.9677 7.74193 30.9677ZM22.9677 27.8709C23.1719 27.8709 23.3715 27.9315 23.5412 28.0449C23.711 28.1583 23.8433 28.3196 23.9214 28.5082C23.9995 28.6968 24.02 28.9044 23.9801 29.1046C23.9403 29.3048 23.842 29.4888 23.6976 29.6331C23.5533 29.7775 23.3693 29.8758 23.1691 29.9156C22.9689 29.9555 22.7613 29.935 22.5727 29.8569C22.3841 29.7788 22.2229 29.6465 22.1094 29.4767C21.996 29.3069 21.9355 29.1074 21.9355 28.9032C21.9355 28.6294 22.0442 28.3669 22.2378 28.1733C22.4314 27.9797 22.694 27.8709 22.9677 27.8709ZM30.9677 26.3226C30.9677 26.5267 30.9072 26.7263 30.7938 26.8961C30.6803 27.0658 30.5191 27.1981 30.3305 27.2762C30.1419 27.3544 29.9343 27.3748 29.7341 27.335C29.5338 27.2952 29.3499 27.1968 29.2055 27.0525C29.0612 26.9081 28.9629 26.7242 28.923 26.5239C28.8832 26.3237 28.9037 26.1162 28.9818 25.9275C29.0599 25.7389 29.1922 25.5777 29.362 25.4643C29.5317 25.3508 29.7313 25.2903 29.9355 25.2903C30.2092 25.2903 30.4718 25.3991 30.6654 25.5926C30.859 25.7862 30.9677 26.0488 30.9677 26.3226ZM16 25.5484C14.1115 25.5484 12.2654 24.9884 10.6952 23.9392C9.12497 22.89 7.90113 21.3987 7.17844 19.654C6.45574 17.9093 6.26665 15.9894 6.63508 14.1372C7.00351 12.285 7.9129 10.5836 9.24827 9.24827C10.5836 7.9129 12.285 7.00351 14.1372 6.63508C15.9894 6.26665 17.9093 6.45574 19.654 7.17844C21.3987 7.90113 22.89 9.12497 23.9392 10.6952C24.9884 12.2654 25.5484 14.1115 25.5484 16C25.5456 18.5315 24.5388 20.9586 22.7487 22.7487C20.9586 24.5388 18.5315 25.5456 16 25.5484ZM28.9032 5.67742C28.9032 5.47326 28.9637 5.27368 29.0772 5.10393C29.1906 4.93417 29.3518 4.80187 29.5404 4.72374C29.7291 4.64561 29.9366 4.62517 30.1368 4.665C30.3371 4.70483 30.521 4.80314 30.6654 4.9475C30.8097 5.09187 30.9081 5.2758 30.9479 5.47604C30.9877 5.67627 30.9673 5.88383 30.8891 6.07245C30.811 6.26107 30.6787 6.42228 30.509 6.53571C30.3392 6.64914 30.1396 6.70968 29.9355 6.70968C29.6617 6.70968 29.3991 6.60092 29.2055 6.40733C29.012 6.21375 28.9032 5.95119 28.9032 5.67742Z" fill="#B928B0"/>
</svg>
