<svg width="44" height="25" viewBox="0 0 44 25" fill="none" xmlns="http://www.w3.org/2000/svg">
<path d="M8.58908 16.1182C11.609 16.1182 14.0651 13.6616 14.0651 10.6417C14.0651 7.62183 11.6085 5.16565 8.58908 5.16565C5.56971 5.16565 3.11255 7.62183 3.11255 10.6417C3.11255 13.6616 5.56922 16.1182 8.58908 16.1182ZM8.58908 7.46978C10.3383 7.46978 11.761 8.89245 11.761 10.6417C11.761 12.3909 10.3383 13.8136 8.58908 13.8136C6.83984 13.8136 5.41717 12.3905 5.41717 10.6417C5.41717 8.89294 6.83984 7.46978 8.58908 7.46978Z" fill="#BE29B2"/>
<path d="M2.30462 24.1776C2.30462 21.8246 4.21862 19.9106 6.57165 19.9106H10.6055C10.7262 19.9106 10.846 19.9155 10.9643 19.9257C11.2982 19.9546 11.6297 19.8426 11.8722 19.6197C12.1083 19.4021 12.2388 19.1049 12.2388 18.7827C12.2388 18.1951 11.7891 17.691 11.2141 17.6358C11.0137 17.6167 10.8108 17.6064 10.6055 17.6064H6.57165C2.948 17.606 0 20.554 0 24.1776V24.6513H2.30462V24.1776Z" fill="#BE29B2"/>
<path d="M12.647 24.6511H14.9516V21.814C14.9516 19.1545 17.1154 16.9907 19.7755 16.9907H24.2239C26.8834 16.9907 29.0477 19.1545 29.0477 21.814V24.6511H31.3524V21.814C31.3524 19.4082 30.1443 17.1794 28.1208 15.8525C26.9572 15.0894 25.6099 14.686 24.2244 14.686H19.776C17.5745 14.686 15.5285 15.6883 14.1625 17.4355C13.1716 18.7032 12.6479 20.2173 12.6479 21.814V24.6511H12.647Z" fill="#BE29B2"/>
<path d="M37.4287 17.6064H33.3949C33.2819 17.6064 33.17 17.6099 33.0585 17.6157C32.4371 17.65 31.9502 18.1569 31.9502 18.7705C31.9502 19.0873 32.0817 19.3928 32.3115 19.6094C32.5427 19.827 32.8454 19.936 33.1602 19.9179C33.2379 19.913 33.3162 19.9111 33.3949 19.9111H37.4287C39.7817 19.9111 41.6957 21.8251 41.6957 24.1781V24.6518H44.0003V24.1781C44.0003 20.5544 41.0523 17.6064 37.4287 17.6064Z" fill="#BE29B2"/>
<path d="M35.4082 16.1182C38.428 16.1182 40.8847 13.6616 40.8847 10.6417C40.8847 7.62183 38.428 5.16565 35.4082 5.16565C32.3883 5.16565 29.9316 7.62183 29.9316 10.6417C29.9316 13.6616 32.3888 16.1182 35.4082 16.1182ZM35.4082 7.46978C37.1574 7.46978 38.5801 8.89245 38.5801 10.6417C38.5801 12.3909 37.1569 13.8136 35.4082 13.8136C33.6594 13.8136 32.2363 12.3905 32.2363 10.6417C32.2363 8.89294 33.6594 7.46978 35.4082 7.46978Z" fill="#BE29B2"/>
<path d="M21.9986 13.7779C25.7967 13.7779 28.8875 10.6876 28.8875 6.88894C28.8875 3.09027 25.7972 0 21.9986 0C18.1999 0 15.1096 3.09027 15.1096 6.88894C15.1096 10.6871 18.1999 13.7779 21.9986 13.7779ZM21.9986 2.30413C24.5261 2.30413 26.5829 4.36089 26.5829 6.88894C26.5829 9.41649 24.5261 11.4732 21.9986 11.4732C19.4705 11.4732 17.4138 9.41649 17.4138 6.88894C17.4138 4.36089 19.4705 2.30413 21.9986 2.30413Z" fill="#BE29B2"/>
</svg>
