<svg width="13" height="14" viewBox="0 0 13 14" fill="none" xmlns="http://www.w3.org/2000/svg">
<path d="M6.59123 0.000603972C2.9356 -0.048771 -0.048771 2.9356 0.000603972 6.59123C0.049354 10.0972 2.90404 12.9519 6.40998 13.0006C10.0662 13.0506 13.05 10.0662 13 6.4106C12.9519 2.90404 10.0972 0.049354 6.59123 0.000603972ZM11.9069 5.9981L8.9981 5.99498C8.98388 5.99496 8.97009 5.99008 8.95901 5.98116C8.94793 5.97224 8.94022 5.95981 8.93717 5.94592C8.81283 5.40324 8.51108 4.91751 8.07967 4.5656C8.06869 4.55672 8.06104 4.54437 8.05797 4.53058C8.05491 4.51679 8.05661 4.50237 8.06279 4.48967L9.35404 1.88248C9.3579 1.87458 9.36339 1.86758 9.37014 1.86194C9.37689 1.8563 9.38476 1.85215 9.39322 1.84976C9.40169 1.84737 9.41056 1.8468 9.41927 1.84807C9.42797 1.84935 9.43631 1.85245 9.44373 1.85717C10.1443 2.30173 10.7353 2.89888 11.1727 3.60398C11.61 4.30908 11.8824 5.1039 11.9694 5.92904C11.9703 5.93778 11.9693 5.94662 11.9666 5.95498C11.9639 5.96334 11.9594 5.97103 11.9535 5.97754C11.9476 5.98406 11.9404 5.98926 11.9324 5.9928C11.9243 5.99635 11.9156 5.99815 11.9069 5.9981ZM5.00685 6.63748C4.97872 6.33041 5.0459 6.02213 5.19926 5.75462C5.35261 5.4871 5.58468 5.27334 5.86388 5.14245C6.14308 5.01156 6.45583 4.9699 6.75955 5.02313C7.06328 5.07637 7.34322 5.22191 7.56126 5.43995C7.7793 5.65799 7.92484 5.93793 7.97808 6.24166C8.03131 6.54538 7.98964 6.85813 7.85875 7.13733C7.72786 7.41652 7.51411 7.6486 7.24659 7.80195C6.97908 7.95531 6.6708 8.02249 6.36373 7.99435C6.01465 7.96237 5.6878 7.80914 5.43994 7.56127C5.19207 7.3134 5.03884 6.98655 5.00685 6.63748V6.63748ZM3.64592 1.88248L4.9381 4.48967C4.94429 4.50237 4.94599 4.51679 4.94292 4.53058C4.93986 4.54437 4.93221 4.55672 4.92123 4.5656C4.48958 4.91742 4.1876 5.40315 4.0631 5.94592C4.05999 5.96007 4.05206 5.97271 4.04065 5.98166C4.02925 5.99061 4.01509 5.99532 4.0006 5.99498L1.09185 5.9981C1.08306 5.99815 1.07436 5.99635 1.06632 5.9928C1.05827 5.98926 1.05107 5.98406 1.04517 5.97754C1.03927 5.97103 1.03481 5.96334 1.03209 5.95498C1.02936 5.94662 1.02843 5.93778 1.02935 5.92904C1.11634 5.1039 1.38868 4.30908 1.82603 3.60398C2.26337 2.89888 2.85441 2.30173 3.55498 1.85717C3.56244 1.85223 3.57088 1.84895 3.57972 1.84756C3.58856 1.84616 3.5976 1.84668 3.60622 1.84908C3.61484 1.85148 3.62285 1.85571 3.6297 1.86147C3.63655 1.86723 3.64208 1.87439 3.64592 1.88248V1.88248ZM3.63435 11.1119L5.39404 8.79654C5.40268 8.78524 5.41491 8.77723 5.42871 8.77382C5.44252 8.77041 5.45708 8.77181 5.46998 8.77779C5.79389 8.92482 6.14551 9.00089 6.50123 9.00089C6.85695 9.00089 7.20856 8.92482 7.53248 8.77779C7.54538 8.77181 7.55994 8.77041 7.57374 8.77382C7.58755 8.77723 7.59978 8.78524 7.60842 8.79654L9.3681 11.1119C9.37342 11.1188 9.37723 11.1268 9.37927 11.1353C9.38131 11.1438 9.38154 11.1526 9.37995 11.1612C9.37836 11.1698 9.37498 11.178 9.37003 11.1852C9.36509 11.1924 9.35868 11.1985 9.35123 11.2031C8.49234 11.7247 7.50674 12.0006 6.50185 12.0006C5.49697 12.0006 4.51137 11.7247 3.65248 11.2031C3.64493 11.1986 3.63841 11.1926 3.63334 11.1854C3.62827 11.1783 3.62477 11.1701 3.62306 11.1615C3.62135 11.1529 3.62147 11.144 3.62342 11.1355C3.62536 11.1269 3.62909 11.1189 3.63435 11.1119V11.1119Z" fill="#FFF500"/>
</svg>
