<svg width="57" height="57" viewBox="0 0 57 57" fill="none" xmlns="http://www.w3.org/2000/svg">
<path d="M40.3726 40.3503C37.1663 40.3503 35.1476 41.3478 33.3663 42.2503C31.8226 43.034 30.5638 43.6753 28.4976 43.6753C26.3601 43.6753 25.1726 43.0815 23.6288 42.2503C21.8476 41.3478 19.9001 40.3503 16.6226 40.3503C13.3451 40.3503 11.3976 41.3478 9.61631 42.2503C8.72752 42.7015 7.94107 43.1055 7.03488 43.3671C5.80616 43.7218 4.74756 44.712 4.74756 45.9909V45.9909C4.74756 47.2698 5.79262 48.333 7.0534 48.1185C9.00183 47.7871 10.4422 47.0711 11.7538 46.4065C13.2976 45.6228 14.5326 44.9815 16.6226 44.9815C18.7126 44.9815 19.9476 45.5753 21.4913 46.4065C23.2726 47.309 25.2201 48.3065 28.4976 48.3065C31.7751 48.3065 33.7226 47.309 35.5038 46.4065C37.0476 45.6228 38.3063 44.9815 40.3726 44.9815C42.5101 44.9815 43.6976 45.5753 45.2413 46.4065C46.5574 47.0733 47.9772 47.792 49.9414 48.1219C51.2026 48.3337 52.2476 47.2698 52.2476 45.9909V45.9909C52.2476 44.712 51.1892 43.7293 49.9571 43.3866C49.0479 43.1337 48.2732 42.7318 47.3788 42.2503C45.5976 41.3478 43.5788 40.3503 40.3726 40.3503ZM40.3726 29.7815C37.1663 29.7815 35.1476 30.8028 33.3663 31.6815C31.8226 32.4415 30.5638 33.1065 28.4976 33.1065C26.3601 33.1065 25.1726 32.5128 23.6288 31.6815C21.8476 30.779 19.9001 29.7815 16.6226 29.7815C13.3451 29.7815 11.3976 30.8028 9.61631 31.6815C8.72713 32.1193 7.94037 32.5255 7.03367 32.7913C5.80643 33.1511 4.74756 34.1433 4.74756 35.4221V35.4221C4.74756 36.701 5.79283 37.7641 7.05301 37.5462C9.00163 37.2093 10.4421 36.4849 11.7538 35.8378C13.2976 35.0065 14.4851 34.4128 16.6226 34.4128C18.7601 34.4128 19.9476 35.0065 21.4913 35.8378C23.2726 36.7403 25.2201 37.7378 28.4976 37.7378C31.7751 37.7378 33.7226 36.7165 35.5038 35.8378C37.0476 35.0065 38.2351 34.4128 40.3726 34.4128C42.5101 34.4128 43.6976 35.0065 45.2413 35.8378C46.5574 36.5046 47.9772 37.2233 49.9414 37.5531C51.2026 37.765 52.2476 36.701 52.2476 35.4221V35.4221C52.2476 34.1433 51.1892 33.1605 49.9571 32.8178C49.0479 32.5649 48.2732 32.1631 47.3788 31.6815C45.5976 30.779 43.5788 29.7815 40.3726 29.7815ZM47.3788 10.5915C45.5976 9.68903 43.6263 8.69153 40.3726 8.69153C37.1188 8.69153 35.1476 9.68903 33.3663 10.5915C31.8226 11.3515 30.5638 12.0165 28.4976 12.0165C26.3601 12.0165 25.1726 11.4228 23.6288 10.5915C21.8476 9.71278 19.9001 8.69153 16.6226 8.69153C13.3451 8.69153 11.3976 9.68903 9.61631 10.5915C8.72007 11.0465 7.92789 11.4535 7.01205 11.7149C5.79488 12.0622 4.74756 13.0426 4.74756 14.3084V14.3084C4.74756 15.5742 5.78189 16.626 7.02955 16.4127C8.99009 16.0776 10.4369 15.35 11.7538 14.7003C13.2976 13.9165 14.5326 13.2753 16.6226 13.2753C18.7126 13.2753 19.9476 13.869 21.4913 14.7003C23.2726 15.6028 25.2201 16.6003 28.4976 16.6003C31.7751 16.6003 33.7226 15.579 35.5038 14.7003C37.0476 13.9403 38.3063 13.2753 40.3726 13.2753C42.5101 13.2753 43.6976 13.869 45.2413 14.7003C46.5574 15.3671 47.9772 16.0858 49.9414 16.4157C51.2026 16.6275 52.2476 15.5635 52.2476 14.2847V14.2847C52.2476 13.0058 51.1902 12.0204 49.9564 11.6837C49.0475 11.4357 48.2729 11.0455 47.3788 10.5915ZM40.3726 19.2128C37.1663 19.2128 35.1476 20.234 33.3663 21.1128C31.8226 21.944 30.6351 22.5378 28.4976 22.5378C26.3601 22.5378 25.1726 21.944 23.6288 21.1128C21.8476 20.2103 19.9001 19.2128 16.6226 19.2128C13.3451 19.2128 11.3976 20.234 9.61631 21.1128C8.72197 21.5943 7.9472 21.9962 7.03802 22.2491C5.8059 22.5918 4.74756 23.5745 4.74756 24.8534V24.8534C4.74756 26.1323 5.79283 27.1953 7.05301 26.9774C9.00163 26.6405 10.4421 25.9161 11.7538 25.269C13.2976 24.509 14.5563 23.844 16.6226 23.844C18.6888 23.844 19.9476 24.4378 21.4913 25.269C23.2726 26.1715 25.2201 27.169 28.4976 27.169C31.7751 27.169 33.7226 26.1478 35.5038 25.269C37.0476 24.509 38.3063 23.844 40.3726 23.844C42.5101 23.844 43.6976 24.4378 45.2413 25.269C46.5574 25.9358 47.9772 26.6545 49.9414 26.9844C51.2026 27.1962 52.2476 26.1323 52.2476 24.8534V24.8534C52.2476 23.5745 51.1892 22.5918 49.9571 22.2491C49.0479 21.9962 48.2732 21.5943 47.3788 21.1128C45.5976 20.2103 43.5788 19.2128 40.3726 19.2128Z" fill="url(#paint0_linear_153:69)"/>
<defs>
<linearGradient id="paint0_linear_153:69" x1="4.74756" y1="48.3065" x2="52.2476" y2="48.3065" gradientUnits="userSpaceOnUse">
<stop stop-color="#610D89"/>
<stop offset="1" stop-color="#C42BB4"/>
</linearGradient>
</defs>
</svg>
