<svg width="24" height="24" viewBox="0 0 24 24" fill="none" xmlns="http://www.w3.org/2000/svg">
<path d="M4.45452 7.15512C3.84784 7.02485 3.84784 6.15923 4.45452 6.02895L6.20942 5.6521C6.43097 5.60453 6.60402 5.43147 6.6516 5.20993L7.02844 3.45501C7.15872 2.84833 8.02433 2.84833 8.15462 3.45501L8.53146 5.20993C8.57903 5.43147 8.75208 5.60453 8.97362 5.6521L10.7285 6.02895C11.3352 6.15923 11.3352 7.02485 10.7285 7.15512L8.97362 7.53197C8.75208 7.57955 8.57903 7.75261 8.53146 7.97415L8.15462 9.72907C8.02433 10.3357 7.15872 10.3357 7.02844 9.72907L6.6516 7.97415C6.60402 7.75261 6.43097 7.57955 6.20942 7.53197L4.45452 7.15512Z" fill="white"/>
<path fill-rule="evenodd" clip-rule="evenodd" d="M11.7045 4.94695C14.8853 4.94695 17.4638 7.52547 17.4638 10.7062C17.4638 13.887 14.8853 16.4655 11.7045 16.4655C8.5238 16.4655 5.9453 13.887 5.9453 10.7062C5.9453 10.2518 5.57694 9.88347 5.12255 9.88347C4.66817 9.88347 4.2998 10.2518 4.2998 10.7062C4.2998 13.0835 5.42008 15.1991 7.1615 16.554L6.42726 17.2883C6.11866 17.5969 5.9453 18.0154 5.9453 18.4518V20.1679C5.9453 20.8495 6.49783 21.402 7.17942 21.402H16.2296C16.9112 21.402 17.4638 20.8495 17.4638 20.1679V18.4518C17.4638 18.0154 17.2904 17.5969 16.9818 17.2883L16.2476 16.554C17.989 15.1991 19.1093 13.0835 19.1093 10.7062C19.1093 6.61668 15.7941 3.30145 11.7045 3.30145C11.2501 3.30145 10.8818 3.66981 10.8818 4.1242C10.8818 4.5786 11.2501 4.94695 11.7045 4.94695ZM11.7045 18.111C10.5991 18.111 9.55022 17.8688 8.60812 17.4345L7.5908 18.4518V19.7565H15.8183V18.4518L14.8009 17.4345C13.8588 17.8688 12.81 18.111 11.7045 18.111Z" fill="white"/>
</svg>
