<svg width="40" height="37" viewBox="0 0 40 37" fill="none" xmlns="http://www.w3.org/2000/svg">
<path d="M30.8738 1.79999H21.709C21.4241 1.79978 21.1507 1.91236 20.9485 2.11312L2.62625 20.4309C2.22516 20.8339 2 21.3794 2 21.948C2 22.5167 2.22516 23.0621 2.62625 23.4652L11.349 32.188C11.7522 32.5891 12.2978 32.8143 12.8665 32.8143C13.4353 32.8143 13.9809 32.5891 14.3841 32.188L32.7011 13.8776C32.9019 13.6755 33.0145 13.4021 33.0143 13.1172V3.94713C33.0156 3.66534 32.9613 3.38607 32.8543 3.12538C32.7473 2.86469 32.5898 2.62775 32.3908 2.42818C32.1919 2.22861 31.9554 2.07037 31.6951 1.96256C31.4347 1.85474 31.1556 1.7995 30.8738 1.79999V1.79999Z" stroke="white" stroke-width="3" stroke-linecap="round" stroke-linejoin="round"/>
<path d="M26.6523 9.75235C26.1805 9.75235 25.7192 9.61243 25.3269 9.35029C24.9346 9.08814 24.6288 8.71555 24.4482 8.27961C24.2676 7.84368 24.2204 7.36399 24.3124 6.90121C24.4045 6.43843 24.6317 6.01333 24.9654 5.67969C25.299 5.34604 25.7241 5.11882 26.1869 5.02677C26.6497 4.93472 27.1294 4.98196 27.5653 5.16253C28.0012 5.3431 28.3738 5.64888 28.636 6.04121C28.8981 6.43354 29.038 6.89479 29.038 7.36664C29.038 7.99937 28.7867 8.60619 28.3393 9.05359C27.8919 9.501 27.285 9.75235 26.6523 9.75235Z" fill="white"/>
<path d="M17.9048 35.2L37.4866 15.4065C37.5839 15.3072 37.6606 15.1892 37.7119 15.0594C37.7633 14.9297 37.7883 14.7908 37.7855 14.651V4.98093" stroke="white" stroke-width="3" stroke-linecap="round" stroke-linejoin="round"/>
</svg>
