<svg width="59" height="71" viewBox="0 0 59 71" fill="none" xmlns="http://www.w3.org/2000/svg">
<path d="M43.6272 25.1019C43.6272 25.1019 42.0469 17.5995 31.1205 18.2539C20.194 18.9123 20.7455 29.0116 8.60913 28.9169C-4.08281 28.8181 -6.92656 2.05971 29.6759 0.0843148C66.2785 -1.89108 65.2949 31.4397 42.8412 37.6046C42.8412 37.6046 18.4861 44.0575 22.8279 53.0086C22.8279 53.0086 28.0956 49.1895 33.2276 54.5889C38.3636 59.9883 33.4909 71.0464 22.9596 70.6513C12.4282 70.2563 3.86817 55.379 17.5602 44.4526C31.2522 33.5303 45.4174 36.9173 43.6272 25.1019Z" fill="url(#paint0_linear_300:1908)"/>
<defs>
<linearGradient id="paint0_linear_300:1908" x1="47.0126" y1="59.0923" x2="14.3032" y2="2.43792" gradientUnits="userSpaceOnUse">
<stop offset="0.00148362" stop-color="#DE64ED"/>
<stop offset="0.5146" stop-color="#A42E94"/>
<stop offset="0.9996" stop-color="#B735AD"/>
</linearGradient>
</defs>
</svg>
