<svg width="18" height="17" viewBox="0 0 18 17" fill="none" xmlns="http://www.w3.org/2000/svg">
<path d="M16.6596 7.14752L15.334 7.00421C14.8325 6.95047 14.4204 6.61012 14.2234 6.14436V6.12645C14.0263 5.6607 14.0801 5.12329 14.4025 4.7471L15.2445 3.72603C15.3699 3.56481 15.3699 3.33193 15.2086 3.18862L13.8472 1.82719C13.7039 1.68388 13.471 1.66596 13.3098 1.79136L12.2887 2.61538C11.8946 2.93783 11.3572 2.99157 10.8915 2.79452H10.8736C10.4078 2.59747 10.0674 2.18546 10.0137 1.68388L9.87039 0.358272C9.85248 0.161222 9.67334 0 9.47629 0H7.54162C7.34457 0 7.16544 0.161222 7.14752 0.358272L7.00421 1.68388C6.95047 2.18546 6.61012 2.59747 6.14436 2.79452H6.12645C5.6607 2.99157 5.12329 2.93783 4.72919 2.61538L3.70811 1.79136C3.54689 1.66596 3.31401 1.66596 3.17071 1.82719L1.80927 3.18862C1.66596 3.33193 1.64805 3.56481 1.77345 3.72603L2.61538 4.7471C2.93783 5.1412 2.99157 5.6607 2.79452 6.12645V6.14436C2.59747 6.61012 2.18546 6.95047 1.68388 7.00421L0.358272 7.14752C0.161222 7.16544 0 7.34457 0 7.54162V9.47629C0 9.67334 0.161222 9.85248 0.358272 9.87039L1.68388 10.0137C2.18546 10.0674 2.59747 10.4078 2.79452 10.8736V10.8915C2.99157 11.3572 2.93783 11.8946 2.61538 12.2708L1.77345 13.2919C1.64805 13.4531 1.64805 13.686 1.80927 13.8293L3.17071 15.1907C3.31401 15.334 3.54689 15.3519 3.70811 15.2266L4.72919 14.3846C5.12329 14.0622 5.64278 14.0084 6.10854 14.2055H6.12645C6.5922 14.4025 6.93256 14.8145 6.9863 15.3161L7.12961 16.6417C7.14752 16.8388 7.32666 17 7.52371 17H9.45838C9.65543 17 9.83456 16.8388 9.85248 16.6417L9.99578 15.3161C10.0495 14.8145 10.3899 14.4025 10.8556 14.2055H10.8736C11.3393 14.0084 11.8767 14.0622 12.2529 14.3846L13.274 15.2266C13.4352 15.3519 13.6681 15.3519 13.8114 15.1907L15.1728 13.8293C15.3161 13.686 15.334 13.4531 15.2086 13.2919L14.4025 12.2708C14.0801 11.8767 14.0263 11.3572 14.2234 10.8915V10.8736C14.4204 10.4078 14.8325 10.0674 15.334 10.0137L16.6596 9.87039C16.8567 9.85248 17.0179 9.67334 17.0179 9.47629V7.54162C17.0179 7.34457 16.8567 7.16544 16.6596 7.14752ZM8.50896 11.4647C6.87882 11.4647 5.55321 10.1391 5.55321 8.50896C5.55321 6.87882 6.87882 5.55321 8.50896 5.55321C10.1391 5.55321 11.4647 6.87882 11.4647 8.50896C11.4647 10.1391 10.1391 11.4647 8.50896 11.4647Z" fill="white"/>
</svg>
