<svg width="24" height="24" viewBox="0 0 25 24" fill="none" xmlns="http://www.w3.org/2000/svg">
<path d="M12.8283 0C6.20433 0 0.840332 5.376 0.840332 12C0.840332 18.624 6.20433 24 12.8283 24C19.4643 24 24.8403 18.624 24.8403 12C24.8403 5.376 19.4643 0 12.8283 0ZM21.1443 7.2H17.6043C17.2203 5.7 16.6683 4.26 15.9483 2.928C18.1563 3.684 19.9923 5.22 21.1443 7.2ZM12.8403 2.448C13.8363 3.888 14.6163 5.484 15.1323 7.2H10.5483C11.0643 5.484 11.8443 3.888 12.8403 2.448ZM3.55233 14.4C3.36033 13.632 3.24033 12.828 3.24033 12C3.24033 11.172 3.36033 10.368 3.55233 9.6H7.60833C7.51233 10.392 7.44033 11.184 7.44033 12C7.44033 12.816 7.51233 13.608 7.60833 14.4H3.55233ZM4.53633 16.8H8.07633C8.46033 18.3 9.01233 19.74 9.73233 21.072C7.52433 20.316 5.68833 18.792 4.53633 16.8ZM8.07633 7.2H4.53633C5.68833 5.208 7.52433 3.684 9.73233 2.928C9.01233 4.26 8.46033 5.7 8.07633 7.2ZM12.8403 21.552C11.8443 20.112 11.0643 18.516 10.5483 16.8H15.1323C14.6163 18.516 13.8363 20.112 12.8403 21.552ZM15.6483 14.4H10.0323C9.92433 13.608 9.84033 12.816 9.84033 12C9.84033 11.184 9.92433 10.38 10.0323 9.6H15.6483C15.7563 10.38 15.8403 11.184 15.8403 12C15.8403 12.816 15.7563 13.608 15.6483 14.4ZM15.9483 21.072C16.6683 19.74 17.2203 18.3 17.6043 16.8H21.1443C19.9923 18.78 18.1563 20.316 15.9483 21.072ZM18.0723 14.4C18.1683 13.608 18.2403 12.816 18.2403 12C18.2403 11.184 18.1683 10.392 18.0723 9.6H22.1283C22.3203 10.368 22.4403 11.172 22.4403 12C22.4403 12.828 22.3203 13.632 22.1283 14.4H18.0723Z" fill="white"/>
</svg>
