<svg width="87" height="87" viewBox="0 0 87 87" fill="none" xmlns="http://www.w3.org/2000/svg">
<g opacity="0.4">
<path d="M66.3376 31.1388L69.6363 27.8763C70.3189 27.1937 70.7024 26.2678 70.7024 25.3025C70.7024 24.3372 70.3189 23.4114 69.6363 22.7288C68.9537 22.0461 68.0279 21.6627 67.0626 21.6627C66.0972 21.6627 65.1714 22.0461 64.4888 22.7288L61.2263 26.0275C56.1461 22.0975 49.9049 19.9652 43.482 19.9652C37.059 19.9652 30.8178 22.0975 25.7376 26.0275L22.4388 22.6925C21.7514 22.0099 20.821 21.6283 19.8523 21.6317C18.8835 21.6351 17.9558 22.0232 17.2732 22.7106C16.5906 23.398 16.209 24.3285 16.2124 25.2972C16.2158 26.2659 16.6039 27.1937 17.2913 27.8763L20.6263 31.175C16.6498 36.2411 14.4921 42.4971 14.5001 48.9375C14.4883 53.5609 15.582 58.1201 17.6902 62.235C19.7983 66.3498 22.8598 69.9009 26.6192 72.5922C30.3786 75.2835 34.7269 77.0369 39.3017 77.7062C43.8764 78.3756 48.5448 77.9414 52.9177 76.44C57.2905 74.9385 61.241 72.4133 64.4396 69.075C67.6383 65.7366 69.9924 61.6818 71.3056 57.2488C72.6188 52.8158 72.8531 48.1331 71.9889 43.5911C71.1247 39.0492 69.187 34.7797 66.3376 31.1388V31.1388ZM43.5001 70.6875C39.1983 70.6875 34.9932 69.4119 31.4164 67.022C27.8397 64.632 25.0519 61.2352 23.4057 57.2609C21.7595 53.2866 21.3288 48.9134 22.168 44.6943C23.0072 40.4752 25.0787 36.5997 28.1205 33.5579C31.1623 30.5161 35.0378 28.4446 39.2569 27.6054C43.476 26.7662 47.8492 27.1969 51.8235 28.8431C55.7977 30.4893 59.1946 33.2771 61.5845 36.8538C63.9745 40.4306 65.2501 44.6358 65.2501 48.9375C65.2501 54.706 62.9586 60.2382 58.8797 64.3171C54.8007 68.396 49.2685 70.6875 43.5001 70.6875ZM36.2501 16.3125H50.7501C51.7115 16.3125 52.6335 15.9306 53.3134 15.2508C53.9932 14.5709 54.3751 13.6489 54.3751 12.6875C54.3751 11.7261 53.9932 10.8041 53.3134 10.1242C52.6335 9.44442 51.7115 9.0625 50.7501 9.0625H36.2501C35.2887 9.0625 34.3666 9.44442 33.6868 10.1242C33.007 10.8041 32.6251 11.7261 32.6251 12.6875C32.6251 13.6489 33.007 14.5709 33.6868 15.2508C34.3666 15.9306 35.2887 16.3125 36.2501 16.3125V16.3125ZM47.1251 38.0625C47.1251 37.1011 46.7432 36.1791 46.0634 35.4992C45.3835 34.8194 44.4615 34.4375 43.5001 34.4375C42.5387 34.4375 41.6166 34.8194 40.9368 35.4992C40.257 36.1791 39.8751 37.1011 39.8751 38.0625V44.9138C39.0543 45.6479 38.4757 46.614 38.216 47.6841C37.9563 48.7543 38.0276 49.8781 38.4205 50.9068C38.8135 51.9356 39.5095 52.8208 40.4165 53.4453C41.3236 54.0698 42.3989 54.4041 43.5001 54.4041C44.6013 54.4041 45.6766 54.0698 46.5836 53.4453C47.4907 52.8208 48.1867 51.9356 48.5797 50.9068C48.9726 49.8781 49.0439 48.7543 48.7842 47.6841C48.5244 46.614 47.9459 45.6479 47.1251 44.9138V38.0625Z" fill="white" stroke="#00001B" stroke-width="2"/>
</g>
</svg>
