<svg width="36" height="36" viewBox="0 0 36 36" fill="none" xmlns="http://www.w3.org/2000/svg">
<g opacity="0.4">
<path d="M27.45 12.885L28.815 11.535C29.0975 11.2525 29.2562 10.8695 29.2562 10.47C29.2562 10.0705 29.0975 9.68746 28.815 9.405C28.5326 9.12255 28.1495 8.96386 27.75 8.96386C27.3506 8.96386 26.9675 9.12255 26.685 9.405L25.335 10.77C23.2329 9.14378 20.6503 8.26145 17.9925 8.26145C15.3348 8.26145 12.7522 9.14378 10.65 10.77L9.28504 9.39C9.00059 9.10755 8.61559 8.94965 8.21474 8.95106C7.81388 8.95247 7.42999 9.11306 7.14754 9.3975C6.86508 9.68195 6.70719 10.0669 6.7086 10.4678C6.71001 10.8687 6.87059 11.2525 7.15504 11.535L8.53504 12.9C6.88956 14.9963 5.99673 17.585 6.00004 20.25C5.99514 22.1631 6.44773 24.0497 7.32007 25.7524C8.19241 27.4551 9.45922 28.9245 11.0148 30.0382C12.5704 31.1518 14.3698 31.8773 16.2628 32.1543C18.1557 32.4313 20.0875 32.2516 21.897 31.6303C23.7064 31.0091 25.3411 29.9641 26.6647 28.5827C27.9883 27.2013 28.9624 25.5235 29.5058 23.6892C30.0492 21.8548 30.1461 19.9171 29.7885 18.0377C29.4309 16.1583 28.6291 14.3916 27.45 12.885ZM18 29.25C16.22 29.25 14.4799 28.7222 12.9999 27.7332C11.5199 26.7443 10.3663 25.3387 9.68512 23.6942C9.00393 22.0496 8.8257 20.24 9.17297 18.4942C9.52024 16.7484 10.3774 15.1447 11.6361 13.886C12.8948 12.6274 14.4984 11.7702 16.2442 11.4229C17.9901 11.0757 19.7997 11.2539 21.4442 11.9351C23.0887 12.6163 24.4943 13.7698 25.4833 15.2499C26.4722 16.7299 27 18.47 27 20.25C27 22.637 26.0518 24.9261 24.364 26.614C22.6762 28.3018 20.387 29.25 18 29.25ZM15 6.75H21C21.3979 6.75 21.7794 6.59196 22.0607 6.31066C22.342 6.02936 22.5 5.64783 22.5 5.25C22.5 4.85218 22.342 4.47064 22.0607 4.18934C21.7794 3.90804 21.3979 3.75 21 3.75H15C14.6022 3.75 14.2207 3.90804 13.9394 4.18934C13.6581 4.47064 13.5 4.85218 13.5 5.25C13.5 5.64783 13.6581 6.02936 13.9394 6.31066C14.2207 6.59196 14.6022 6.75 15 6.75ZM19.5 15.75C19.5 15.3522 19.342 14.9706 19.0607 14.6893C18.7794 14.408 18.3979 14.25 18 14.25C17.6022 14.25 17.2207 14.408 16.9394 14.6893C16.6581 14.9706 16.5 15.3522 16.5 15.75V18.585C16.1604 18.8888 15.921 19.2885 15.8135 19.7314C15.706 20.1742 15.7356 20.6392 15.8982 21.0649C16.0607 21.4906 16.3488 21.8569 16.7241 22.1153C17.0994 22.3737 17.5444 22.5121 18 22.5121C18.4557 22.5121 18.9007 22.3737 19.276 22.1153C19.6513 21.8569 19.9393 21.4906 20.1019 21.0649C20.2645 20.6392 20.294 20.1742 20.1866 19.7314C20.0791 19.2885 19.8397 18.8888 19.5 18.585V15.75Z" fill="white"/>
</g>
</svg>
