<svg width="48" height="48" viewBox="0 0 48 48" fill="none" xmlns="http://www.w3.org/2000/svg">
<path d="M24 0C10.7451 0 0 10.7451 0 24C0 37.2549 10.7451 48 24 48C37.2549 48 48 37.2549 48 24C48 10.7451 37.2549 0 24 0Z" fill="#40B3E0"/>
<path d="M35.6777 13.8056L31.3909 35.4185C31.3909 35.4185 30.7915 36.9174 29.1428 36.198L19.2507 28.614L15.6537 26.8755L9.59853 24.837C9.59853 24.837 8.66928 24.5074 8.57928 23.7879C8.48928 23.0685 9.62853 22.6789 9.62853 22.6789L33.699 13.2364C33.699 13.2364 35.6775 12.3671 35.6775 13.806" fill="white"/>
<path d="M18.4907 35.1756C18.4907 35.1756 18.2019 35.1486 17.8419 34.0093C17.4825 32.8703 15.6538 26.8751 15.6538 26.8751L30.1922 17.6426C30.1922 17.6426 31.0316 17.133 31.0016 17.6426C31.0016 17.6426 31.1514 17.7326 30.7016 18.1523C30.2522 18.5721 19.281 28.434 19.281 28.434" fill="#D2E5F1"/>
<path d="M23.0438 31.5216L19.1312 35.0889C19.1312 35.0889 18.8252 35.3211 18.4907 35.1756L19.24 28.5493" fill="#B5CFE4"/>
</svg>
