<svg width="59" height="48" viewBox="0 0 59 48" fill="none" xmlns="http://www.w3.org/2000/svg">
<g clip-path="url(#clip0_11:3547)">
<path d="M58.7943 5.84497C56.6308 6.80428 54.3061 7.45263 51.8662 7.7443C54.3569 6.25148 56.2693 3.88754 57.1698 1.07093C54.8021 2.47598 52.2116 3.46593 49.5103 3.99801C47.3099 1.65382 44.1752 0.188782 40.7056 0.188782C34.0439 0.188782 28.6429 5.58959 28.6429 12.2508C28.6429 13.1963 28.7497 14.1168 28.9553 14.9999C18.9304 14.4967 10.0423 9.69462 4.09286 2.39678C3.05477 4.17829 2.45994 6.25056 2.45994 8.46086C2.45994 12.6458 4.58963 16.3377 7.82607 18.5009C5.91054 18.4409 4.03716 17.9235 2.36233 16.992C2.36165 17.0425 2.36165 17.0931 2.36165 17.1438C2.36165 22.9881 6.5195 27.8634 12.0374 28.9716C10.2612 29.4546 8.398 29.5253 6.59024 29.1783C8.12509 33.9704 12.5799 37.4577 17.8581 37.5553C13.7298 40.7904 8.52861 42.7188 2.87747 42.7188C1.90369 42.7188 0.943694 42.6617 0 42.5503C5.33811 45.9727 11.6785 47.9697 18.4903 47.9697C40.6776 47.9697 52.8101 29.5894 52.8101 13.6497C52.8101 13.1265 52.7986 12.6063 52.7752 12.0891C55.1367 10.382 57.1749 8.26752 58.7943 5.84497Z" fill="#55ACEE"/>
</g>
<defs>
<clipPath id="clip0_11:3547">
<rect width="58.7943" height="48" fill="white"/>
</clipPath>
</defs>
</svg>
