<svg width="24" height="24" viewBox="0 0 24 20" fill="none" xmlns="http://www.w3.org/2000/svg">
<path d="M7.4975 19.6801C16.4943 19.6801 21.4143 12.2324 21.4143 5.77411C21.4143 5.56257 21.41 5.35199 21.4005 5.14236C22.3555 4.45248 23.1856 3.59157 23.8403 2.61153C22.9639 3.00078 22.0208 3.26282 21.0315 3.38097C22.0413 2.7759 22.8166 1.81875 23.1823 0.677718C22.2373 1.23753 21.1907 1.64441 20.0764 1.86407C19.1839 0.914094 17.9131 0.319916 16.5061 0.319916C13.805 0.319916 11.6146 2.50869 11.6146 5.20667C11.6146 5.5902 11.6575 5.96325 11.7414 6.32108C7.6762 6.11669 4.07148 4.17188 1.659 1.21466C1.23894 1.93693 0.996724 2.77593 0.996724 3.67115C0.996724 5.36679 1.86024 6.8637 3.17336 7.73942C2.37088 7.71465 1.61704 7.49453 0.958164 7.12815C0.957444 7.14865 0.957441 7.16865 0.957441 7.19057C0.957441 9.55752 2.64344 11.5337 4.88152 11.9816C4.47052 12.0935 4.03808 12.1535 3.59176 12.1535C3.27707 12.1535 2.97048 12.1226 2.67248 12.0654C3.29518 14.0073 5.10088 15.4205 7.24168 15.46C5.5676 16.7711 3.45872 17.552 1.16672 17.552C0.772404 17.552 0.382856 17.5296 0 17.4844C2.16472 18.8708 4.73512 19.6798 7.49776 19.6798" fill="white"/>
</svg>
