<svg width="51" height="51" viewBox="0 0 51 51" fill="none" xmlns="http://www.w3.org/2000/svg">
<path d="M25.5 3.1875C13.1783 3.1875 3.1875 13.1783 3.1875 25.5C3.1875 37.8217 13.1783 47.8125 25.5 47.8125C37.8217 47.8125 47.8125 37.8217 47.8125 25.5C47.8125 13.1783 37.8217 3.1875 25.5 3.1875ZM25.5 44.0273C15.2701 44.0273 6.97266 35.7299 6.97266 25.5C6.97266 15.2701 15.2701 6.97266 25.5 6.97266C35.7299 6.97266 44.0273 15.2701 44.0273 25.5C44.0273 35.7299 35.7299 44.0273 25.5 44.0273ZM27.8757 24.3445L26.6106 24.0507V17.3619C28.5032 17.6209 29.6736 18.8062 29.8729 20.2605C29.8978 20.4598 30.0671 20.6042 30.2663 20.6042H32.5025C32.7366 20.6042 32.9209 20.4 32.901 20.1659C32.5972 17.0631 30.0422 15.0709 26.6306 14.7272V13.0986C26.6306 12.8795 26.4513 12.7002 26.2321 12.7002H24.8326C24.6135 12.7002 24.4342 12.8795 24.4342 13.0986V14.7422C20.908 15.0858 18.1488 17.0332 18.1488 20.6689C18.1488 24.0357 20.6291 25.6594 23.2339 26.2819L24.4641 26.5957V33.7028C22.2627 33.409 21.0275 32.2336 20.7735 30.6498C20.7437 30.4605 20.5743 30.3211 20.3801 30.3211H18.0791C17.845 30.3211 17.6607 30.5203 17.6807 30.7544C17.9048 33.4937 19.9816 36.0138 24.4143 36.3375V37.9014C24.4143 38.1205 24.5936 38.2998 24.8127 38.2998H26.2271C26.4463 38.2998 26.6256 38.1205 26.6256 37.8964L26.6156 36.3176C30.5153 35.9739 33.3044 33.8871 33.3044 30.1418C33.2994 26.6854 31.103 25.1414 27.8757 24.3445ZM24.4591 23.5377C24.1802 23.458 23.9461 23.3833 23.712 23.2887C22.0286 22.6811 21.2467 21.6999 21.2467 20.4349C21.2467 18.627 22.6163 17.596 24.4591 17.3619V23.5377ZM26.6106 33.7178V27.0589C26.765 27.1037 26.9045 27.1386 27.0489 27.1685C29.4047 27.8856 30.1966 28.8817 30.1966 30.4107C30.1966 32.3581 28.7323 33.5285 26.6106 33.7178Z" fill="white"/>
</svg>
