<svg width="37" height="37" viewBox="0 0 37 37" fill="none" xmlns="http://www.w3.org/2000/svg">
<path d="M18.5 0C14.841 0 11.2643 1.08501 8.22196 3.11781C5.17965 5.15062 2.80846 8.03992 1.40824 11.4204C0.00801594 14.8008 -0.358346 18.5205 0.355481 22.1092C1.06931 25.6978 2.83126 28.9942 5.41853 31.5815C8.0058 34.1687 11.3022 35.9307 14.8908 36.6445C18.4795 37.3583 22.1992 36.992 25.5796 35.5918C28.9601 34.1915 31.8494 31.8203 33.8822 28.778C35.915 25.7357 37 22.1589 37 18.5C37 13.5935 35.0509 8.88795 31.5815 5.41852C28.1121 1.9491 23.4065 0 18.5 0ZM18.5 32.4367C18.0121 32.4367 17.5352 32.292 17.1296 32.0209C16.724 31.7499 16.4078 31.3647 16.2211 30.9139C16.0344 30.4632 15.9856 29.9673 16.0807 29.4888C16.1759 29.0103 16.4108 28.5708 16.7558 28.2258C17.1008 27.8808 17.5403 27.6459 18.0188 27.5507C18.4973 27.4555 18.9932 27.5044 19.444 27.6911C19.8947 27.8778 20.2799 28.1939 20.551 28.5996C20.822 29.0052 20.9667 29.4821 20.9667 29.97C20.9667 30.6242 20.7068 31.2516 20.2442 31.7142C19.7816 32.1768 19.1542 32.4367 18.5 32.4367ZM22.755 11.5933L19.7333 23.902C19.6623 24.1633 19.5073 24.3939 19.2922 24.5584C19.0771 24.7228 18.8139 24.8119 18.5432 24.8119C18.2724 24.8119 18.0092 24.7228 17.7941 24.5584C17.579 24.3939 17.424 24.1633 17.353 23.902L14.3067 11.5687C14.1519 10.9251 14.1451 10.2549 14.2867 9.60834C14.4283 8.96179 14.7146 8.35576 15.1242 7.83581C15.5337 7.31586 16.0558 6.89553 16.6512 6.60642C17.2466 6.31732 17.8998 6.16697 18.5617 6.16667C19.2218 6.17299 19.8718 6.32891 20.463 6.62271C21.0541 6.91651 21.571 7.34053 21.9746 7.86288C22.3782 8.38524 22.6582 8.99232 22.7933 9.63846C22.9285 10.2846 22.9154 10.953 22.755 11.5933Z" fill="#E93F33"/>
</svg>
